G04 EAGLE Gerber RS-274X export*
G75*
%MOMM*%
%FSLAX34Y34*%
%LPD*%
%INSoldermask Bottom*%
%IPPOS*%
%AMOC8*
5,1,8,0,0,1.08239X$1,22.5*%
G01*
%ADD10C,1.221313*%
%ADD11C,2.082800*%
%ADD12R,0.863600X1.473200*%
%ADD13C,3.505200*%
%ADD14C,1.203200*%
%ADD15C,1.270000*%
%ADD16C,1.703200*%

G36*
X1129730Y1275727D02*
X1129730Y1275727D01*
X1129796Y1275729D01*
X1129839Y1275747D01*
X1129886Y1275755D01*
X1129943Y1275789D01*
X1130003Y1275814D01*
X1130038Y1275845D01*
X1130079Y1275870D01*
X1130121Y1275921D01*
X1130169Y1275965D01*
X1130191Y1276007D01*
X1130220Y1276044D01*
X1130241Y1276106D01*
X1130272Y1276165D01*
X1130280Y1276219D01*
X1130292Y1276256D01*
X1130291Y1276296D01*
X1130299Y1276350D01*
X1130299Y1278890D01*
X1130288Y1278955D01*
X1130286Y1279021D01*
X1130268Y1279064D01*
X1130260Y1279111D01*
X1130226Y1279168D01*
X1130201Y1279228D01*
X1130170Y1279263D01*
X1130145Y1279304D01*
X1130094Y1279346D01*
X1130050Y1279394D01*
X1130008Y1279416D01*
X1129971Y1279445D01*
X1129909Y1279466D01*
X1129850Y1279497D01*
X1129796Y1279505D01*
X1129759Y1279517D01*
X1129719Y1279516D01*
X1129665Y1279524D01*
X1125855Y1279524D01*
X1125790Y1279513D01*
X1125724Y1279511D01*
X1125681Y1279493D01*
X1125634Y1279485D01*
X1125577Y1279451D01*
X1125517Y1279426D01*
X1125482Y1279395D01*
X1125441Y1279370D01*
X1125400Y1279319D01*
X1125351Y1279275D01*
X1125329Y1279233D01*
X1125300Y1279196D01*
X1125279Y1279134D01*
X1125248Y1279075D01*
X1125240Y1279021D01*
X1125228Y1278984D01*
X1125228Y1278981D01*
X1125229Y1278944D01*
X1125221Y1278890D01*
X1125221Y1276350D01*
X1125232Y1276285D01*
X1125234Y1276219D01*
X1125252Y1276176D01*
X1125260Y1276129D01*
X1125294Y1276072D01*
X1125319Y1276012D01*
X1125350Y1275977D01*
X1125375Y1275936D01*
X1125426Y1275895D01*
X1125470Y1275846D01*
X1125512Y1275824D01*
X1125549Y1275795D01*
X1125611Y1275774D01*
X1125670Y1275743D01*
X1125724Y1275735D01*
X1125761Y1275723D01*
X1125801Y1275724D01*
X1125855Y1275716D01*
X1129665Y1275716D01*
X1129730Y1275727D01*
G37*
G36*
X667450Y1275727D02*
X667450Y1275727D01*
X667516Y1275729D01*
X667559Y1275747D01*
X667606Y1275755D01*
X667663Y1275789D01*
X667723Y1275814D01*
X667758Y1275845D01*
X667799Y1275870D01*
X667841Y1275921D01*
X667889Y1275965D01*
X667911Y1276007D01*
X667940Y1276044D01*
X667961Y1276106D01*
X667992Y1276165D01*
X668000Y1276219D01*
X668012Y1276256D01*
X668011Y1276296D01*
X668019Y1276350D01*
X668019Y1278890D01*
X668008Y1278955D01*
X668006Y1279021D01*
X667988Y1279064D01*
X667980Y1279111D01*
X667946Y1279168D01*
X667921Y1279228D01*
X667890Y1279263D01*
X667865Y1279304D01*
X667814Y1279346D01*
X667770Y1279394D01*
X667728Y1279416D01*
X667691Y1279445D01*
X667629Y1279466D01*
X667570Y1279497D01*
X667516Y1279505D01*
X667479Y1279517D01*
X667439Y1279516D01*
X667385Y1279524D01*
X663575Y1279524D01*
X663510Y1279513D01*
X663444Y1279511D01*
X663401Y1279493D01*
X663354Y1279485D01*
X663297Y1279451D01*
X663237Y1279426D01*
X663202Y1279395D01*
X663161Y1279370D01*
X663120Y1279319D01*
X663071Y1279275D01*
X663049Y1279233D01*
X663020Y1279196D01*
X662999Y1279134D01*
X662968Y1279075D01*
X662960Y1279021D01*
X662948Y1278984D01*
X662948Y1278981D01*
X662949Y1278944D01*
X662941Y1278890D01*
X662941Y1276350D01*
X662952Y1276285D01*
X662954Y1276219D01*
X662972Y1276176D01*
X662980Y1276129D01*
X663014Y1276072D01*
X663039Y1276012D01*
X663070Y1275977D01*
X663095Y1275936D01*
X663146Y1275895D01*
X663190Y1275846D01*
X663232Y1275824D01*
X663269Y1275795D01*
X663331Y1275774D01*
X663390Y1275743D01*
X663444Y1275735D01*
X663481Y1275723D01*
X663521Y1275724D01*
X663575Y1275716D01*
X667385Y1275716D01*
X667450Y1275727D01*
G37*
G36*
X205170Y1275727D02*
X205170Y1275727D01*
X205236Y1275729D01*
X205279Y1275747D01*
X205326Y1275755D01*
X205383Y1275789D01*
X205443Y1275814D01*
X205478Y1275845D01*
X205519Y1275870D01*
X205561Y1275921D01*
X205609Y1275965D01*
X205631Y1276007D01*
X205660Y1276044D01*
X205681Y1276106D01*
X205712Y1276165D01*
X205720Y1276219D01*
X205732Y1276256D01*
X205731Y1276296D01*
X205739Y1276350D01*
X205739Y1278890D01*
X205728Y1278955D01*
X205726Y1279021D01*
X205708Y1279064D01*
X205700Y1279111D01*
X205666Y1279168D01*
X205641Y1279228D01*
X205610Y1279263D01*
X205585Y1279304D01*
X205534Y1279346D01*
X205490Y1279394D01*
X205448Y1279416D01*
X205411Y1279445D01*
X205349Y1279466D01*
X205290Y1279497D01*
X205236Y1279505D01*
X205199Y1279517D01*
X205159Y1279516D01*
X205105Y1279524D01*
X201295Y1279524D01*
X201230Y1279513D01*
X201164Y1279511D01*
X201121Y1279493D01*
X201074Y1279485D01*
X201017Y1279451D01*
X200957Y1279426D01*
X200922Y1279395D01*
X200881Y1279370D01*
X200840Y1279319D01*
X200791Y1279275D01*
X200769Y1279233D01*
X200740Y1279196D01*
X200719Y1279134D01*
X200688Y1279075D01*
X200680Y1279021D01*
X200668Y1278984D01*
X200668Y1278981D01*
X200669Y1278944D01*
X200661Y1278890D01*
X200661Y1276350D01*
X200672Y1276285D01*
X200674Y1276219D01*
X200692Y1276176D01*
X200700Y1276129D01*
X200734Y1276072D01*
X200759Y1276012D01*
X200790Y1275977D01*
X200815Y1275936D01*
X200866Y1275895D01*
X200910Y1275846D01*
X200952Y1275824D01*
X200989Y1275795D01*
X201051Y1275774D01*
X201110Y1275743D01*
X201164Y1275735D01*
X201201Y1275723D01*
X201241Y1275724D01*
X201295Y1275716D01*
X205105Y1275716D01*
X205170Y1275727D01*
G37*
G36*
X205170Y1016647D02*
X205170Y1016647D01*
X205236Y1016649D01*
X205279Y1016667D01*
X205326Y1016675D01*
X205383Y1016709D01*
X205443Y1016734D01*
X205478Y1016765D01*
X205519Y1016790D01*
X205561Y1016841D01*
X205609Y1016885D01*
X205631Y1016927D01*
X205660Y1016964D01*
X205681Y1017026D01*
X205712Y1017085D01*
X205720Y1017139D01*
X205732Y1017176D01*
X205731Y1017216D01*
X205739Y1017270D01*
X205739Y1019810D01*
X205728Y1019875D01*
X205726Y1019941D01*
X205708Y1019984D01*
X205700Y1020031D01*
X205666Y1020088D01*
X205641Y1020148D01*
X205610Y1020183D01*
X205585Y1020224D01*
X205534Y1020266D01*
X205490Y1020314D01*
X205448Y1020336D01*
X205411Y1020365D01*
X205349Y1020386D01*
X205290Y1020417D01*
X205236Y1020425D01*
X205199Y1020437D01*
X205159Y1020436D01*
X205105Y1020444D01*
X201295Y1020444D01*
X201230Y1020433D01*
X201164Y1020431D01*
X201121Y1020413D01*
X201074Y1020405D01*
X201017Y1020371D01*
X200957Y1020346D01*
X200922Y1020315D01*
X200881Y1020290D01*
X200840Y1020239D01*
X200791Y1020195D01*
X200769Y1020153D01*
X200740Y1020116D01*
X200719Y1020054D01*
X200688Y1019995D01*
X200680Y1019941D01*
X200668Y1019904D01*
X200668Y1019901D01*
X200669Y1019864D01*
X200661Y1019810D01*
X200661Y1017270D01*
X200672Y1017205D01*
X200674Y1017139D01*
X200692Y1017096D01*
X200700Y1017049D01*
X200734Y1016992D01*
X200759Y1016932D01*
X200790Y1016897D01*
X200815Y1016856D01*
X200866Y1016815D01*
X200910Y1016766D01*
X200952Y1016744D01*
X200989Y1016715D01*
X201051Y1016694D01*
X201110Y1016663D01*
X201164Y1016655D01*
X201201Y1016643D01*
X201241Y1016644D01*
X201295Y1016636D01*
X205105Y1016636D01*
X205170Y1016647D01*
G37*
G36*
X1129730Y1016647D02*
X1129730Y1016647D01*
X1129796Y1016649D01*
X1129839Y1016667D01*
X1129886Y1016675D01*
X1129943Y1016709D01*
X1130003Y1016734D01*
X1130038Y1016765D01*
X1130079Y1016790D01*
X1130121Y1016841D01*
X1130169Y1016885D01*
X1130191Y1016927D01*
X1130220Y1016964D01*
X1130241Y1017026D01*
X1130272Y1017085D01*
X1130280Y1017139D01*
X1130292Y1017176D01*
X1130291Y1017216D01*
X1130299Y1017270D01*
X1130299Y1019810D01*
X1130288Y1019875D01*
X1130286Y1019941D01*
X1130268Y1019984D01*
X1130260Y1020031D01*
X1130226Y1020088D01*
X1130201Y1020148D01*
X1130170Y1020183D01*
X1130145Y1020224D01*
X1130094Y1020266D01*
X1130050Y1020314D01*
X1130008Y1020336D01*
X1129971Y1020365D01*
X1129909Y1020386D01*
X1129850Y1020417D01*
X1129796Y1020425D01*
X1129759Y1020437D01*
X1129719Y1020436D01*
X1129665Y1020444D01*
X1125855Y1020444D01*
X1125790Y1020433D01*
X1125724Y1020431D01*
X1125681Y1020413D01*
X1125634Y1020405D01*
X1125577Y1020371D01*
X1125517Y1020346D01*
X1125482Y1020315D01*
X1125441Y1020290D01*
X1125400Y1020239D01*
X1125351Y1020195D01*
X1125329Y1020153D01*
X1125300Y1020116D01*
X1125279Y1020054D01*
X1125248Y1019995D01*
X1125240Y1019941D01*
X1125228Y1019904D01*
X1125228Y1019901D01*
X1125229Y1019864D01*
X1125221Y1019810D01*
X1125221Y1017270D01*
X1125232Y1017205D01*
X1125234Y1017139D01*
X1125252Y1017096D01*
X1125260Y1017049D01*
X1125294Y1016992D01*
X1125319Y1016932D01*
X1125350Y1016897D01*
X1125375Y1016856D01*
X1125426Y1016815D01*
X1125470Y1016766D01*
X1125512Y1016744D01*
X1125549Y1016715D01*
X1125611Y1016694D01*
X1125670Y1016663D01*
X1125724Y1016655D01*
X1125761Y1016643D01*
X1125801Y1016644D01*
X1125855Y1016636D01*
X1129665Y1016636D01*
X1129730Y1016647D01*
G37*
G36*
X667450Y1016647D02*
X667450Y1016647D01*
X667516Y1016649D01*
X667559Y1016667D01*
X667606Y1016675D01*
X667663Y1016709D01*
X667723Y1016734D01*
X667758Y1016765D01*
X667799Y1016790D01*
X667841Y1016841D01*
X667889Y1016885D01*
X667911Y1016927D01*
X667940Y1016964D01*
X667961Y1017026D01*
X667992Y1017085D01*
X668000Y1017139D01*
X668012Y1017176D01*
X668011Y1017216D01*
X668019Y1017270D01*
X668019Y1019810D01*
X668008Y1019875D01*
X668006Y1019941D01*
X667988Y1019984D01*
X667980Y1020031D01*
X667946Y1020088D01*
X667921Y1020148D01*
X667890Y1020183D01*
X667865Y1020224D01*
X667814Y1020266D01*
X667770Y1020314D01*
X667728Y1020336D01*
X667691Y1020365D01*
X667629Y1020386D01*
X667570Y1020417D01*
X667516Y1020425D01*
X667479Y1020437D01*
X667439Y1020436D01*
X667385Y1020444D01*
X663575Y1020444D01*
X663510Y1020433D01*
X663444Y1020431D01*
X663401Y1020413D01*
X663354Y1020405D01*
X663297Y1020371D01*
X663237Y1020346D01*
X663202Y1020315D01*
X663161Y1020290D01*
X663120Y1020239D01*
X663071Y1020195D01*
X663049Y1020153D01*
X663020Y1020116D01*
X662999Y1020054D01*
X662968Y1019995D01*
X662960Y1019941D01*
X662948Y1019904D01*
X662948Y1019901D01*
X662949Y1019864D01*
X662941Y1019810D01*
X662941Y1017270D01*
X662952Y1017205D01*
X662954Y1017139D01*
X662972Y1017096D01*
X662980Y1017049D01*
X663014Y1016992D01*
X663039Y1016932D01*
X663070Y1016897D01*
X663095Y1016856D01*
X663146Y1016815D01*
X663190Y1016766D01*
X663232Y1016744D01*
X663269Y1016715D01*
X663331Y1016694D01*
X663390Y1016663D01*
X663444Y1016655D01*
X663481Y1016643D01*
X663521Y1016644D01*
X663575Y1016636D01*
X667385Y1016636D01*
X667450Y1016647D01*
G37*
G36*
X667450Y757567D02*
X667450Y757567D01*
X667516Y757569D01*
X667559Y757587D01*
X667606Y757595D01*
X667663Y757629D01*
X667723Y757654D01*
X667758Y757685D01*
X667799Y757710D01*
X667841Y757761D01*
X667889Y757805D01*
X667911Y757847D01*
X667940Y757884D01*
X667961Y757946D01*
X667992Y758005D01*
X668000Y758059D01*
X668012Y758096D01*
X668011Y758136D01*
X668019Y758190D01*
X668019Y760730D01*
X668008Y760795D01*
X668006Y760861D01*
X667988Y760904D01*
X667980Y760951D01*
X667946Y761008D01*
X667921Y761068D01*
X667890Y761103D01*
X667865Y761144D01*
X667814Y761186D01*
X667770Y761234D01*
X667728Y761256D01*
X667691Y761285D01*
X667629Y761306D01*
X667570Y761337D01*
X667516Y761345D01*
X667479Y761357D01*
X667439Y761356D01*
X667385Y761364D01*
X663575Y761364D01*
X663510Y761353D01*
X663444Y761351D01*
X663401Y761333D01*
X663354Y761325D01*
X663297Y761291D01*
X663237Y761266D01*
X663202Y761235D01*
X663161Y761210D01*
X663120Y761159D01*
X663071Y761115D01*
X663049Y761073D01*
X663020Y761036D01*
X662999Y760974D01*
X662968Y760915D01*
X662960Y760861D01*
X662948Y760824D01*
X662948Y760821D01*
X662949Y760784D01*
X662941Y760730D01*
X662941Y758190D01*
X662952Y758125D01*
X662954Y758059D01*
X662972Y758016D01*
X662980Y757969D01*
X663014Y757912D01*
X663039Y757852D01*
X663070Y757817D01*
X663095Y757776D01*
X663146Y757735D01*
X663190Y757686D01*
X663232Y757664D01*
X663269Y757635D01*
X663331Y757614D01*
X663390Y757583D01*
X663444Y757575D01*
X663481Y757563D01*
X663521Y757564D01*
X663575Y757556D01*
X667385Y757556D01*
X667450Y757567D01*
G37*
G36*
X1129730Y757567D02*
X1129730Y757567D01*
X1129796Y757569D01*
X1129839Y757587D01*
X1129886Y757595D01*
X1129943Y757629D01*
X1130003Y757654D01*
X1130038Y757685D01*
X1130079Y757710D01*
X1130121Y757761D01*
X1130169Y757805D01*
X1130191Y757847D01*
X1130220Y757884D01*
X1130241Y757946D01*
X1130272Y758005D01*
X1130280Y758059D01*
X1130292Y758096D01*
X1130291Y758136D01*
X1130299Y758190D01*
X1130299Y760730D01*
X1130288Y760795D01*
X1130286Y760861D01*
X1130268Y760904D01*
X1130260Y760951D01*
X1130226Y761008D01*
X1130201Y761068D01*
X1130170Y761103D01*
X1130145Y761144D01*
X1130094Y761186D01*
X1130050Y761234D01*
X1130008Y761256D01*
X1129971Y761285D01*
X1129909Y761306D01*
X1129850Y761337D01*
X1129796Y761345D01*
X1129759Y761357D01*
X1129719Y761356D01*
X1129665Y761364D01*
X1125855Y761364D01*
X1125790Y761353D01*
X1125724Y761351D01*
X1125681Y761333D01*
X1125634Y761325D01*
X1125577Y761291D01*
X1125517Y761266D01*
X1125482Y761235D01*
X1125441Y761210D01*
X1125400Y761159D01*
X1125351Y761115D01*
X1125329Y761073D01*
X1125300Y761036D01*
X1125279Y760974D01*
X1125248Y760915D01*
X1125240Y760861D01*
X1125228Y760824D01*
X1125228Y760821D01*
X1125229Y760784D01*
X1125221Y760730D01*
X1125221Y758190D01*
X1125232Y758125D01*
X1125234Y758059D01*
X1125252Y758016D01*
X1125260Y757969D01*
X1125294Y757912D01*
X1125319Y757852D01*
X1125350Y757817D01*
X1125375Y757776D01*
X1125426Y757735D01*
X1125470Y757686D01*
X1125512Y757664D01*
X1125549Y757635D01*
X1125611Y757614D01*
X1125670Y757583D01*
X1125724Y757575D01*
X1125761Y757563D01*
X1125801Y757564D01*
X1125855Y757556D01*
X1129665Y757556D01*
X1129730Y757567D01*
G37*
G36*
X205170Y757567D02*
X205170Y757567D01*
X205236Y757569D01*
X205279Y757587D01*
X205326Y757595D01*
X205383Y757629D01*
X205443Y757654D01*
X205478Y757685D01*
X205519Y757710D01*
X205561Y757761D01*
X205609Y757805D01*
X205631Y757847D01*
X205660Y757884D01*
X205681Y757946D01*
X205712Y758005D01*
X205720Y758059D01*
X205732Y758096D01*
X205731Y758136D01*
X205739Y758190D01*
X205739Y760730D01*
X205728Y760795D01*
X205726Y760861D01*
X205708Y760904D01*
X205700Y760951D01*
X205666Y761008D01*
X205641Y761068D01*
X205610Y761103D01*
X205585Y761144D01*
X205534Y761186D01*
X205490Y761234D01*
X205448Y761256D01*
X205411Y761285D01*
X205349Y761306D01*
X205290Y761337D01*
X205236Y761345D01*
X205199Y761357D01*
X205159Y761356D01*
X205105Y761364D01*
X201295Y761364D01*
X201230Y761353D01*
X201164Y761351D01*
X201121Y761333D01*
X201074Y761325D01*
X201017Y761291D01*
X200957Y761266D01*
X200922Y761235D01*
X200881Y761210D01*
X200840Y761159D01*
X200791Y761115D01*
X200769Y761073D01*
X200740Y761036D01*
X200719Y760974D01*
X200688Y760915D01*
X200680Y760861D01*
X200668Y760824D01*
X200668Y760821D01*
X200669Y760784D01*
X200661Y760730D01*
X200661Y758190D01*
X200672Y758125D01*
X200674Y758059D01*
X200692Y758016D01*
X200700Y757969D01*
X200734Y757912D01*
X200759Y757852D01*
X200790Y757817D01*
X200815Y757776D01*
X200866Y757735D01*
X200910Y757686D01*
X200952Y757664D01*
X200989Y757635D01*
X201051Y757614D01*
X201110Y757583D01*
X201164Y757575D01*
X201201Y757563D01*
X201241Y757564D01*
X201295Y757556D01*
X205105Y757556D01*
X205170Y757567D01*
G37*
G36*
X1129730Y498487D02*
X1129730Y498487D01*
X1129796Y498489D01*
X1129839Y498507D01*
X1129886Y498515D01*
X1129943Y498549D01*
X1130003Y498574D01*
X1130038Y498605D01*
X1130079Y498630D01*
X1130121Y498681D01*
X1130169Y498725D01*
X1130191Y498767D01*
X1130220Y498804D01*
X1130241Y498866D01*
X1130272Y498925D01*
X1130280Y498979D01*
X1130292Y499016D01*
X1130291Y499056D01*
X1130299Y499110D01*
X1130299Y501650D01*
X1130288Y501715D01*
X1130286Y501781D01*
X1130268Y501824D01*
X1130260Y501871D01*
X1130226Y501928D01*
X1130201Y501988D01*
X1130170Y502023D01*
X1130145Y502064D01*
X1130094Y502106D01*
X1130050Y502154D01*
X1130008Y502176D01*
X1129971Y502205D01*
X1129909Y502226D01*
X1129850Y502257D01*
X1129796Y502265D01*
X1129759Y502277D01*
X1129719Y502276D01*
X1129665Y502284D01*
X1125855Y502284D01*
X1125790Y502273D01*
X1125724Y502271D01*
X1125681Y502253D01*
X1125634Y502245D01*
X1125577Y502211D01*
X1125517Y502186D01*
X1125482Y502155D01*
X1125441Y502130D01*
X1125400Y502079D01*
X1125351Y502035D01*
X1125329Y501993D01*
X1125300Y501956D01*
X1125279Y501894D01*
X1125248Y501835D01*
X1125240Y501781D01*
X1125228Y501744D01*
X1125228Y501741D01*
X1125229Y501704D01*
X1125221Y501650D01*
X1125221Y499110D01*
X1125232Y499045D01*
X1125234Y498979D01*
X1125252Y498936D01*
X1125260Y498889D01*
X1125294Y498832D01*
X1125319Y498772D01*
X1125350Y498737D01*
X1125375Y498696D01*
X1125426Y498655D01*
X1125470Y498606D01*
X1125512Y498584D01*
X1125549Y498555D01*
X1125611Y498534D01*
X1125670Y498503D01*
X1125724Y498495D01*
X1125761Y498483D01*
X1125801Y498484D01*
X1125855Y498476D01*
X1129665Y498476D01*
X1129730Y498487D01*
G37*
G36*
X667450Y498487D02*
X667450Y498487D01*
X667516Y498489D01*
X667559Y498507D01*
X667606Y498515D01*
X667663Y498549D01*
X667723Y498574D01*
X667758Y498605D01*
X667799Y498630D01*
X667841Y498681D01*
X667889Y498725D01*
X667911Y498767D01*
X667940Y498804D01*
X667961Y498866D01*
X667992Y498925D01*
X668000Y498979D01*
X668012Y499016D01*
X668011Y499056D01*
X668019Y499110D01*
X668019Y501650D01*
X668008Y501715D01*
X668006Y501781D01*
X667988Y501824D01*
X667980Y501871D01*
X667946Y501928D01*
X667921Y501988D01*
X667890Y502023D01*
X667865Y502064D01*
X667814Y502106D01*
X667770Y502154D01*
X667728Y502176D01*
X667691Y502205D01*
X667629Y502226D01*
X667570Y502257D01*
X667516Y502265D01*
X667479Y502277D01*
X667439Y502276D01*
X667385Y502284D01*
X663575Y502284D01*
X663510Y502273D01*
X663444Y502271D01*
X663401Y502253D01*
X663354Y502245D01*
X663297Y502211D01*
X663237Y502186D01*
X663202Y502155D01*
X663161Y502130D01*
X663120Y502079D01*
X663071Y502035D01*
X663049Y501993D01*
X663020Y501956D01*
X662999Y501894D01*
X662968Y501835D01*
X662960Y501781D01*
X662948Y501744D01*
X662948Y501741D01*
X662949Y501704D01*
X662941Y501650D01*
X662941Y499110D01*
X662952Y499045D01*
X662954Y498979D01*
X662972Y498936D01*
X662980Y498889D01*
X663014Y498832D01*
X663039Y498772D01*
X663070Y498737D01*
X663095Y498696D01*
X663146Y498655D01*
X663190Y498606D01*
X663232Y498584D01*
X663269Y498555D01*
X663331Y498534D01*
X663390Y498503D01*
X663444Y498495D01*
X663481Y498483D01*
X663521Y498484D01*
X663575Y498476D01*
X667385Y498476D01*
X667450Y498487D01*
G37*
G36*
X205170Y498487D02*
X205170Y498487D01*
X205236Y498489D01*
X205279Y498507D01*
X205326Y498515D01*
X205383Y498549D01*
X205443Y498574D01*
X205478Y498605D01*
X205519Y498630D01*
X205561Y498681D01*
X205609Y498725D01*
X205631Y498767D01*
X205660Y498804D01*
X205681Y498866D01*
X205712Y498925D01*
X205720Y498979D01*
X205732Y499016D01*
X205731Y499056D01*
X205739Y499110D01*
X205739Y501650D01*
X205728Y501715D01*
X205726Y501781D01*
X205708Y501824D01*
X205700Y501871D01*
X205666Y501928D01*
X205641Y501988D01*
X205610Y502023D01*
X205585Y502064D01*
X205534Y502106D01*
X205490Y502154D01*
X205448Y502176D01*
X205411Y502205D01*
X205349Y502226D01*
X205290Y502257D01*
X205236Y502265D01*
X205199Y502277D01*
X205159Y502276D01*
X205105Y502284D01*
X201295Y502284D01*
X201230Y502273D01*
X201164Y502271D01*
X201121Y502253D01*
X201074Y502245D01*
X201017Y502211D01*
X200957Y502186D01*
X200922Y502155D01*
X200881Y502130D01*
X200840Y502079D01*
X200791Y502035D01*
X200769Y501993D01*
X200740Y501956D01*
X200719Y501894D01*
X200688Y501835D01*
X200680Y501781D01*
X200668Y501744D01*
X200668Y501741D01*
X200669Y501704D01*
X200661Y501650D01*
X200661Y499110D01*
X200672Y499045D01*
X200674Y498979D01*
X200692Y498936D01*
X200700Y498889D01*
X200734Y498832D01*
X200759Y498772D01*
X200790Y498737D01*
X200815Y498696D01*
X200866Y498655D01*
X200910Y498606D01*
X200952Y498584D01*
X200989Y498555D01*
X201051Y498534D01*
X201110Y498503D01*
X201164Y498495D01*
X201201Y498483D01*
X201241Y498484D01*
X201295Y498476D01*
X205105Y498476D01*
X205170Y498487D01*
G37*
G36*
X1129730Y239407D02*
X1129730Y239407D01*
X1129796Y239409D01*
X1129839Y239427D01*
X1129886Y239435D01*
X1129943Y239469D01*
X1130003Y239494D01*
X1130038Y239525D01*
X1130079Y239550D01*
X1130121Y239601D01*
X1130169Y239645D01*
X1130191Y239687D01*
X1130220Y239724D01*
X1130241Y239786D01*
X1130272Y239845D01*
X1130280Y239899D01*
X1130292Y239936D01*
X1130291Y239976D01*
X1130299Y240030D01*
X1130299Y242570D01*
X1130288Y242635D01*
X1130286Y242701D01*
X1130268Y242744D01*
X1130260Y242791D01*
X1130226Y242848D01*
X1130201Y242908D01*
X1130170Y242943D01*
X1130145Y242984D01*
X1130094Y243026D01*
X1130050Y243074D01*
X1130008Y243096D01*
X1129971Y243125D01*
X1129909Y243146D01*
X1129850Y243177D01*
X1129796Y243185D01*
X1129759Y243197D01*
X1129719Y243196D01*
X1129665Y243204D01*
X1125855Y243204D01*
X1125790Y243193D01*
X1125724Y243191D01*
X1125681Y243173D01*
X1125634Y243165D01*
X1125577Y243131D01*
X1125517Y243106D01*
X1125482Y243075D01*
X1125441Y243050D01*
X1125400Y242999D01*
X1125351Y242955D01*
X1125329Y242913D01*
X1125300Y242876D01*
X1125279Y242814D01*
X1125248Y242755D01*
X1125240Y242701D01*
X1125228Y242664D01*
X1125228Y242661D01*
X1125229Y242624D01*
X1125221Y242570D01*
X1125221Y240030D01*
X1125232Y239965D01*
X1125234Y239899D01*
X1125252Y239856D01*
X1125260Y239809D01*
X1125294Y239752D01*
X1125319Y239692D01*
X1125350Y239657D01*
X1125375Y239616D01*
X1125426Y239575D01*
X1125470Y239526D01*
X1125512Y239504D01*
X1125549Y239475D01*
X1125611Y239454D01*
X1125670Y239423D01*
X1125724Y239415D01*
X1125761Y239403D01*
X1125801Y239404D01*
X1125855Y239396D01*
X1129665Y239396D01*
X1129730Y239407D01*
G37*
G36*
X667450Y239407D02*
X667450Y239407D01*
X667516Y239409D01*
X667559Y239427D01*
X667606Y239435D01*
X667663Y239469D01*
X667723Y239494D01*
X667758Y239525D01*
X667799Y239550D01*
X667841Y239601D01*
X667889Y239645D01*
X667911Y239687D01*
X667940Y239724D01*
X667961Y239786D01*
X667992Y239845D01*
X668000Y239899D01*
X668012Y239936D01*
X668011Y239976D01*
X668019Y240030D01*
X668019Y242570D01*
X668008Y242635D01*
X668006Y242701D01*
X667988Y242744D01*
X667980Y242791D01*
X667946Y242848D01*
X667921Y242908D01*
X667890Y242943D01*
X667865Y242984D01*
X667814Y243026D01*
X667770Y243074D01*
X667728Y243096D01*
X667691Y243125D01*
X667629Y243146D01*
X667570Y243177D01*
X667516Y243185D01*
X667479Y243197D01*
X667439Y243196D01*
X667385Y243204D01*
X663575Y243204D01*
X663510Y243193D01*
X663444Y243191D01*
X663401Y243173D01*
X663354Y243165D01*
X663297Y243131D01*
X663237Y243106D01*
X663202Y243075D01*
X663161Y243050D01*
X663120Y242999D01*
X663071Y242955D01*
X663049Y242913D01*
X663020Y242876D01*
X662999Y242814D01*
X662968Y242755D01*
X662960Y242701D01*
X662948Y242664D01*
X662948Y242661D01*
X662949Y242624D01*
X662941Y242570D01*
X662941Y240030D01*
X662952Y239965D01*
X662954Y239899D01*
X662972Y239856D01*
X662980Y239809D01*
X663014Y239752D01*
X663039Y239692D01*
X663070Y239657D01*
X663095Y239616D01*
X663146Y239575D01*
X663190Y239526D01*
X663232Y239504D01*
X663269Y239475D01*
X663331Y239454D01*
X663390Y239423D01*
X663444Y239415D01*
X663481Y239403D01*
X663521Y239404D01*
X663575Y239396D01*
X667385Y239396D01*
X667450Y239407D01*
G37*
G36*
X205170Y239407D02*
X205170Y239407D01*
X205236Y239409D01*
X205279Y239427D01*
X205326Y239435D01*
X205383Y239469D01*
X205443Y239494D01*
X205478Y239525D01*
X205519Y239550D01*
X205561Y239601D01*
X205609Y239645D01*
X205631Y239687D01*
X205660Y239724D01*
X205681Y239786D01*
X205712Y239845D01*
X205720Y239899D01*
X205732Y239936D01*
X205731Y239976D01*
X205739Y240030D01*
X205739Y242570D01*
X205728Y242635D01*
X205726Y242701D01*
X205708Y242744D01*
X205700Y242791D01*
X205666Y242848D01*
X205641Y242908D01*
X205610Y242943D01*
X205585Y242984D01*
X205534Y243026D01*
X205490Y243074D01*
X205448Y243096D01*
X205411Y243125D01*
X205349Y243146D01*
X205290Y243177D01*
X205236Y243185D01*
X205199Y243197D01*
X205159Y243196D01*
X205105Y243204D01*
X201295Y243204D01*
X201230Y243193D01*
X201164Y243191D01*
X201121Y243173D01*
X201074Y243165D01*
X201017Y243131D01*
X200957Y243106D01*
X200922Y243075D01*
X200881Y243050D01*
X200840Y242999D01*
X200791Y242955D01*
X200769Y242913D01*
X200740Y242876D01*
X200719Y242814D01*
X200688Y242755D01*
X200680Y242701D01*
X200668Y242664D01*
X200668Y242661D01*
X200669Y242624D01*
X200661Y242570D01*
X200661Y240030D01*
X200672Y239965D01*
X200674Y239899D01*
X200692Y239856D01*
X200700Y239809D01*
X200734Y239752D01*
X200759Y239692D01*
X200790Y239657D01*
X200815Y239616D01*
X200866Y239575D01*
X200910Y239526D01*
X200952Y239504D01*
X200989Y239475D01*
X201051Y239454D01*
X201110Y239423D01*
X201164Y239415D01*
X201201Y239403D01*
X201241Y239404D01*
X201295Y239396D01*
X205105Y239396D01*
X205170Y239407D01*
G37*
D10*
X133350Y114300D03*
X158750Y114300D03*
X184150Y114300D03*
X133350Y139700D03*
X158750Y139700D03*
X184150Y139700D03*
D11*
X381000Y12700D03*
X355600Y12700D03*
X330200Y12700D03*
X304800Y12700D03*
X381000Y241300D03*
X355600Y241300D03*
X330200Y241300D03*
X304800Y241300D03*
D12*
X197993Y241300D03*
X208407Y241300D03*
D13*
X25400Y228600D03*
X25400Y25400D03*
X431800Y25400D03*
X431800Y228600D03*
D11*
X254000Y241300D03*
X228600Y241300D03*
D10*
X595630Y114300D03*
X621030Y114300D03*
X646430Y114300D03*
X595630Y139700D03*
X621030Y139700D03*
X646430Y139700D03*
D11*
X843280Y12700D03*
X817880Y12700D03*
X792480Y12700D03*
X767080Y12700D03*
X843280Y241300D03*
X817880Y241300D03*
X792480Y241300D03*
X767080Y241300D03*
D12*
X660273Y241300D03*
X670687Y241300D03*
D13*
X487680Y228600D03*
X487680Y25400D03*
X894080Y25400D03*
X894080Y228600D03*
D11*
X716280Y241300D03*
X690880Y241300D03*
D10*
X1057910Y114300D03*
X1083310Y114300D03*
X1108710Y114300D03*
X1057910Y139700D03*
X1083310Y139700D03*
X1108710Y139700D03*
D11*
X1305560Y12700D03*
X1280160Y12700D03*
X1254760Y12700D03*
X1229360Y12700D03*
X1305560Y241300D03*
X1280160Y241300D03*
X1254760Y241300D03*
X1229360Y241300D03*
D12*
X1122553Y241300D03*
X1132967Y241300D03*
D13*
X949960Y228600D03*
X949960Y25400D03*
X1356360Y25400D03*
X1356360Y228600D03*
D11*
X1178560Y241300D03*
X1153160Y241300D03*
D10*
X133350Y373380D03*
X158750Y373380D03*
X184150Y373380D03*
X133350Y398780D03*
X158750Y398780D03*
X184150Y398780D03*
D11*
X381000Y271780D03*
X355600Y271780D03*
X330200Y271780D03*
X304800Y271780D03*
X381000Y500380D03*
X355600Y500380D03*
X330200Y500380D03*
X304800Y500380D03*
D12*
X197993Y500380D03*
X208407Y500380D03*
D13*
X25400Y487680D03*
X25400Y284480D03*
X431800Y284480D03*
X431800Y487680D03*
D11*
X254000Y500380D03*
X228600Y500380D03*
D10*
X595630Y373380D03*
X621030Y373380D03*
X646430Y373380D03*
X595630Y398780D03*
X621030Y398780D03*
X646430Y398780D03*
D11*
X843280Y271780D03*
X817880Y271780D03*
X792480Y271780D03*
X767080Y271780D03*
X843280Y500380D03*
X817880Y500380D03*
X792480Y500380D03*
X767080Y500380D03*
D12*
X660273Y500380D03*
X670687Y500380D03*
D13*
X487680Y487680D03*
X487680Y284480D03*
X894080Y284480D03*
X894080Y487680D03*
D11*
X716280Y500380D03*
X690880Y500380D03*
D10*
X1057910Y373380D03*
X1083310Y373380D03*
X1108710Y373380D03*
X1057910Y398780D03*
X1083310Y398780D03*
X1108710Y398780D03*
D11*
X1305560Y271780D03*
X1280160Y271780D03*
X1254760Y271780D03*
X1229360Y271780D03*
X1305560Y500380D03*
X1280160Y500380D03*
X1254760Y500380D03*
X1229360Y500380D03*
D12*
X1122553Y500380D03*
X1132967Y500380D03*
D13*
X949960Y487680D03*
X949960Y284480D03*
X1356360Y284480D03*
X1356360Y487680D03*
D11*
X1178560Y500380D03*
X1153160Y500380D03*
D10*
X133350Y632460D03*
X158750Y632460D03*
X184150Y632460D03*
X133350Y657860D03*
X158750Y657860D03*
X184150Y657860D03*
D11*
X381000Y530860D03*
X355600Y530860D03*
X330200Y530860D03*
X304800Y530860D03*
X381000Y759460D03*
X355600Y759460D03*
X330200Y759460D03*
X304800Y759460D03*
D12*
X197993Y759460D03*
X208407Y759460D03*
D13*
X25400Y746760D03*
X25400Y543560D03*
X431800Y543560D03*
X431800Y746760D03*
D11*
X254000Y759460D03*
X228600Y759460D03*
D10*
X595630Y632460D03*
X621030Y632460D03*
X646430Y632460D03*
X595630Y657860D03*
X621030Y657860D03*
X646430Y657860D03*
D11*
X843280Y530860D03*
X817880Y530860D03*
X792480Y530860D03*
X767080Y530860D03*
X843280Y759460D03*
X817880Y759460D03*
X792480Y759460D03*
X767080Y759460D03*
D12*
X660273Y759460D03*
X670687Y759460D03*
D13*
X487680Y746760D03*
X487680Y543560D03*
X894080Y543560D03*
X894080Y746760D03*
D11*
X716280Y759460D03*
X690880Y759460D03*
D10*
X1057910Y632460D03*
X1083310Y632460D03*
X1108710Y632460D03*
X1057910Y657860D03*
X1083310Y657860D03*
X1108710Y657860D03*
D11*
X1305560Y530860D03*
X1280160Y530860D03*
X1254760Y530860D03*
X1229360Y530860D03*
X1305560Y759460D03*
X1280160Y759460D03*
X1254760Y759460D03*
X1229360Y759460D03*
D12*
X1122553Y759460D03*
X1132967Y759460D03*
D13*
X949960Y746760D03*
X949960Y543560D03*
X1356360Y543560D03*
X1356360Y746760D03*
D11*
X1178560Y759460D03*
X1153160Y759460D03*
D10*
X133350Y891540D03*
X158750Y891540D03*
X184150Y891540D03*
X133350Y916940D03*
X158750Y916940D03*
X184150Y916940D03*
D11*
X381000Y789940D03*
X355600Y789940D03*
X330200Y789940D03*
X304800Y789940D03*
X381000Y1018540D03*
X355600Y1018540D03*
X330200Y1018540D03*
X304800Y1018540D03*
D12*
X197993Y1018540D03*
X208407Y1018540D03*
D13*
X25400Y1005840D03*
X25400Y802640D03*
X431800Y802640D03*
X431800Y1005840D03*
D11*
X254000Y1018540D03*
X228600Y1018540D03*
D10*
X595630Y891540D03*
X621030Y891540D03*
X646430Y891540D03*
X595630Y916940D03*
X621030Y916940D03*
X646430Y916940D03*
D11*
X843280Y789940D03*
X817880Y789940D03*
X792480Y789940D03*
X767080Y789940D03*
X843280Y1018540D03*
X817880Y1018540D03*
X792480Y1018540D03*
X767080Y1018540D03*
D12*
X660273Y1018540D03*
X670687Y1018540D03*
D13*
X487680Y1005840D03*
X487680Y802640D03*
X894080Y802640D03*
X894080Y1005840D03*
D11*
X716280Y1018540D03*
X690880Y1018540D03*
D10*
X1057910Y891540D03*
X1083310Y891540D03*
X1108710Y891540D03*
X1057910Y916940D03*
X1083310Y916940D03*
X1108710Y916940D03*
D11*
X1305560Y789940D03*
X1280160Y789940D03*
X1254760Y789940D03*
X1229360Y789940D03*
X1305560Y1018540D03*
X1280160Y1018540D03*
X1254760Y1018540D03*
X1229360Y1018540D03*
D12*
X1122553Y1018540D03*
X1132967Y1018540D03*
D13*
X949960Y1005840D03*
X949960Y802640D03*
X1356360Y802640D03*
X1356360Y1005840D03*
D11*
X1178560Y1018540D03*
X1153160Y1018540D03*
D10*
X133350Y1150620D03*
X158750Y1150620D03*
X184150Y1150620D03*
X133350Y1176020D03*
X158750Y1176020D03*
X184150Y1176020D03*
D11*
X381000Y1049020D03*
X355600Y1049020D03*
X330200Y1049020D03*
X304800Y1049020D03*
X381000Y1277620D03*
X355600Y1277620D03*
X330200Y1277620D03*
X304800Y1277620D03*
D12*
X197993Y1277620D03*
X208407Y1277620D03*
D13*
X25400Y1264920D03*
X25400Y1061720D03*
X431800Y1061720D03*
X431800Y1264920D03*
D11*
X254000Y1277620D03*
X228600Y1277620D03*
D10*
X595630Y1150620D03*
X621030Y1150620D03*
X646430Y1150620D03*
X595630Y1176020D03*
X621030Y1176020D03*
X646430Y1176020D03*
D11*
X843280Y1049020D03*
X817880Y1049020D03*
X792480Y1049020D03*
X767080Y1049020D03*
X843280Y1277620D03*
X817880Y1277620D03*
X792480Y1277620D03*
X767080Y1277620D03*
D12*
X660273Y1277620D03*
X670687Y1277620D03*
D13*
X487680Y1264920D03*
X487680Y1061720D03*
X894080Y1061720D03*
X894080Y1264920D03*
D11*
X716280Y1277620D03*
X690880Y1277620D03*
D10*
X1057910Y1150620D03*
X1083310Y1150620D03*
X1108710Y1150620D03*
X1057910Y1176020D03*
X1083310Y1176020D03*
X1108710Y1176020D03*
D11*
X1305560Y1049020D03*
X1280160Y1049020D03*
X1254760Y1049020D03*
X1229360Y1049020D03*
X1305560Y1277620D03*
X1280160Y1277620D03*
X1254760Y1277620D03*
X1229360Y1277620D03*
D12*
X1122553Y1277620D03*
X1132967Y1277620D03*
D13*
X949960Y1264920D03*
X949960Y1061720D03*
X1356360Y1061720D03*
X1356360Y1264920D03*
D11*
X1178560Y1277620D03*
X1153160Y1277620D03*
D14*
X68580Y1311275D03*
X1312545Y1311275D03*
D15*
X59525Y-20955D02*
X59528Y-20733D01*
X59536Y-20511D01*
X59550Y-20289D01*
X59569Y-20067D01*
X59593Y-19847D01*
X59623Y-19626D01*
X59658Y-19407D01*
X59699Y-19188D01*
X59745Y-18971D01*
X59796Y-18755D01*
X59853Y-18540D01*
X59915Y-18326D01*
X59982Y-18115D01*
X60054Y-17904D01*
X60132Y-17696D01*
X60214Y-17490D01*
X60302Y-17286D01*
X60394Y-17083D01*
X60492Y-16884D01*
X60594Y-16687D01*
X60701Y-16492D01*
X60813Y-16300D01*
X60930Y-16111D01*
X61051Y-15924D01*
X61177Y-15741D01*
X61307Y-15561D01*
X61442Y-15384D01*
X61580Y-15211D01*
X61723Y-15041D01*
X61871Y-14874D01*
X62022Y-14711D01*
X62177Y-14552D01*
X62336Y-14397D01*
X62499Y-14246D01*
X62666Y-14098D01*
X62836Y-13955D01*
X63009Y-13817D01*
X63186Y-13682D01*
X63366Y-13552D01*
X63549Y-13426D01*
X63736Y-13305D01*
X63925Y-13188D01*
X64117Y-13076D01*
X64312Y-12969D01*
X64509Y-12867D01*
X64708Y-12769D01*
X64911Y-12677D01*
X65115Y-12589D01*
X65321Y-12507D01*
X65529Y-12429D01*
X65740Y-12357D01*
X65951Y-12290D01*
X66165Y-12228D01*
X66380Y-12171D01*
X66596Y-12120D01*
X66813Y-12074D01*
X67032Y-12033D01*
X67251Y-11998D01*
X67472Y-11968D01*
X67692Y-11944D01*
X67914Y-11925D01*
X68136Y-11911D01*
X68358Y-11903D01*
X68580Y-11900D01*
X68802Y-11903D01*
X69024Y-11911D01*
X69246Y-11925D01*
X69468Y-11944D01*
X69688Y-11968D01*
X69909Y-11998D01*
X70128Y-12033D01*
X70347Y-12074D01*
X70564Y-12120D01*
X70780Y-12171D01*
X70995Y-12228D01*
X71209Y-12290D01*
X71420Y-12357D01*
X71631Y-12429D01*
X71839Y-12507D01*
X72045Y-12589D01*
X72249Y-12677D01*
X72452Y-12769D01*
X72651Y-12867D01*
X72848Y-12969D01*
X73043Y-13076D01*
X73235Y-13188D01*
X73424Y-13305D01*
X73611Y-13426D01*
X73794Y-13552D01*
X73974Y-13682D01*
X74151Y-13817D01*
X74324Y-13955D01*
X74494Y-14098D01*
X74661Y-14246D01*
X74824Y-14397D01*
X74983Y-14552D01*
X75138Y-14711D01*
X75289Y-14874D01*
X75437Y-15041D01*
X75580Y-15211D01*
X75718Y-15384D01*
X75853Y-15561D01*
X75983Y-15741D01*
X76109Y-15924D01*
X76230Y-16111D01*
X76347Y-16300D01*
X76459Y-16492D01*
X76566Y-16687D01*
X76668Y-16884D01*
X76766Y-17083D01*
X76858Y-17286D01*
X76946Y-17490D01*
X77028Y-17696D01*
X77106Y-17904D01*
X77178Y-18115D01*
X77245Y-18326D01*
X77307Y-18540D01*
X77364Y-18755D01*
X77415Y-18971D01*
X77461Y-19188D01*
X77502Y-19407D01*
X77537Y-19626D01*
X77567Y-19847D01*
X77591Y-20067D01*
X77610Y-20289D01*
X77624Y-20511D01*
X77632Y-20733D01*
X77635Y-20955D01*
X77632Y-21177D01*
X77624Y-21399D01*
X77610Y-21621D01*
X77591Y-21843D01*
X77567Y-22063D01*
X77537Y-22284D01*
X77502Y-22503D01*
X77461Y-22722D01*
X77415Y-22939D01*
X77364Y-23155D01*
X77307Y-23370D01*
X77245Y-23584D01*
X77178Y-23795D01*
X77106Y-24006D01*
X77028Y-24214D01*
X76946Y-24420D01*
X76858Y-24624D01*
X76766Y-24827D01*
X76668Y-25026D01*
X76566Y-25223D01*
X76459Y-25418D01*
X76347Y-25610D01*
X76230Y-25799D01*
X76109Y-25986D01*
X75983Y-26169D01*
X75853Y-26349D01*
X75718Y-26526D01*
X75580Y-26699D01*
X75437Y-26869D01*
X75289Y-27036D01*
X75138Y-27199D01*
X74983Y-27358D01*
X74824Y-27513D01*
X74661Y-27664D01*
X74494Y-27812D01*
X74324Y-27955D01*
X74151Y-28093D01*
X73974Y-28228D01*
X73794Y-28358D01*
X73611Y-28484D01*
X73424Y-28605D01*
X73235Y-28722D01*
X73043Y-28834D01*
X72848Y-28941D01*
X72651Y-29043D01*
X72452Y-29141D01*
X72249Y-29233D01*
X72045Y-29321D01*
X71839Y-29403D01*
X71631Y-29481D01*
X71420Y-29553D01*
X71209Y-29620D01*
X70995Y-29682D01*
X70780Y-29739D01*
X70564Y-29790D01*
X70347Y-29836D01*
X70128Y-29877D01*
X69909Y-29912D01*
X69688Y-29942D01*
X69468Y-29966D01*
X69246Y-29985D01*
X69024Y-29999D01*
X68802Y-30007D01*
X68580Y-30010D01*
X68358Y-30007D01*
X68136Y-29999D01*
X67914Y-29985D01*
X67692Y-29966D01*
X67472Y-29942D01*
X67251Y-29912D01*
X67032Y-29877D01*
X66813Y-29836D01*
X66596Y-29790D01*
X66380Y-29739D01*
X66165Y-29682D01*
X65951Y-29620D01*
X65740Y-29553D01*
X65529Y-29481D01*
X65321Y-29403D01*
X65115Y-29321D01*
X64911Y-29233D01*
X64708Y-29141D01*
X64509Y-29043D01*
X64312Y-28941D01*
X64117Y-28834D01*
X63925Y-28722D01*
X63736Y-28605D01*
X63549Y-28484D01*
X63366Y-28358D01*
X63186Y-28228D01*
X63009Y-28093D01*
X62836Y-27955D01*
X62666Y-27812D01*
X62499Y-27664D01*
X62336Y-27513D01*
X62177Y-27358D01*
X62022Y-27199D01*
X61871Y-27036D01*
X61723Y-26869D01*
X61580Y-26699D01*
X61442Y-26526D01*
X61307Y-26349D01*
X61177Y-26169D01*
X61051Y-25986D01*
X60930Y-25799D01*
X60813Y-25610D01*
X60701Y-25418D01*
X60594Y-25223D01*
X60492Y-25026D01*
X60394Y-24827D01*
X60302Y-24624D01*
X60214Y-24420D01*
X60132Y-24214D01*
X60054Y-24006D01*
X59982Y-23795D01*
X59915Y-23584D01*
X59853Y-23370D01*
X59796Y-23155D01*
X59745Y-22939D01*
X59699Y-22722D01*
X59658Y-22503D01*
X59623Y-22284D01*
X59593Y-22063D01*
X59569Y-21843D01*
X59550Y-21621D01*
X59536Y-21399D01*
X59528Y-21177D01*
X59525Y-20955D01*
D16*
X68580Y-20955D03*
M02*
