G04 EAGLE Gerber RS-274X export*
G75*
%MOMM*%
%FSLAX34Y34*%
%LPD*%
%INSolderpaste Top*%
%IPPOS*%
%AMOC8*
5,1,8,0,0,1.08239X$1,22.5*%
G01*
%ADD10R,1.000000X1.100000*%
%ADD11R,1.100000X1.000000*%
%ADD12R,1.200000X0.800000*%
%ADD13R,2.000000X1.200000*%
%ADD14R,1.350000X0.600000*%
%ADD15R,0.800000X1.800000*%
%ADD16R,0.700000X0.700000*%
%ADD17R,0.600000X1.200000*%
%ADD18R,0.400000X1.100000*%
%ADD19R,0.750000X0.700000*%
%ADD20R,0.900000X0.800000*%
%ADD21R,1.800000X1.600000*%
%ADD22R,0.630000X0.830000*%
%ADD23R,0.900000X1.000000*%
%ADD24R,0.900000X1.100000*%
%ADD25C,0.300000*%


D10*
X120650Y55000D03*
X120650Y72000D03*
D11*
X302650Y190500D03*
X319650Y190500D03*
D10*
X95250Y118500D03*
X95250Y135500D03*
X171450Y72000D03*
X171450Y55000D03*
D12*
X355600Y118000D03*
X355600Y136000D03*
D13*
X14050Y155000D03*
X14050Y99000D03*
D14*
X50800Y142000D03*
X50800Y132000D03*
X50800Y122000D03*
X50800Y112000D03*
D13*
X443150Y99000D03*
X443150Y155000D03*
D14*
X406400Y112000D03*
X406400Y122000D03*
X406400Y132000D03*
X406400Y142000D03*
D15*
X302150Y171450D03*
X320150Y171450D03*
D16*
X228450Y124100D03*
X241450Y124100D03*
X234950Y142600D03*
X228450Y60600D03*
X241450Y60600D03*
X234950Y79100D03*
D11*
X302650Y82550D03*
X319650Y82550D03*
X243450Y101600D03*
X226450Y101600D03*
D10*
X273050Y97400D03*
X273050Y80400D03*
X196850Y72000D03*
X196850Y55000D03*
D11*
X319650Y63500D03*
X302650Y63500D03*
X243450Y38100D03*
X226450Y38100D03*
D10*
X273050Y59300D03*
X273050Y42300D03*
D17*
X120650Y99000D03*
X133350Y99000D03*
X146050Y99000D03*
X158750Y99000D03*
X171450Y99000D03*
X184150Y99000D03*
X196850Y99000D03*
X196850Y155000D03*
X184150Y155000D03*
X171450Y155000D03*
X158750Y155000D03*
X146050Y155000D03*
X133350Y155000D03*
X120650Y155000D03*
D18*
X320900Y149500D03*
X314400Y149500D03*
X307900Y149500D03*
X301400Y149500D03*
X301400Y104500D03*
X307900Y104500D03*
X314400Y104500D03*
X320900Y104500D03*
D19*
X152800Y58500D03*
X139300Y58500D03*
X139300Y68500D03*
X152800Y68500D03*
D20*
X251300Y163220D03*
X251300Y182220D03*
X230300Y172720D03*
D10*
X273050Y173600D03*
X273050Y156600D03*
X273050Y135500D03*
X273050Y118500D03*
D21*
X355600Y96550D03*
X355600Y68550D03*
D11*
X347100Y173990D03*
X364100Y173990D03*
D22*
X344100Y190500D03*
X367100Y190500D03*
X344100Y152400D03*
X367100Y152400D03*
D23*
X135900Y224400D03*
D24*
X168900Y215900D03*
D23*
X135900Y207400D03*
X72400Y224400D03*
D24*
X105400Y215900D03*
D23*
X72400Y207400D03*
D11*
X33900Y171450D03*
X16900Y171450D03*
D25*
X20130Y180650D02*
X20130Y187650D01*
X20130Y180650D02*
X13130Y180650D01*
X13130Y187650D01*
X20130Y187650D01*
X20130Y183500D02*
X13130Y183500D01*
X13130Y186350D02*
X20130Y186350D01*
X37670Y187650D02*
X37670Y180650D01*
X30670Y180650D01*
X30670Y187650D01*
X37670Y187650D01*
X37670Y183500D02*
X30670Y183500D01*
X30670Y186350D02*
X37670Y186350D01*
D10*
X582930Y55000D03*
X582930Y72000D03*
D11*
X764930Y190500D03*
X781930Y190500D03*
D10*
X557530Y118500D03*
X557530Y135500D03*
X633730Y72000D03*
X633730Y55000D03*
D12*
X817880Y118000D03*
X817880Y136000D03*
D13*
X476330Y155000D03*
X476330Y99000D03*
D14*
X513080Y142000D03*
X513080Y132000D03*
X513080Y122000D03*
X513080Y112000D03*
D13*
X905430Y99000D03*
X905430Y155000D03*
D14*
X868680Y112000D03*
X868680Y122000D03*
X868680Y132000D03*
X868680Y142000D03*
D15*
X764430Y171450D03*
X782430Y171450D03*
D16*
X690730Y124100D03*
X703730Y124100D03*
X697230Y142600D03*
X690730Y60600D03*
X703730Y60600D03*
X697230Y79100D03*
D11*
X764930Y82550D03*
X781930Y82550D03*
X705730Y101600D03*
X688730Y101600D03*
D10*
X735330Y97400D03*
X735330Y80400D03*
X659130Y72000D03*
X659130Y55000D03*
D11*
X781930Y63500D03*
X764930Y63500D03*
X705730Y38100D03*
X688730Y38100D03*
D10*
X735330Y59300D03*
X735330Y42300D03*
D17*
X582930Y99000D03*
X595630Y99000D03*
X608330Y99000D03*
X621030Y99000D03*
X633730Y99000D03*
X646430Y99000D03*
X659130Y99000D03*
X659130Y155000D03*
X646430Y155000D03*
X633730Y155000D03*
X621030Y155000D03*
X608330Y155000D03*
X595630Y155000D03*
X582930Y155000D03*
D18*
X783180Y149500D03*
X776680Y149500D03*
X770180Y149500D03*
X763680Y149500D03*
X763680Y104500D03*
X770180Y104500D03*
X776680Y104500D03*
X783180Y104500D03*
D19*
X615080Y58500D03*
X601580Y58500D03*
X601580Y68500D03*
X615080Y68500D03*
D20*
X713580Y163220D03*
X713580Y182220D03*
X692580Y172720D03*
D10*
X735330Y173600D03*
X735330Y156600D03*
X735330Y135500D03*
X735330Y118500D03*
D21*
X817880Y96550D03*
X817880Y68550D03*
D11*
X809380Y173990D03*
X826380Y173990D03*
D22*
X806380Y190500D03*
X829380Y190500D03*
X806380Y152400D03*
X829380Y152400D03*
D23*
X598180Y224400D03*
D24*
X631180Y215900D03*
D23*
X598180Y207400D03*
X534680Y224400D03*
D24*
X567680Y215900D03*
D23*
X534680Y207400D03*
D11*
X496180Y171450D03*
X479180Y171450D03*
D25*
X482410Y180650D02*
X482410Y187650D01*
X482410Y180650D02*
X475410Y180650D01*
X475410Y187650D01*
X482410Y187650D01*
X482410Y183500D02*
X475410Y183500D01*
X475410Y186350D02*
X482410Y186350D01*
X499950Y187650D02*
X499950Y180650D01*
X492950Y180650D01*
X492950Y187650D01*
X499950Y187650D01*
X499950Y183500D02*
X492950Y183500D01*
X492950Y186350D02*
X499950Y186350D01*
D10*
X1045210Y55000D03*
X1045210Y72000D03*
D11*
X1227210Y190500D03*
X1244210Y190500D03*
D10*
X1019810Y118500D03*
X1019810Y135500D03*
X1096010Y72000D03*
X1096010Y55000D03*
D12*
X1280160Y118000D03*
X1280160Y136000D03*
D13*
X938610Y155000D03*
X938610Y99000D03*
D14*
X975360Y142000D03*
X975360Y132000D03*
X975360Y122000D03*
X975360Y112000D03*
D13*
X1367710Y99000D03*
X1367710Y155000D03*
D14*
X1330960Y112000D03*
X1330960Y122000D03*
X1330960Y132000D03*
X1330960Y142000D03*
D15*
X1226710Y171450D03*
X1244710Y171450D03*
D16*
X1153010Y124100D03*
X1166010Y124100D03*
X1159510Y142600D03*
X1153010Y60600D03*
X1166010Y60600D03*
X1159510Y79100D03*
D11*
X1227210Y82550D03*
X1244210Y82550D03*
X1168010Y101600D03*
X1151010Y101600D03*
D10*
X1197610Y97400D03*
X1197610Y80400D03*
X1121410Y72000D03*
X1121410Y55000D03*
D11*
X1244210Y63500D03*
X1227210Y63500D03*
X1168010Y38100D03*
X1151010Y38100D03*
D10*
X1197610Y59300D03*
X1197610Y42300D03*
D17*
X1045210Y99000D03*
X1057910Y99000D03*
X1070610Y99000D03*
X1083310Y99000D03*
X1096010Y99000D03*
X1108710Y99000D03*
X1121410Y99000D03*
X1121410Y155000D03*
X1108710Y155000D03*
X1096010Y155000D03*
X1083310Y155000D03*
X1070610Y155000D03*
X1057910Y155000D03*
X1045210Y155000D03*
D18*
X1245460Y149500D03*
X1238960Y149500D03*
X1232460Y149500D03*
X1225960Y149500D03*
X1225960Y104500D03*
X1232460Y104500D03*
X1238960Y104500D03*
X1245460Y104500D03*
D19*
X1077360Y58500D03*
X1063860Y58500D03*
X1063860Y68500D03*
X1077360Y68500D03*
D20*
X1175860Y163220D03*
X1175860Y182220D03*
X1154860Y172720D03*
D10*
X1197610Y173600D03*
X1197610Y156600D03*
X1197610Y135500D03*
X1197610Y118500D03*
D21*
X1280160Y96550D03*
X1280160Y68550D03*
D11*
X1271660Y173990D03*
X1288660Y173990D03*
D22*
X1268660Y190500D03*
X1291660Y190500D03*
X1268660Y152400D03*
X1291660Y152400D03*
D23*
X1060460Y224400D03*
D24*
X1093460Y215900D03*
D23*
X1060460Y207400D03*
X996960Y224400D03*
D24*
X1029960Y215900D03*
D23*
X996960Y207400D03*
D11*
X958460Y171450D03*
X941460Y171450D03*
D25*
X944690Y180650D02*
X944690Y187650D01*
X944690Y180650D02*
X937690Y180650D01*
X937690Y187650D01*
X944690Y187650D01*
X944690Y183500D02*
X937690Y183500D01*
X937690Y186350D02*
X944690Y186350D01*
X962230Y187650D02*
X962230Y180650D01*
X955230Y180650D01*
X955230Y187650D01*
X962230Y187650D01*
X962230Y183500D02*
X955230Y183500D01*
X955230Y186350D02*
X962230Y186350D01*
D10*
X120650Y314080D03*
X120650Y331080D03*
D11*
X302650Y449580D03*
X319650Y449580D03*
D10*
X95250Y377580D03*
X95250Y394580D03*
X171450Y331080D03*
X171450Y314080D03*
D12*
X355600Y377080D03*
X355600Y395080D03*
D13*
X14050Y414080D03*
X14050Y358080D03*
D14*
X50800Y401080D03*
X50800Y391080D03*
X50800Y381080D03*
X50800Y371080D03*
D13*
X443150Y358080D03*
X443150Y414080D03*
D14*
X406400Y371080D03*
X406400Y381080D03*
X406400Y391080D03*
X406400Y401080D03*
D15*
X302150Y430530D03*
X320150Y430530D03*
D16*
X228450Y383180D03*
X241450Y383180D03*
X234950Y401680D03*
X228450Y319680D03*
X241450Y319680D03*
X234950Y338180D03*
D11*
X302650Y341630D03*
X319650Y341630D03*
X243450Y360680D03*
X226450Y360680D03*
D10*
X273050Y356480D03*
X273050Y339480D03*
X196850Y331080D03*
X196850Y314080D03*
D11*
X319650Y322580D03*
X302650Y322580D03*
X243450Y297180D03*
X226450Y297180D03*
D10*
X273050Y318380D03*
X273050Y301380D03*
D17*
X120650Y358080D03*
X133350Y358080D03*
X146050Y358080D03*
X158750Y358080D03*
X171450Y358080D03*
X184150Y358080D03*
X196850Y358080D03*
X196850Y414080D03*
X184150Y414080D03*
X171450Y414080D03*
X158750Y414080D03*
X146050Y414080D03*
X133350Y414080D03*
X120650Y414080D03*
D18*
X320900Y408580D03*
X314400Y408580D03*
X307900Y408580D03*
X301400Y408580D03*
X301400Y363580D03*
X307900Y363580D03*
X314400Y363580D03*
X320900Y363580D03*
D19*
X152800Y317580D03*
X139300Y317580D03*
X139300Y327580D03*
X152800Y327580D03*
D20*
X251300Y422300D03*
X251300Y441300D03*
X230300Y431800D03*
D10*
X273050Y432680D03*
X273050Y415680D03*
X273050Y394580D03*
X273050Y377580D03*
D21*
X355600Y355630D03*
X355600Y327630D03*
D11*
X347100Y433070D03*
X364100Y433070D03*
D22*
X344100Y449580D03*
X367100Y449580D03*
X344100Y411480D03*
X367100Y411480D03*
D23*
X135900Y483480D03*
D24*
X168900Y474980D03*
D23*
X135900Y466480D03*
X72400Y483480D03*
D24*
X105400Y474980D03*
D23*
X72400Y466480D03*
D11*
X33900Y430530D03*
X16900Y430530D03*
D25*
X20130Y439730D02*
X20130Y446730D01*
X20130Y439730D02*
X13130Y439730D01*
X13130Y446730D01*
X20130Y446730D01*
X20130Y442580D02*
X13130Y442580D01*
X13130Y445430D02*
X20130Y445430D01*
X37670Y446730D02*
X37670Y439730D01*
X30670Y439730D01*
X30670Y446730D01*
X37670Y446730D01*
X37670Y442580D02*
X30670Y442580D01*
X30670Y445430D02*
X37670Y445430D01*
D10*
X582930Y314080D03*
X582930Y331080D03*
D11*
X764930Y449580D03*
X781930Y449580D03*
D10*
X557530Y377580D03*
X557530Y394580D03*
X633730Y331080D03*
X633730Y314080D03*
D12*
X817880Y377080D03*
X817880Y395080D03*
D13*
X476330Y414080D03*
X476330Y358080D03*
D14*
X513080Y401080D03*
X513080Y391080D03*
X513080Y381080D03*
X513080Y371080D03*
D13*
X905430Y358080D03*
X905430Y414080D03*
D14*
X868680Y371080D03*
X868680Y381080D03*
X868680Y391080D03*
X868680Y401080D03*
D15*
X764430Y430530D03*
X782430Y430530D03*
D16*
X690730Y383180D03*
X703730Y383180D03*
X697230Y401680D03*
X690730Y319680D03*
X703730Y319680D03*
X697230Y338180D03*
D11*
X764930Y341630D03*
X781930Y341630D03*
X705730Y360680D03*
X688730Y360680D03*
D10*
X735330Y356480D03*
X735330Y339480D03*
X659130Y331080D03*
X659130Y314080D03*
D11*
X781930Y322580D03*
X764930Y322580D03*
X705730Y297180D03*
X688730Y297180D03*
D10*
X735330Y318380D03*
X735330Y301380D03*
D17*
X582930Y358080D03*
X595630Y358080D03*
X608330Y358080D03*
X621030Y358080D03*
X633730Y358080D03*
X646430Y358080D03*
X659130Y358080D03*
X659130Y414080D03*
X646430Y414080D03*
X633730Y414080D03*
X621030Y414080D03*
X608330Y414080D03*
X595630Y414080D03*
X582930Y414080D03*
D18*
X783180Y408580D03*
X776680Y408580D03*
X770180Y408580D03*
X763680Y408580D03*
X763680Y363580D03*
X770180Y363580D03*
X776680Y363580D03*
X783180Y363580D03*
D19*
X615080Y317580D03*
X601580Y317580D03*
X601580Y327580D03*
X615080Y327580D03*
D20*
X713580Y422300D03*
X713580Y441300D03*
X692580Y431800D03*
D10*
X735330Y432680D03*
X735330Y415680D03*
X735330Y394580D03*
X735330Y377580D03*
D21*
X817880Y355630D03*
X817880Y327630D03*
D11*
X809380Y433070D03*
X826380Y433070D03*
D22*
X806380Y449580D03*
X829380Y449580D03*
X806380Y411480D03*
X829380Y411480D03*
D23*
X598180Y483480D03*
D24*
X631180Y474980D03*
D23*
X598180Y466480D03*
X534680Y483480D03*
D24*
X567680Y474980D03*
D23*
X534680Y466480D03*
D11*
X496180Y430530D03*
X479180Y430530D03*
D25*
X482410Y439730D02*
X482410Y446730D01*
X482410Y439730D02*
X475410Y439730D01*
X475410Y446730D01*
X482410Y446730D01*
X482410Y442580D02*
X475410Y442580D01*
X475410Y445430D02*
X482410Y445430D01*
X499950Y446730D02*
X499950Y439730D01*
X492950Y439730D01*
X492950Y446730D01*
X499950Y446730D01*
X499950Y442580D02*
X492950Y442580D01*
X492950Y445430D02*
X499950Y445430D01*
D10*
X1045210Y314080D03*
X1045210Y331080D03*
D11*
X1227210Y449580D03*
X1244210Y449580D03*
D10*
X1019810Y377580D03*
X1019810Y394580D03*
X1096010Y331080D03*
X1096010Y314080D03*
D12*
X1280160Y377080D03*
X1280160Y395080D03*
D13*
X938610Y414080D03*
X938610Y358080D03*
D14*
X975360Y401080D03*
X975360Y391080D03*
X975360Y381080D03*
X975360Y371080D03*
D13*
X1367710Y358080D03*
X1367710Y414080D03*
D14*
X1330960Y371080D03*
X1330960Y381080D03*
X1330960Y391080D03*
X1330960Y401080D03*
D15*
X1226710Y430530D03*
X1244710Y430530D03*
D16*
X1153010Y383180D03*
X1166010Y383180D03*
X1159510Y401680D03*
X1153010Y319680D03*
X1166010Y319680D03*
X1159510Y338180D03*
D11*
X1227210Y341630D03*
X1244210Y341630D03*
X1168010Y360680D03*
X1151010Y360680D03*
D10*
X1197610Y356480D03*
X1197610Y339480D03*
X1121410Y331080D03*
X1121410Y314080D03*
D11*
X1244210Y322580D03*
X1227210Y322580D03*
X1168010Y297180D03*
X1151010Y297180D03*
D10*
X1197610Y318380D03*
X1197610Y301380D03*
D17*
X1045210Y358080D03*
X1057910Y358080D03*
X1070610Y358080D03*
X1083310Y358080D03*
X1096010Y358080D03*
X1108710Y358080D03*
X1121410Y358080D03*
X1121410Y414080D03*
X1108710Y414080D03*
X1096010Y414080D03*
X1083310Y414080D03*
X1070610Y414080D03*
X1057910Y414080D03*
X1045210Y414080D03*
D18*
X1245460Y408580D03*
X1238960Y408580D03*
X1232460Y408580D03*
X1225960Y408580D03*
X1225960Y363580D03*
X1232460Y363580D03*
X1238960Y363580D03*
X1245460Y363580D03*
D19*
X1077360Y317580D03*
X1063860Y317580D03*
X1063860Y327580D03*
X1077360Y327580D03*
D20*
X1175860Y422300D03*
X1175860Y441300D03*
X1154860Y431800D03*
D10*
X1197610Y432680D03*
X1197610Y415680D03*
X1197610Y394580D03*
X1197610Y377580D03*
D21*
X1280160Y355630D03*
X1280160Y327630D03*
D11*
X1271660Y433070D03*
X1288660Y433070D03*
D22*
X1268660Y449580D03*
X1291660Y449580D03*
X1268660Y411480D03*
X1291660Y411480D03*
D23*
X1060460Y483480D03*
D24*
X1093460Y474980D03*
D23*
X1060460Y466480D03*
X996960Y483480D03*
D24*
X1029960Y474980D03*
D23*
X996960Y466480D03*
D11*
X958460Y430530D03*
X941460Y430530D03*
D25*
X944690Y439730D02*
X944690Y446730D01*
X944690Y439730D02*
X937690Y439730D01*
X937690Y446730D01*
X944690Y446730D01*
X944690Y442580D02*
X937690Y442580D01*
X937690Y445430D02*
X944690Y445430D01*
X962230Y446730D02*
X962230Y439730D01*
X955230Y439730D01*
X955230Y446730D01*
X962230Y446730D01*
X962230Y442580D02*
X955230Y442580D01*
X955230Y445430D02*
X962230Y445430D01*
D10*
X120650Y573160D03*
X120650Y590160D03*
D11*
X302650Y708660D03*
X319650Y708660D03*
D10*
X95250Y636660D03*
X95250Y653660D03*
X171450Y590160D03*
X171450Y573160D03*
D12*
X355600Y636160D03*
X355600Y654160D03*
D13*
X14050Y673160D03*
X14050Y617160D03*
D14*
X50800Y660160D03*
X50800Y650160D03*
X50800Y640160D03*
X50800Y630160D03*
D13*
X443150Y617160D03*
X443150Y673160D03*
D14*
X406400Y630160D03*
X406400Y640160D03*
X406400Y650160D03*
X406400Y660160D03*
D15*
X302150Y689610D03*
X320150Y689610D03*
D16*
X228450Y642260D03*
X241450Y642260D03*
X234950Y660760D03*
X228450Y578760D03*
X241450Y578760D03*
X234950Y597260D03*
D11*
X302650Y600710D03*
X319650Y600710D03*
X243450Y619760D03*
X226450Y619760D03*
D10*
X273050Y615560D03*
X273050Y598560D03*
X196850Y590160D03*
X196850Y573160D03*
D11*
X319650Y581660D03*
X302650Y581660D03*
X243450Y556260D03*
X226450Y556260D03*
D10*
X273050Y577460D03*
X273050Y560460D03*
D17*
X120650Y617160D03*
X133350Y617160D03*
X146050Y617160D03*
X158750Y617160D03*
X171450Y617160D03*
X184150Y617160D03*
X196850Y617160D03*
X196850Y673160D03*
X184150Y673160D03*
X171450Y673160D03*
X158750Y673160D03*
X146050Y673160D03*
X133350Y673160D03*
X120650Y673160D03*
D18*
X320900Y667660D03*
X314400Y667660D03*
X307900Y667660D03*
X301400Y667660D03*
X301400Y622660D03*
X307900Y622660D03*
X314400Y622660D03*
X320900Y622660D03*
D19*
X152800Y576660D03*
X139300Y576660D03*
X139300Y586660D03*
X152800Y586660D03*
D20*
X251300Y681380D03*
X251300Y700380D03*
X230300Y690880D03*
D10*
X273050Y691760D03*
X273050Y674760D03*
X273050Y653660D03*
X273050Y636660D03*
D21*
X355600Y614710D03*
X355600Y586710D03*
D11*
X347100Y692150D03*
X364100Y692150D03*
D22*
X344100Y708660D03*
X367100Y708660D03*
X344100Y670560D03*
X367100Y670560D03*
D23*
X135900Y742560D03*
D24*
X168900Y734060D03*
D23*
X135900Y725560D03*
X72400Y742560D03*
D24*
X105400Y734060D03*
D23*
X72400Y725560D03*
D11*
X33900Y689610D03*
X16900Y689610D03*
D25*
X20130Y698810D02*
X20130Y705810D01*
X20130Y698810D02*
X13130Y698810D01*
X13130Y705810D01*
X20130Y705810D01*
X20130Y701660D02*
X13130Y701660D01*
X13130Y704510D02*
X20130Y704510D01*
X37670Y705810D02*
X37670Y698810D01*
X30670Y698810D01*
X30670Y705810D01*
X37670Y705810D01*
X37670Y701660D02*
X30670Y701660D01*
X30670Y704510D02*
X37670Y704510D01*
D10*
X582930Y573160D03*
X582930Y590160D03*
D11*
X764930Y708660D03*
X781930Y708660D03*
D10*
X557530Y636660D03*
X557530Y653660D03*
X633730Y590160D03*
X633730Y573160D03*
D12*
X817880Y636160D03*
X817880Y654160D03*
D13*
X476330Y673160D03*
X476330Y617160D03*
D14*
X513080Y660160D03*
X513080Y650160D03*
X513080Y640160D03*
X513080Y630160D03*
D13*
X905430Y617160D03*
X905430Y673160D03*
D14*
X868680Y630160D03*
X868680Y640160D03*
X868680Y650160D03*
X868680Y660160D03*
D15*
X764430Y689610D03*
X782430Y689610D03*
D16*
X690730Y642260D03*
X703730Y642260D03*
X697230Y660760D03*
X690730Y578760D03*
X703730Y578760D03*
X697230Y597260D03*
D11*
X764930Y600710D03*
X781930Y600710D03*
X705730Y619760D03*
X688730Y619760D03*
D10*
X735330Y615560D03*
X735330Y598560D03*
X659130Y590160D03*
X659130Y573160D03*
D11*
X781930Y581660D03*
X764930Y581660D03*
X705730Y556260D03*
X688730Y556260D03*
D10*
X735330Y577460D03*
X735330Y560460D03*
D17*
X582930Y617160D03*
X595630Y617160D03*
X608330Y617160D03*
X621030Y617160D03*
X633730Y617160D03*
X646430Y617160D03*
X659130Y617160D03*
X659130Y673160D03*
X646430Y673160D03*
X633730Y673160D03*
X621030Y673160D03*
X608330Y673160D03*
X595630Y673160D03*
X582930Y673160D03*
D18*
X783180Y667660D03*
X776680Y667660D03*
X770180Y667660D03*
X763680Y667660D03*
X763680Y622660D03*
X770180Y622660D03*
X776680Y622660D03*
X783180Y622660D03*
D19*
X615080Y576660D03*
X601580Y576660D03*
X601580Y586660D03*
X615080Y586660D03*
D20*
X713580Y681380D03*
X713580Y700380D03*
X692580Y690880D03*
D10*
X735330Y691760D03*
X735330Y674760D03*
X735330Y653660D03*
X735330Y636660D03*
D21*
X817880Y614710D03*
X817880Y586710D03*
D11*
X809380Y692150D03*
X826380Y692150D03*
D22*
X806380Y708660D03*
X829380Y708660D03*
X806380Y670560D03*
X829380Y670560D03*
D23*
X598180Y742560D03*
D24*
X631180Y734060D03*
D23*
X598180Y725560D03*
X534680Y742560D03*
D24*
X567680Y734060D03*
D23*
X534680Y725560D03*
D11*
X496180Y689610D03*
X479180Y689610D03*
D25*
X482410Y698810D02*
X482410Y705810D01*
X482410Y698810D02*
X475410Y698810D01*
X475410Y705810D01*
X482410Y705810D01*
X482410Y701660D02*
X475410Y701660D01*
X475410Y704510D02*
X482410Y704510D01*
X499950Y705810D02*
X499950Y698810D01*
X492950Y698810D01*
X492950Y705810D01*
X499950Y705810D01*
X499950Y701660D02*
X492950Y701660D01*
X492950Y704510D02*
X499950Y704510D01*
D10*
X1045210Y573160D03*
X1045210Y590160D03*
D11*
X1227210Y708660D03*
X1244210Y708660D03*
D10*
X1019810Y636660D03*
X1019810Y653660D03*
X1096010Y590160D03*
X1096010Y573160D03*
D12*
X1280160Y636160D03*
X1280160Y654160D03*
D13*
X938610Y673160D03*
X938610Y617160D03*
D14*
X975360Y660160D03*
X975360Y650160D03*
X975360Y640160D03*
X975360Y630160D03*
D13*
X1367710Y617160D03*
X1367710Y673160D03*
D14*
X1330960Y630160D03*
X1330960Y640160D03*
X1330960Y650160D03*
X1330960Y660160D03*
D15*
X1226710Y689610D03*
X1244710Y689610D03*
D16*
X1153010Y642260D03*
X1166010Y642260D03*
X1159510Y660760D03*
X1153010Y578760D03*
X1166010Y578760D03*
X1159510Y597260D03*
D11*
X1227210Y600710D03*
X1244210Y600710D03*
X1168010Y619760D03*
X1151010Y619760D03*
D10*
X1197610Y615560D03*
X1197610Y598560D03*
X1121410Y590160D03*
X1121410Y573160D03*
D11*
X1244210Y581660D03*
X1227210Y581660D03*
X1168010Y556260D03*
X1151010Y556260D03*
D10*
X1197610Y577460D03*
X1197610Y560460D03*
D17*
X1045210Y617160D03*
X1057910Y617160D03*
X1070610Y617160D03*
X1083310Y617160D03*
X1096010Y617160D03*
X1108710Y617160D03*
X1121410Y617160D03*
X1121410Y673160D03*
X1108710Y673160D03*
X1096010Y673160D03*
X1083310Y673160D03*
X1070610Y673160D03*
X1057910Y673160D03*
X1045210Y673160D03*
D18*
X1245460Y667660D03*
X1238960Y667660D03*
X1232460Y667660D03*
X1225960Y667660D03*
X1225960Y622660D03*
X1232460Y622660D03*
X1238960Y622660D03*
X1245460Y622660D03*
D19*
X1077360Y576660D03*
X1063860Y576660D03*
X1063860Y586660D03*
X1077360Y586660D03*
D20*
X1175860Y681380D03*
X1175860Y700380D03*
X1154860Y690880D03*
D10*
X1197610Y691760D03*
X1197610Y674760D03*
X1197610Y653660D03*
X1197610Y636660D03*
D21*
X1280160Y614710D03*
X1280160Y586710D03*
D11*
X1271660Y692150D03*
X1288660Y692150D03*
D22*
X1268660Y708660D03*
X1291660Y708660D03*
X1268660Y670560D03*
X1291660Y670560D03*
D23*
X1060460Y742560D03*
D24*
X1093460Y734060D03*
D23*
X1060460Y725560D03*
X996960Y742560D03*
D24*
X1029960Y734060D03*
D23*
X996960Y725560D03*
D11*
X958460Y689610D03*
X941460Y689610D03*
D25*
X944690Y698810D02*
X944690Y705810D01*
X944690Y698810D02*
X937690Y698810D01*
X937690Y705810D01*
X944690Y705810D01*
X944690Y701660D02*
X937690Y701660D01*
X937690Y704510D02*
X944690Y704510D01*
X962230Y705810D02*
X962230Y698810D01*
X955230Y698810D01*
X955230Y705810D01*
X962230Y705810D01*
X962230Y701660D02*
X955230Y701660D01*
X955230Y704510D02*
X962230Y704510D01*
D10*
X120650Y832240D03*
X120650Y849240D03*
D11*
X302650Y967740D03*
X319650Y967740D03*
D10*
X95250Y895740D03*
X95250Y912740D03*
X171450Y849240D03*
X171450Y832240D03*
D12*
X355600Y895240D03*
X355600Y913240D03*
D13*
X14050Y932240D03*
X14050Y876240D03*
D14*
X50800Y919240D03*
X50800Y909240D03*
X50800Y899240D03*
X50800Y889240D03*
D13*
X443150Y876240D03*
X443150Y932240D03*
D14*
X406400Y889240D03*
X406400Y899240D03*
X406400Y909240D03*
X406400Y919240D03*
D15*
X302150Y948690D03*
X320150Y948690D03*
D16*
X228450Y901340D03*
X241450Y901340D03*
X234950Y919840D03*
X228450Y837840D03*
X241450Y837840D03*
X234950Y856340D03*
D11*
X302650Y859790D03*
X319650Y859790D03*
X243450Y878840D03*
X226450Y878840D03*
D10*
X273050Y874640D03*
X273050Y857640D03*
X196850Y849240D03*
X196850Y832240D03*
D11*
X319650Y840740D03*
X302650Y840740D03*
X243450Y815340D03*
X226450Y815340D03*
D10*
X273050Y836540D03*
X273050Y819540D03*
D17*
X120650Y876240D03*
X133350Y876240D03*
X146050Y876240D03*
X158750Y876240D03*
X171450Y876240D03*
X184150Y876240D03*
X196850Y876240D03*
X196850Y932240D03*
X184150Y932240D03*
X171450Y932240D03*
X158750Y932240D03*
X146050Y932240D03*
X133350Y932240D03*
X120650Y932240D03*
D18*
X320900Y926740D03*
X314400Y926740D03*
X307900Y926740D03*
X301400Y926740D03*
X301400Y881740D03*
X307900Y881740D03*
X314400Y881740D03*
X320900Y881740D03*
D19*
X152800Y835740D03*
X139300Y835740D03*
X139300Y845740D03*
X152800Y845740D03*
D20*
X251300Y940460D03*
X251300Y959460D03*
X230300Y949960D03*
D10*
X273050Y950840D03*
X273050Y933840D03*
X273050Y912740D03*
X273050Y895740D03*
D21*
X355600Y873790D03*
X355600Y845790D03*
D11*
X347100Y951230D03*
X364100Y951230D03*
D22*
X344100Y967740D03*
X367100Y967740D03*
X344100Y929640D03*
X367100Y929640D03*
D23*
X135900Y1001640D03*
D24*
X168900Y993140D03*
D23*
X135900Y984640D03*
X72400Y1001640D03*
D24*
X105400Y993140D03*
D23*
X72400Y984640D03*
D11*
X33900Y948690D03*
X16900Y948690D03*
D25*
X20130Y957890D02*
X20130Y964890D01*
X20130Y957890D02*
X13130Y957890D01*
X13130Y964890D01*
X20130Y964890D01*
X20130Y960740D02*
X13130Y960740D01*
X13130Y963590D02*
X20130Y963590D01*
X37670Y964890D02*
X37670Y957890D01*
X30670Y957890D01*
X30670Y964890D01*
X37670Y964890D01*
X37670Y960740D02*
X30670Y960740D01*
X30670Y963590D02*
X37670Y963590D01*
D10*
X582930Y832240D03*
X582930Y849240D03*
D11*
X764930Y967740D03*
X781930Y967740D03*
D10*
X557530Y895740D03*
X557530Y912740D03*
X633730Y849240D03*
X633730Y832240D03*
D12*
X817880Y895240D03*
X817880Y913240D03*
D13*
X476330Y932240D03*
X476330Y876240D03*
D14*
X513080Y919240D03*
X513080Y909240D03*
X513080Y899240D03*
X513080Y889240D03*
D13*
X905430Y876240D03*
X905430Y932240D03*
D14*
X868680Y889240D03*
X868680Y899240D03*
X868680Y909240D03*
X868680Y919240D03*
D15*
X764430Y948690D03*
X782430Y948690D03*
D16*
X690730Y901340D03*
X703730Y901340D03*
X697230Y919840D03*
X690730Y837840D03*
X703730Y837840D03*
X697230Y856340D03*
D11*
X764930Y859790D03*
X781930Y859790D03*
X705730Y878840D03*
X688730Y878840D03*
D10*
X735330Y874640D03*
X735330Y857640D03*
X659130Y849240D03*
X659130Y832240D03*
D11*
X781930Y840740D03*
X764930Y840740D03*
X705730Y815340D03*
X688730Y815340D03*
D10*
X735330Y836540D03*
X735330Y819540D03*
D17*
X582930Y876240D03*
X595630Y876240D03*
X608330Y876240D03*
X621030Y876240D03*
X633730Y876240D03*
X646430Y876240D03*
X659130Y876240D03*
X659130Y932240D03*
X646430Y932240D03*
X633730Y932240D03*
X621030Y932240D03*
X608330Y932240D03*
X595630Y932240D03*
X582930Y932240D03*
D18*
X783180Y926740D03*
X776680Y926740D03*
X770180Y926740D03*
X763680Y926740D03*
X763680Y881740D03*
X770180Y881740D03*
X776680Y881740D03*
X783180Y881740D03*
D19*
X615080Y835740D03*
X601580Y835740D03*
X601580Y845740D03*
X615080Y845740D03*
D20*
X713580Y940460D03*
X713580Y959460D03*
X692580Y949960D03*
D10*
X735330Y950840D03*
X735330Y933840D03*
X735330Y912740D03*
X735330Y895740D03*
D21*
X817880Y873790D03*
X817880Y845790D03*
D11*
X809380Y951230D03*
X826380Y951230D03*
D22*
X806380Y967740D03*
X829380Y967740D03*
X806380Y929640D03*
X829380Y929640D03*
D23*
X598180Y1001640D03*
D24*
X631180Y993140D03*
D23*
X598180Y984640D03*
X534680Y1001640D03*
D24*
X567680Y993140D03*
D23*
X534680Y984640D03*
D11*
X496180Y948690D03*
X479180Y948690D03*
D25*
X482410Y957890D02*
X482410Y964890D01*
X482410Y957890D02*
X475410Y957890D01*
X475410Y964890D01*
X482410Y964890D01*
X482410Y960740D02*
X475410Y960740D01*
X475410Y963590D02*
X482410Y963590D01*
X499950Y964890D02*
X499950Y957890D01*
X492950Y957890D01*
X492950Y964890D01*
X499950Y964890D01*
X499950Y960740D02*
X492950Y960740D01*
X492950Y963590D02*
X499950Y963590D01*
D10*
X1045210Y832240D03*
X1045210Y849240D03*
D11*
X1227210Y967740D03*
X1244210Y967740D03*
D10*
X1019810Y895740D03*
X1019810Y912740D03*
X1096010Y849240D03*
X1096010Y832240D03*
D12*
X1280160Y895240D03*
X1280160Y913240D03*
D13*
X938610Y932240D03*
X938610Y876240D03*
D14*
X975360Y919240D03*
X975360Y909240D03*
X975360Y899240D03*
X975360Y889240D03*
D13*
X1367710Y876240D03*
X1367710Y932240D03*
D14*
X1330960Y889240D03*
X1330960Y899240D03*
X1330960Y909240D03*
X1330960Y919240D03*
D15*
X1226710Y948690D03*
X1244710Y948690D03*
D16*
X1153010Y901340D03*
X1166010Y901340D03*
X1159510Y919840D03*
X1153010Y837840D03*
X1166010Y837840D03*
X1159510Y856340D03*
D11*
X1227210Y859790D03*
X1244210Y859790D03*
X1168010Y878840D03*
X1151010Y878840D03*
D10*
X1197610Y874640D03*
X1197610Y857640D03*
X1121410Y849240D03*
X1121410Y832240D03*
D11*
X1244210Y840740D03*
X1227210Y840740D03*
X1168010Y815340D03*
X1151010Y815340D03*
D10*
X1197610Y836540D03*
X1197610Y819540D03*
D17*
X1045210Y876240D03*
X1057910Y876240D03*
X1070610Y876240D03*
X1083310Y876240D03*
X1096010Y876240D03*
X1108710Y876240D03*
X1121410Y876240D03*
X1121410Y932240D03*
X1108710Y932240D03*
X1096010Y932240D03*
X1083310Y932240D03*
X1070610Y932240D03*
X1057910Y932240D03*
X1045210Y932240D03*
D18*
X1245460Y926740D03*
X1238960Y926740D03*
X1232460Y926740D03*
X1225960Y926740D03*
X1225960Y881740D03*
X1232460Y881740D03*
X1238960Y881740D03*
X1245460Y881740D03*
D19*
X1077360Y835740D03*
X1063860Y835740D03*
X1063860Y845740D03*
X1077360Y845740D03*
D20*
X1175860Y940460D03*
X1175860Y959460D03*
X1154860Y949960D03*
D10*
X1197610Y950840D03*
X1197610Y933840D03*
X1197610Y912740D03*
X1197610Y895740D03*
D21*
X1280160Y873790D03*
X1280160Y845790D03*
D11*
X1271660Y951230D03*
X1288660Y951230D03*
D22*
X1268660Y967740D03*
X1291660Y967740D03*
X1268660Y929640D03*
X1291660Y929640D03*
D23*
X1060460Y1001640D03*
D24*
X1093460Y993140D03*
D23*
X1060460Y984640D03*
X996960Y1001640D03*
D24*
X1029960Y993140D03*
D23*
X996960Y984640D03*
D11*
X958460Y948690D03*
X941460Y948690D03*
D25*
X944690Y957890D02*
X944690Y964890D01*
X944690Y957890D02*
X937690Y957890D01*
X937690Y964890D01*
X944690Y964890D01*
X944690Y960740D02*
X937690Y960740D01*
X937690Y963590D02*
X944690Y963590D01*
X962230Y964890D02*
X962230Y957890D01*
X955230Y957890D01*
X955230Y964890D01*
X962230Y964890D01*
X962230Y960740D02*
X955230Y960740D01*
X955230Y963590D02*
X962230Y963590D01*
D10*
X120650Y1091320D03*
X120650Y1108320D03*
D11*
X302650Y1226820D03*
X319650Y1226820D03*
D10*
X95250Y1154820D03*
X95250Y1171820D03*
X171450Y1108320D03*
X171450Y1091320D03*
D12*
X355600Y1154320D03*
X355600Y1172320D03*
D13*
X14050Y1191320D03*
X14050Y1135320D03*
D14*
X50800Y1178320D03*
X50800Y1168320D03*
X50800Y1158320D03*
X50800Y1148320D03*
D13*
X443150Y1135320D03*
X443150Y1191320D03*
D14*
X406400Y1148320D03*
X406400Y1158320D03*
X406400Y1168320D03*
X406400Y1178320D03*
D15*
X302150Y1207770D03*
X320150Y1207770D03*
D16*
X228450Y1160420D03*
X241450Y1160420D03*
X234950Y1178920D03*
X228450Y1096920D03*
X241450Y1096920D03*
X234950Y1115420D03*
D11*
X302650Y1118870D03*
X319650Y1118870D03*
X243450Y1137920D03*
X226450Y1137920D03*
D10*
X273050Y1133720D03*
X273050Y1116720D03*
X196850Y1108320D03*
X196850Y1091320D03*
D11*
X319650Y1099820D03*
X302650Y1099820D03*
X243450Y1074420D03*
X226450Y1074420D03*
D10*
X273050Y1095620D03*
X273050Y1078620D03*
D17*
X120650Y1135320D03*
X133350Y1135320D03*
X146050Y1135320D03*
X158750Y1135320D03*
X171450Y1135320D03*
X184150Y1135320D03*
X196850Y1135320D03*
X196850Y1191320D03*
X184150Y1191320D03*
X171450Y1191320D03*
X158750Y1191320D03*
X146050Y1191320D03*
X133350Y1191320D03*
X120650Y1191320D03*
D18*
X320900Y1185820D03*
X314400Y1185820D03*
X307900Y1185820D03*
X301400Y1185820D03*
X301400Y1140820D03*
X307900Y1140820D03*
X314400Y1140820D03*
X320900Y1140820D03*
D19*
X152800Y1094820D03*
X139300Y1094820D03*
X139300Y1104820D03*
X152800Y1104820D03*
D20*
X251300Y1199540D03*
X251300Y1218540D03*
X230300Y1209040D03*
D10*
X273050Y1209920D03*
X273050Y1192920D03*
X273050Y1171820D03*
X273050Y1154820D03*
D21*
X355600Y1132870D03*
X355600Y1104870D03*
D11*
X347100Y1210310D03*
X364100Y1210310D03*
D22*
X344100Y1226820D03*
X367100Y1226820D03*
X344100Y1188720D03*
X367100Y1188720D03*
D23*
X135900Y1260720D03*
D24*
X168900Y1252220D03*
D23*
X135900Y1243720D03*
X72400Y1260720D03*
D24*
X105400Y1252220D03*
D23*
X72400Y1243720D03*
D11*
X33900Y1207770D03*
X16900Y1207770D03*
D25*
X20130Y1216970D02*
X20130Y1223970D01*
X20130Y1216970D02*
X13130Y1216970D01*
X13130Y1223970D01*
X20130Y1223970D01*
X20130Y1219820D02*
X13130Y1219820D01*
X13130Y1222670D02*
X20130Y1222670D01*
X37670Y1223970D02*
X37670Y1216970D01*
X30670Y1216970D01*
X30670Y1223970D01*
X37670Y1223970D01*
X37670Y1219820D02*
X30670Y1219820D01*
X30670Y1222670D02*
X37670Y1222670D01*
D10*
X582930Y1091320D03*
X582930Y1108320D03*
D11*
X764930Y1226820D03*
X781930Y1226820D03*
D10*
X557530Y1154820D03*
X557530Y1171820D03*
X633730Y1108320D03*
X633730Y1091320D03*
D12*
X817880Y1154320D03*
X817880Y1172320D03*
D13*
X476330Y1191320D03*
X476330Y1135320D03*
D14*
X513080Y1178320D03*
X513080Y1168320D03*
X513080Y1158320D03*
X513080Y1148320D03*
D13*
X905430Y1135320D03*
X905430Y1191320D03*
D14*
X868680Y1148320D03*
X868680Y1158320D03*
X868680Y1168320D03*
X868680Y1178320D03*
D15*
X764430Y1207770D03*
X782430Y1207770D03*
D16*
X690730Y1160420D03*
X703730Y1160420D03*
X697230Y1178920D03*
X690730Y1096920D03*
X703730Y1096920D03*
X697230Y1115420D03*
D11*
X764930Y1118870D03*
X781930Y1118870D03*
X705730Y1137920D03*
X688730Y1137920D03*
D10*
X735330Y1133720D03*
X735330Y1116720D03*
X659130Y1108320D03*
X659130Y1091320D03*
D11*
X781930Y1099820D03*
X764930Y1099820D03*
X705730Y1074420D03*
X688730Y1074420D03*
D10*
X735330Y1095620D03*
X735330Y1078620D03*
D17*
X582930Y1135320D03*
X595630Y1135320D03*
X608330Y1135320D03*
X621030Y1135320D03*
X633730Y1135320D03*
X646430Y1135320D03*
X659130Y1135320D03*
X659130Y1191320D03*
X646430Y1191320D03*
X633730Y1191320D03*
X621030Y1191320D03*
X608330Y1191320D03*
X595630Y1191320D03*
X582930Y1191320D03*
D18*
X783180Y1185820D03*
X776680Y1185820D03*
X770180Y1185820D03*
X763680Y1185820D03*
X763680Y1140820D03*
X770180Y1140820D03*
X776680Y1140820D03*
X783180Y1140820D03*
D19*
X615080Y1094820D03*
X601580Y1094820D03*
X601580Y1104820D03*
X615080Y1104820D03*
D20*
X713580Y1199540D03*
X713580Y1218540D03*
X692580Y1209040D03*
D10*
X735330Y1209920D03*
X735330Y1192920D03*
X735330Y1171820D03*
X735330Y1154820D03*
D21*
X817880Y1132870D03*
X817880Y1104870D03*
D11*
X809380Y1210310D03*
X826380Y1210310D03*
D22*
X806380Y1226820D03*
X829380Y1226820D03*
X806380Y1188720D03*
X829380Y1188720D03*
D23*
X598180Y1260720D03*
D24*
X631180Y1252220D03*
D23*
X598180Y1243720D03*
X534680Y1260720D03*
D24*
X567680Y1252220D03*
D23*
X534680Y1243720D03*
D11*
X496180Y1207770D03*
X479180Y1207770D03*
D25*
X482410Y1216970D02*
X482410Y1223970D01*
X482410Y1216970D02*
X475410Y1216970D01*
X475410Y1223970D01*
X482410Y1223970D01*
X482410Y1219820D02*
X475410Y1219820D01*
X475410Y1222670D02*
X482410Y1222670D01*
X499950Y1223970D02*
X499950Y1216970D01*
X492950Y1216970D01*
X492950Y1223970D01*
X499950Y1223970D01*
X499950Y1219820D02*
X492950Y1219820D01*
X492950Y1222670D02*
X499950Y1222670D01*
D10*
X1045210Y1091320D03*
X1045210Y1108320D03*
D11*
X1227210Y1226820D03*
X1244210Y1226820D03*
D10*
X1019810Y1154820D03*
X1019810Y1171820D03*
X1096010Y1108320D03*
X1096010Y1091320D03*
D12*
X1280160Y1154320D03*
X1280160Y1172320D03*
D13*
X938610Y1191320D03*
X938610Y1135320D03*
D14*
X975360Y1178320D03*
X975360Y1168320D03*
X975360Y1158320D03*
X975360Y1148320D03*
D13*
X1367710Y1135320D03*
X1367710Y1191320D03*
D14*
X1330960Y1148320D03*
X1330960Y1158320D03*
X1330960Y1168320D03*
X1330960Y1178320D03*
D15*
X1226710Y1207770D03*
X1244710Y1207770D03*
D16*
X1153010Y1160420D03*
X1166010Y1160420D03*
X1159510Y1178920D03*
X1153010Y1096920D03*
X1166010Y1096920D03*
X1159510Y1115420D03*
D11*
X1227210Y1118870D03*
X1244210Y1118870D03*
X1168010Y1137920D03*
X1151010Y1137920D03*
D10*
X1197610Y1133720D03*
X1197610Y1116720D03*
X1121410Y1108320D03*
X1121410Y1091320D03*
D11*
X1244210Y1099820D03*
X1227210Y1099820D03*
X1168010Y1074420D03*
X1151010Y1074420D03*
D10*
X1197610Y1095620D03*
X1197610Y1078620D03*
D17*
X1045210Y1135320D03*
X1057910Y1135320D03*
X1070610Y1135320D03*
X1083310Y1135320D03*
X1096010Y1135320D03*
X1108710Y1135320D03*
X1121410Y1135320D03*
X1121410Y1191320D03*
X1108710Y1191320D03*
X1096010Y1191320D03*
X1083310Y1191320D03*
X1070610Y1191320D03*
X1057910Y1191320D03*
X1045210Y1191320D03*
D18*
X1245460Y1185820D03*
X1238960Y1185820D03*
X1232460Y1185820D03*
X1225960Y1185820D03*
X1225960Y1140820D03*
X1232460Y1140820D03*
X1238960Y1140820D03*
X1245460Y1140820D03*
D19*
X1077360Y1094820D03*
X1063860Y1094820D03*
X1063860Y1104820D03*
X1077360Y1104820D03*
D20*
X1175860Y1199540D03*
X1175860Y1218540D03*
X1154860Y1209040D03*
D10*
X1197610Y1209920D03*
X1197610Y1192920D03*
X1197610Y1171820D03*
X1197610Y1154820D03*
D21*
X1280160Y1132870D03*
X1280160Y1104870D03*
D11*
X1271660Y1210310D03*
X1288660Y1210310D03*
D22*
X1268660Y1226820D03*
X1291660Y1226820D03*
X1268660Y1188720D03*
X1291660Y1188720D03*
D23*
X1060460Y1260720D03*
D24*
X1093460Y1252220D03*
D23*
X1060460Y1243720D03*
X996960Y1260720D03*
D24*
X1029960Y1252220D03*
D23*
X996960Y1243720D03*
D11*
X958460Y1207770D03*
X941460Y1207770D03*
D25*
X944690Y1216970D02*
X944690Y1223970D01*
X944690Y1216970D02*
X937690Y1216970D01*
X937690Y1223970D01*
X944690Y1223970D01*
X944690Y1219820D02*
X937690Y1219820D01*
X937690Y1222670D02*
X944690Y1222670D01*
X962230Y1223970D02*
X962230Y1216970D01*
X955230Y1216970D01*
X955230Y1223970D01*
X962230Y1223970D01*
X962230Y1219820D02*
X955230Y1219820D01*
X955230Y1222670D02*
X962230Y1222670D01*
M02*
