M48
;GenerationSoftware,Autodesk,EAGLE,9.5.2*%
;CreationDate,2021-07-19T19:57:59Z*%
FMAT,2
ICI,OFF
METRIC,TZ,000.000
T5C0.300
T4C0.381
T3C0.508
T2C1.016
T1C3.302
%
G90
M71
T1
X135636Y48768
X94996Y100584
X94996Y80264
X135636Y80264
X135636Y100584
X2540Y126492
X2540Y106172
X43180Y106172
X43180Y126492
X48768Y126492
X48768Y106172
X89408Y106172
X89408Y126492
X94996Y126492
X94996Y106172
X135636Y106172
X2540Y22860
X2540Y2540
X43180Y2540
X43180Y22860
X48768Y22860
X48768Y2540
X89408Y2540
X89408Y22860
X94996Y22860
X94996Y2540
X135636Y2540
X135636Y22860
X2540Y48768
X2540Y28448
X43180Y28448
X43180Y48768
X48768Y48768
X48768Y28448
X89408Y28448
X89408Y48768
X94996Y48768
X94996Y28448
X135636Y28448
X135636Y126492
X2540Y74676
X2540Y54356
X43180Y54356
X43180Y74676
X48768Y74676
X48768Y54356
X89408Y54356
X89408Y74676
X94996Y74676
X94996Y54356
X135636Y54356
X135636Y74676
X2540Y100584
X2540Y80264
X43180Y80264
X43180Y100584
X48768Y100584
X48768Y80264
X89408Y80264
X89408Y100584
T2
X76708Y78994
X84328Y101854
X81788Y101854
X79248Y101854
X76708Y101854
X71628Y101854
X69088Y101854
X130556Y78994
X128016Y78994
X128016Y50038
X125476Y78994
X122936Y78994
X130556Y101854
X128016Y101854
X125476Y101854
X76708Y53086
X122936Y101854
X117856Y101854
X115316Y101854
X38100Y104902
X35560Y104902
X30480Y104902
X38100Y1270
X35560Y1270
X33020Y1270
X30480Y1270
X38100Y24130
X35560Y24130
X33020Y24130
X30480Y24130
X25400Y24130
X22860Y24130
X38100Y127762
X35560Y127762
X33020Y127762
X30480Y127762
X25400Y127762
X22860Y127762
X84328Y1270
X81788Y1270
X79248Y1270
X76708Y1270
X84328Y24130
X81788Y24130
X79248Y24130
X76708Y24130
X71628Y24130
X69088Y24130
X84328Y104902
X81788Y104902
X79248Y104902
X76708Y104902
X84328Y127762
X81788Y127762
X130556Y1270
X128016Y1270
X125476Y1270
X122936Y1270
X130556Y24130
X128016Y24130
X125476Y24130
X122936Y24130
X117856Y24130
X115316Y24130
X79248Y127762
X76708Y127762
X71628Y127762
X69088Y127762
X130556Y104902
X128016Y104902
X38100Y27178
X35560Y27178
X33020Y27178
X30480Y27178
X38100Y50038
X35560Y50038
X33020Y50038
X30480Y50038
X25400Y50038
X22860Y50038
X125476Y104902
X122936Y104902
X130556Y127762
X128016Y127762
X125476Y127762
X122936Y127762
X84328Y27178
X81788Y27178
X79248Y27178
X76708Y27178
X84328Y50038
X81788Y50038
X79248Y50038
X76708Y50038
X71628Y50038
X69088Y50038
X117856Y127762
X115316Y127762
X130556Y27178
X128016Y27178
X125476Y27178
X122936Y27178
X130556Y50038
X125476Y50038
X122936Y50038
X117856Y50038
X115316Y50038
X38100Y53086
X35560Y53086
X33020Y53086
X30480Y53086
X38100Y75946
X35560Y75946
X33020Y75946
X30480Y75946
X25400Y75946
X22860Y75946
X84328Y53086
X81788Y53086
X79248Y53086
X84328Y75946
X81788Y75946
X79248Y75946
X76708Y75946
X71628Y75946
X69088Y75946
X130556Y53086
X128016Y53086
X125476Y53086
X122936Y53086
X130556Y75946
X128016Y75946
X125476Y75946
X122936Y75946
X117856Y75946
X115316Y75946
X38100Y78994
X35560Y78994
X33020Y78994
X30480Y78994
X38100Y101854
X35560Y101854
X33020Y101854
X30480Y101854
X25400Y101854
X22860Y101854
X33020Y104902
X84328Y78994
X81788Y78994
X79248Y78994
T3
X105791Y13970
X105791Y115062
X108331Y115062
X110871Y117602
X110871Y115062
X62103Y65786
X62103Y63246
X64643Y65786
X64643Y63246
X108331Y37338
X105791Y91694
X105791Y89154
X108331Y91694
X15875Y89154
X13335Y13970
X13335Y11430
X108331Y89154
X15875Y11430
X18415Y13970
X18415Y11430
X59563Y13970
X59563Y11430
X62103Y13970
X62103Y11430
X64643Y13970
X64643Y11430
X59563Y89154
X105791Y11430
X108331Y13970
X108331Y11430
X110871Y13970
X110871Y11430
X13335Y39878
X13335Y37338
X15875Y39878
X15875Y37338
X18415Y39878
X18415Y37338
X59563Y39878
X59563Y37338
X62103Y39878
X62103Y37338
X64643Y39878
X64643Y37338
X105791Y39878
X110871Y91694
X110871Y89154
X110871Y39878
X110871Y37338
X13335Y91694
X13335Y89154
X15875Y91694
X108331Y117602
X18415Y91694
X18415Y89154
X105791Y37338
X108331Y39878
X13335Y117602
X13335Y115062
X15875Y117602
X15875Y115062
X18415Y117602
X18415Y115062
X13335Y65786
X13335Y63246
X15875Y13970
X15875Y65786
X15875Y63246
X18415Y65786
X105791Y65786
X105791Y63246
X108331Y65786
X59563Y91694
X59563Y117602
X59563Y115062
X62103Y117602
X62103Y115062
X64643Y117602
X64643Y115062
X108331Y63246
X62103Y91694
X62103Y89154
X64643Y91694
X64643Y89154
X110871Y65786
X110871Y63246
X18415Y63246
X59563Y65786
X59563Y63246
X105791Y117602
T4
X18796Y50038
X65024Y24130
X18796Y75946
X18796Y24130
X18796Y101854
X111252Y50038
X65024Y75946
X111252Y24130
X65024Y101854
X111252Y101854
X18796Y127762
X65024Y127762
X65024Y50038
X111252Y127762
X111252Y75946
T5
X114046Y37338
X113411Y36068
X121285Y36068
X133096Y44958
X134366Y44958
X131826Y44958
X133096Y46228
X133096Y43688
X114046Y41402
X98806Y41148
X98806Y42418
X97536Y42418
X97536Y50038
X98806Y50038
X99187Y38608
X130556Y38100
X114046Y38608
X123952Y38608
X123317Y38608
X126365Y32766
X100584Y37758
X121285Y34036
X113284Y34036
X100330Y29718
X118237Y29718
X134366Y39116
X101346Y30988
X118618Y32893
X122936Y30988
X133096Y41148
X112141Y34798
X115951Y34798
X126873Y42291
X112776Y39497
X113157Y41402
X118364Y43180
X108966Y43053
X116205Y46228
X121285Y44958
X117586Y45339
X130556Y43307
X111506Y47498
X124714Y47498
X18415Y58928
X18415Y57785
X10160Y69596
X10160Y68326
X10160Y67056
X15240Y73406
X13970Y70866
X3810Y72136
X5080Y73406
X5080Y72136
X5080Y58166
X5080Y56896
X5080Y59436
X6350Y58166
X3810Y58166
X21590Y63246
X20955Y61976
X28829Y61976
X40640Y70866
X41910Y70866
X39370Y70866
X40640Y72136
X40640Y69596
X21590Y67310
X6350Y67056
X6350Y68326
X5080Y68326
X5080Y75946
X6350Y75946
X6731Y64516
X38100Y64008
X21590Y64516
X31496Y64516
X30861Y64516
X33909Y58674
X8128Y63666
X28829Y59944
X20828Y59944
X7874Y55626
X25781Y55626
X41910Y65024
X8890Y56896
X26162Y58801
X30480Y56896
X40640Y67056
X19685Y60706
X23495Y60706
X34417Y68199
X20320Y65405
X20701Y67310
X25908Y69088
X16510Y68961
X23749Y72136
X28829Y70866
X25130Y71247
X38100Y69215
X19050Y73406
X32258Y73406
X64643Y58928
X64643Y57785
X56388Y69596
X56388Y68326
X56388Y67056
X61468Y73406
X60198Y70866
X50038Y72136
X51308Y73406
X51308Y72136
X51308Y58166
X51308Y56896
X51308Y59436
X52578Y58166
X50038Y58166
X67818Y63246
X67183Y61976
X75057Y61976
X86868Y70866
X88138Y70866
X85598Y70866
X86868Y72136
X86868Y69596
X67818Y67310
X52578Y67056
X52578Y68326
X51308Y68326
X51308Y75946
X52578Y75946
X52959Y64516
X84328Y64008
X67818Y64516
X77724Y64516
X77089Y64516
X80137Y58674
X54356Y63666
X75057Y59944
X67056Y59944
X54102Y55626
X72009Y55626
X88138Y65024
X55118Y56896
X72390Y58801
X76708Y56896
X86868Y67056
X65913Y60706
X69723Y60706
X80645Y68199
X66548Y65405
X66929Y67310
X72136Y69088
X62738Y68961
X69977Y72136
X75057Y70866
X71358Y71247
X84328Y69215
X65278Y73406
X78486Y73406
X110871Y58928
X110871Y57785
X102616Y69596
X102616Y68326
X102616Y67056
X107696Y73406
X106426Y70866
X96266Y72136
X97536Y73406
X97536Y72136
X97536Y58166
X97536Y56896
X97536Y59436
X98806Y58166
X96266Y58166
X114046Y63246
X113411Y61976
X121285Y61976
X133096Y70866
X134366Y70866
X131826Y70866
X133096Y72136
X133096Y69596
X114046Y67310
X98806Y67056
X98806Y68326
X97536Y68326
X97536Y75946
X98806Y75946
X99187Y64516
X130556Y64008
X114046Y64516
X123952Y64516
X123317Y64516
X126365Y58674
X100584Y63666
X121285Y59944
X113284Y59944
X100330Y55626
X118237Y55626
X134366Y65024
X101346Y56896
X118618Y58801
X122936Y56896
X133096Y67056
X112141Y60706
X115951Y60706
X126873Y68199
X112776Y65405
X113157Y67310
X118364Y69088
X108966Y68961
X116205Y72136
X121285Y70866
X117586Y71247
X130556Y69215
X111506Y73406
X124714Y73406
X18415Y84836
X18415Y83693
X10160Y95504
X10160Y94234
X10160Y92964
X15240Y99314
X13970Y96774
X3810Y98044
X5080Y99314
X5080Y98044
X5080Y84074
X5080Y82804
X5080Y85344
X6350Y84074
X3810Y84074
X21590Y89154
X20955Y87884
X28829Y87884
X40640Y96774
X41910Y96774
X39370Y96774
X40640Y98044
X40640Y95504
X21590Y93218
X6350Y92964
X6350Y94234
X5080Y94234
X5080Y101854
X6350Y101854
X6731Y90424
X38100Y89916
X21590Y90424
X31496Y90424
X30861Y90424
X33909Y84582
X8128Y89574
X28829Y85852
X20828Y85852
X7874Y81534
X25781Y81534
X41910Y90932
X8890Y82804
X26162Y84709
X30480Y82804
X40640Y92964
X19685Y86614
X23495Y86614
X34417Y94107
X20320Y91313
X20701Y93218
X25908Y94996
X16510Y94869
X23749Y98044
X28829Y96774
X25130Y97155
X38100Y95123
X19050Y99314
X32258Y99314
X64643Y84836
X64643Y83693
X130556Y12192
X56388Y94234
X56388Y92964
X61468Y99314
X60198Y96774
X50038Y98044
X51308Y99314
X51308Y98044
X51308Y84074
X51308Y82804
X51308Y85344
X52578Y84074
X50038Y84074
X67818Y89154
X67183Y87884
X75057Y87884
X86868Y96774
X88138Y96774
X85598Y96774
X86868Y98044
X86868Y95504
X67818Y93218
X52578Y92964
X52578Y94234
X51308Y94234
X51308Y101854
X52578Y101854
X52959Y90424
X84328Y89916
X67818Y90424
X77724Y90424
X77089Y90424
X80137Y84582
X54356Y89574
X75057Y85852
X67056Y85852
X18415Y7112
X54102Y81534
X72009Y81534
X88138Y90932
X55118Y82804
X72390Y84709
X76708Y82804
X86868Y92964
X65913Y86614
X69723Y86614
X80645Y94107
X66548Y91313
X66929Y93218
X72136Y94996
X62738Y94869
X69977Y98044
X75057Y96774
X71358Y97155
X84328Y95123
X65278Y99314
X78486Y99314
X110871Y84836
X110871Y83693
X102616Y95504
X102616Y94234
X102616Y92964
X107696Y99314
X106426Y96774
X96266Y98044
X97536Y99314
X97536Y98044
X97536Y84074
X97536Y82804
X97536Y85344
X98806Y84074
X96266Y84074
X114046Y89154
X113411Y87884
X121285Y87884
X133096Y96774
X134366Y96774
X131826Y96774
X133096Y98044
X133096Y95504
X114046Y93218
X98806Y92964
X98806Y94234
X97536Y94234
X97536Y101854
X98806Y101854
X99187Y90424
X130556Y89916
X114046Y90424
X123952Y90424
X123317Y90424
X126365Y84582
X100584Y89574
X121285Y85852
X113284Y85852
X18415Y5969
X100330Y81534
X118237Y81534
X134366Y90932
X101346Y82804
X118618Y84709
X122936Y82804
X133096Y92964
X112141Y86614
X115951Y86614
X126873Y94107
X112776Y91313
X113157Y93218
X118364Y94996
X108966Y94869
X116205Y98044
X121285Y96774
X117586Y97155
X130556Y95123
X111506Y99314
X124714Y99314
X18415Y110744
X18415Y109601
X10160Y121412
X10160Y120142
X10160Y118872
X15240Y125222
X13970Y122682
X3810Y123952
X5080Y125222
X5080Y123952
X5080Y109982
X5080Y108712
X5080Y111252
X6350Y109982
X3810Y109982
X21590Y115062
X20955Y113792
X28829Y113792
X40640Y122682
X41910Y122682
X39370Y122682
X40640Y123952
X40640Y121412
X21590Y119126
X6350Y118872
X6350Y120142
X5080Y120142
X5080Y127762
X6350Y127762
X6731Y116332
X38100Y115824
X21590Y116332
X31496Y116332
X30861Y116332
X33909Y110490
X8128Y115482
X28829Y111760
X20828Y111760
X10160Y17780
X7874Y107442
X25781Y107442
X41910Y116840
X8890Y108712
X26162Y110617
X30480Y108712
X40640Y118872
X19685Y112522
X23495Y112522
X34417Y120015
X20320Y117221
X20701Y119126
X25908Y120904
X16510Y120777
X23749Y123952
X28829Y122682
X25130Y123063
X38100Y121031
X19050Y125222
X32258Y125222
X64643Y110744
X64643Y109601
X56388Y121412
X56388Y120142
X56388Y118872
X61468Y125222
X60198Y122682
X50038Y123952
X51308Y125222
X51308Y123952
X51308Y109982
X51308Y108712
X51308Y111252
X52578Y109982
X50038Y109982
X67818Y115062
X67183Y113792
X75057Y113792
X86868Y122682
X88138Y122682
X85598Y122682
X86868Y123952
X86868Y121412
X67818Y119126
X52578Y118872
X52578Y120142
X51308Y120142
X51308Y127762
X52578Y127762
X52959Y116332
X84328Y115824
X67818Y116332
X77724Y116332
X77089Y116332
X80137Y110490
X54356Y115482
X75057Y111760
X67056Y111760
X10160Y16510
X54102Y107442
X72009Y107442
X88138Y116840
X55118Y108712
X72390Y110617
X76708Y108712
X86868Y118872
X65913Y112522
X69723Y112522
X80645Y120015
X66548Y117221
X66929Y119126
X72136Y120904
X62738Y120777
X69977Y123952
X75057Y122682
X71358Y123063
X84328Y121031
X65278Y125222
X78486Y125222
X110871Y110744
X110871Y109601
X102616Y121412
X102616Y120142
X102616Y118872
X107696Y125222
X106426Y122682
X96266Y123952
X97536Y125222
X97536Y123952
X97536Y109982
X97536Y108712
X97536Y111252
X98806Y109982
X96266Y109982
X114046Y115062
X113411Y113792
X121285Y113792
X133096Y122682
X134366Y122682
X131826Y122682
X133096Y123952
X133096Y121412
X114046Y119126
X98806Y118872
X98806Y120142
X97536Y120142
X97536Y127762
X98806Y127762
X99187Y116332
X130556Y115824
X114046Y116332
X123952Y116332
X123317Y116332
X126365Y110490
X100584Y115482
X121285Y111760
X113284Y111760
X10160Y15240
X100330Y107442
X118237Y107442
X134366Y116840
X101346Y108712
X118618Y110617
X122936Y108712
X133096Y118872
X112141Y112522
X115951Y112522
X126873Y120015
X112776Y117221
X113157Y119126
X118364Y120904
X108966Y120777
X116205Y123952
X121285Y122682
X117586Y123063
X130556Y121031
X111506Y125222
X124714Y125222
X15240Y21590
X13970Y19050
X3810Y20320
X5080Y21590
X5080Y20320
X5080Y6350
X5080Y5080
X5080Y7620
X6350Y6350
X3810Y6350
X21590Y11430
X20955Y10160
X28829Y10160
X40640Y19050
X41910Y19050
X39370Y19050
X40640Y20320
X40640Y17780
X21590Y15494
X6350Y15240
X6350Y16510
X5080Y16510
X5080Y24130
X6350Y24130
X6731Y12700
X38100Y12192
X21590Y12700
X31496Y12700
X30861Y12700
X33909Y6858
X8128Y11850
X28829Y8128
X20828Y8128
X7874Y3810
X25781Y3810
X41910Y13208
X8890Y5080
X26162Y6985
X30480Y5080
X40640Y15240
X19685Y8890
X23495Y8890
X34417Y16383
X20320Y13589
X20701Y15494
X25908Y17272
X16510Y17145
X23749Y20320
X28829Y19050
X25130Y19431
X38100Y17399
X19050Y21590
X32258Y21590
X64643Y7112
X64643Y5969
X56388Y17780
X56388Y16510
X56388Y15240
X61468Y21590
X60198Y19050
X50038Y20320
X51308Y21590
X51308Y20320
X51308Y6350
X51308Y5080
X51308Y7620
X52578Y6350
X50038Y6350
X67818Y11430
X67183Y10160
X75057Y10160
X86868Y19050
X88138Y19050
X85598Y19050
X86868Y20320
X86868Y17780
X67818Y15494
X52578Y15240
X52578Y16510
X51308Y16510
X51308Y24130
X52578Y24130
X52959Y12700
X84328Y12192
X67818Y12700
X77724Y12700
X77089Y12700
X80137Y6858
X54356Y11850
X75057Y8128
X67056Y8128
X54102Y3810
X72009Y3810
X88138Y13208
X55118Y5080
X72390Y6985
X76708Y5080
X86868Y15240
X65913Y8890
X69723Y8890
X80645Y16383
X66548Y13589
X66929Y15494
X72136Y17272
X62738Y17145
X69977Y20320
X75057Y19050
X71358Y19431
X84328Y17399
X65278Y21590
X78486Y21590
X110871Y7112
X110871Y5969
X102616Y17780
X102616Y16510
X102616Y15240
X107696Y21590
X106426Y19050
X96266Y20320
X97536Y21590
X97536Y20320
X97536Y6350
X97536Y5080
X97536Y7620
X98806Y6350
X96266Y6350
X114046Y11430
X113411Y10160
X121285Y10160
X133096Y19050
X134366Y19050
X131826Y19050
X133096Y20320
X133096Y17780
X114046Y15494
X98806Y15240
X98806Y16510
X97536Y16510
X97536Y24130
X98806Y24130
X99187Y12700
X114046Y12700
X123952Y12700
X123317Y12700
X126365Y6858
X100584Y11850
X121285Y8128
X113284Y8128
X100330Y3810
X118237Y3810
X134366Y13208
X56388Y95504
X101346Y5080
X118618Y6985
X122936Y5080
X133096Y15240
X112141Y8890
X115951Y8890
X126873Y16383
X112776Y13589
X113157Y15494
X118364Y17272
X108966Y17145
X116205Y20320
X121285Y19050
X117586Y19431
X130556Y17399
X111506Y21590
X124714Y21590
X18415Y33020
X18415Y31877
X10160Y43688
X10160Y42418
X10160Y41148
X15240Y47498
X13970Y44958
X3810Y46228
X5080Y47498
X5080Y46228
X5080Y32258
X5080Y30988
X5080Y33528
X6350Y32258
X3810Y32258
X21590Y37338
X20955Y36068
X28829Y36068
X40640Y44958
X41910Y44958
X39370Y44958
X40640Y46228
X40640Y43688
X21590Y41402
X6350Y41148
X6350Y42418
X5080Y42418
X5080Y50038
X6350Y50038
X6731Y38608
X38100Y38100
X21590Y38608
X31496Y38608
X30861Y38608
X33909Y32766
X8128Y37758
X28829Y34036
X20828Y34036
X7874Y29718
X25781Y29718
X41910Y39116
X8890Y30988
X26162Y32893
X30480Y30988
X40640Y41148
X19685Y34798
X23495Y34798
X34417Y42291
X20320Y39497
X20701Y41402
X25908Y43180
X16510Y43053
X23749Y46228
X28829Y44958
X25130Y45339
X38100Y43307
X19050Y47498
X32258Y47498
X64643Y33020
X64643Y31877
X56388Y43688
X56388Y42418
X56388Y41148
X61468Y47498
X60198Y44958
X50038Y46228
X51308Y47498
X51308Y46228
X51308Y32258
X51308Y30988
X51308Y33528
X52578Y32258
X50038Y32258
X67818Y37338
X67183Y36068
X75057Y36068
X86868Y44958
X88138Y44958
X85598Y44958
X86868Y46228
X86868Y43688
X67818Y41402
X52578Y41148
X52578Y42418
X51308Y42418
X51308Y50038
X52578Y50038
X52959Y38608
X84328Y38100
X67818Y38608
X77724Y38608
X77089Y38608
X80137Y32766
X54356Y37758
X75057Y34036
X67056Y34036
X54102Y29718
X72009Y29718
X88138Y39116
X55118Y30988
X72390Y32893
X76708Y30988
X86868Y41148
X65913Y34798
X69723Y34798
X80645Y42291
X66548Y39497
X66929Y41402
X72136Y43180
X62738Y43053
X69977Y46228
X75057Y44958
X71358Y45339
X84328Y43307
X65278Y47498
X78486Y47498
X110871Y33020
X110871Y31877
X102616Y43688
X102616Y42418
X102616Y41148
X107696Y47498
X106426Y44958
X96266Y46228
X97536Y47498
X97536Y46228
X97536Y32258
X97536Y30988
X97536Y33528
X98806Y32258
X96266Y32258
M30