G04 EAGLE Gerber RS-274X export*
G75*
%MOMM*%
%FSLAX34Y34*%
%LPD*%
%INSoldermask Top*%
%IPPOS*%
%AMOC8*
5,1,8,0,0,1.08239X$1,22.5*%
G01*
%ADD10R,1.203200X1.303200*%
%ADD11R,1.303200X1.203200*%
%ADD12R,1.403200X1.003200*%
%ADD13R,2.203200X1.403200*%
%ADD14R,1.553200X0.803200*%
%ADD15C,2.082800*%
%ADD16R,1.003200X2.003200*%
%ADD17R,0.903200X0.903200*%
%ADD18R,0.803200X1.403200*%
%ADD19R,0.603200X1.303200*%
%ADD20R,0.953200X0.903200*%
%ADD21R,1.003200X1.103200*%
%ADD22R,2.003200X1.803200*%
%ADD23R,0.833200X1.033200*%
%ADD24R,1.103200X1.203200*%
%ADD25R,1.103200X1.303200*%
%ADD26C,3.505200*%
%ADD27C,0.505344*%
%ADD28R,1.103200X1.003200*%
%ADD29R,1.003200X0.603200*%
%ADD30C,1.203200*%
%ADD31C,1.270000*%
%ADD32C,1.703200*%


D10*
X120650Y55000D03*
X120650Y72000D03*
D11*
X302650Y190500D03*
X319650Y190500D03*
D10*
X95250Y118500D03*
X95250Y135500D03*
X171450Y72000D03*
X171450Y55000D03*
D12*
X355600Y118000D03*
X355600Y136000D03*
D13*
X14050Y155000D03*
X14050Y99000D03*
D14*
X50800Y142000D03*
X50800Y132000D03*
X50800Y122000D03*
X50800Y112000D03*
D13*
X443150Y99000D03*
X443150Y155000D03*
D14*
X406400Y112000D03*
X406400Y122000D03*
X406400Y132000D03*
X406400Y142000D03*
D15*
X381000Y12700D03*
X355600Y12700D03*
X330200Y12700D03*
X304800Y12700D03*
D16*
X302150Y171450D03*
X320150Y171450D03*
D17*
X228450Y124100D03*
X241450Y124100D03*
X234950Y142600D03*
X228450Y60600D03*
X241450Y60600D03*
X234950Y79100D03*
D11*
X302650Y82550D03*
X319650Y82550D03*
X243450Y101600D03*
X226450Y101600D03*
D10*
X273050Y97400D03*
X273050Y80400D03*
X196850Y72000D03*
X196850Y55000D03*
D11*
X319650Y63500D03*
X302650Y63500D03*
X243450Y38100D03*
X226450Y38100D03*
D10*
X273050Y59300D03*
X273050Y42300D03*
D18*
X120650Y99000D03*
X133350Y99000D03*
X146050Y99000D03*
X158750Y99000D03*
X171450Y99000D03*
X184150Y99000D03*
X196850Y99000D03*
X196850Y155000D03*
X184150Y155000D03*
X171450Y155000D03*
X158750Y155000D03*
X146050Y155000D03*
X133350Y155000D03*
X120650Y155000D03*
D19*
X320900Y149500D03*
X314400Y149500D03*
X307900Y149500D03*
X301400Y149500D03*
X301400Y104500D03*
X307900Y104500D03*
X314400Y104500D03*
X320900Y104500D03*
D20*
X152800Y58500D03*
X139300Y58500D03*
X139300Y68500D03*
X152800Y68500D03*
D21*
X282550Y187800D03*
X263550Y187800D03*
X273050Y166800D03*
D10*
X264160Y145660D03*
X264160Y128660D03*
X281940Y128660D03*
X281940Y145660D03*
D15*
X381000Y241300D03*
X355600Y241300D03*
X330200Y241300D03*
X304800Y241300D03*
D22*
X355600Y96550D03*
X355600Y68550D03*
D11*
X347100Y173990D03*
X364100Y173990D03*
D23*
X344100Y190500D03*
X367100Y190500D03*
X344100Y152400D03*
X367100Y152400D03*
D24*
X123200Y224400D03*
D25*
X156200Y215900D03*
D24*
X123200Y207400D03*
X59700Y224400D03*
D25*
X92700Y215900D03*
D24*
X59700Y207400D03*
D26*
X25400Y228600D03*
X25400Y25400D03*
X431800Y25400D03*
X431800Y228600D03*
D15*
X266700Y241300D03*
X241300Y241300D03*
D11*
X33900Y171450D03*
X16900Y171450D03*
D27*
X20120Y180660D02*
X20120Y187640D01*
X20120Y180660D02*
X13140Y180660D01*
X13140Y187640D01*
X20120Y187640D01*
X20120Y185460D02*
X13140Y185460D01*
X37660Y187640D02*
X37660Y180660D01*
X30680Y180660D01*
X30680Y187640D01*
X37660Y187640D01*
X37660Y185460D02*
X30680Y185460D01*
D28*
X219550Y219100D03*
X219550Y238100D03*
X198550Y228600D03*
D29*
X217550Y190350D03*
X217550Y196850D03*
X217550Y203350D03*
X201550Y203350D03*
X201550Y196850D03*
X201550Y190350D03*
D10*
X254000Y201050D03*
X254000Y218050D03*
D11*
X218050Y176530D03*
X201050Y176530D03*
D10*
X582930Y55000D03*
X582930Y72000D03*
D11*
X764930Y190500D03*
X781930Y190500D03*
D10*
X557530Y118500D03*
X557530Y135500D03*
X633730Y72000D03*
X633730Y55000D03*
D12*
X817880Y118000D03*
X817880Y136000D03*
D13*
X476330Y155000D03*
X476330Y99000D03*
D14*
X513080Y142000D03*
X513080Y132000D03*
X513080Y122000D03*
X513080Y112000D03*
D13*
X905430Y99000D03*
X905430Y155000D03*
D14*
X868680Y112000D03*
X868680Y122000D03*
X868680Y132000D03*
X868680Y142000D03*
D15*
X843280Y12700D03*
X817880Y12700D03*
X792480Y12700D03*
X767080Y12700D03*
D16*
X764430Y171450D03*
X782430Y171450D03*
D17*
X690730Y124100D03*
X703730Y124100D03*
X697230Y142600D03*
X690730Y60600D03*
X703730Y60600D03*
X697230Y79100D03*
D11*
X764930Y82550D03*
X781930Y82550D03*
X705730Y101600D03*
X688730Y101600D03*
D10*
X735330Y97400D03*
X735330Y80400D03*
X659130Y72000D03*
X659130Y55000D03*
D11*
X781930Y63500D03*
X764930Y63500D03*
X705730Y38100D03*
X688730Y38100D03*
D10*
X735330Y59300D03*
X735330Y42300D03*
D18*
X582930Y99000D03*
X595630Y99000D03*
X608330Y99000D03*
X621030Y99000D03*
X633730Y99000D03*
X646430Y99000D03*
X659130Y99000D03*
X659130Y155000D03*
X646430Y155000D03*
X633730Y155000D03*
X621030Y155000D03*
X608330Y155000D03*
X595630Y155000D03*
X582930Y155000D03*
D19*
X783180Y149500D03*
X776680Y149500D03*
X770180Y149500D03*
X763680Y149500D03*
X763680Y104500D03*
X770180Y104500D03*
X776680Y104500D03*
X783180Y104500D03*
D20*
X615080Y58500D03*
X601580Y58500D03*
X601580Y68500D03*
X615080Y68500D03*
D21*
X744830Y187800D03*
X725830Y187800D03*
X735330Y166800D03*
D10*
X726440Y145660D03*
X726440Y128660D03*
X744220Y128660D03*
X744220Y145660D03*
D15*
X843280Y241300D03*
X817880Y241300D03*
X792480Y241300D03*
X767080Y241300D03*
D22*
X817880Y96550D03*
X817880Y68550D03*
D11*
X809380Y173990D03*
X826380Y173990D03*
D23*
X806380Y190500D03*
X829380Y190500D03*
X806380Y152400D03*
X829380Y152400D03*
D24*
X585480Y224400D03*
D25*
X618480Y215900D03*
D24*
X585480Y207400D03*
X521980Y224400D03*
D25*
X554980Y215900D03*
D24*
X521980Y207400D03*
D26*
X487680Y228600D03*
X487680Y25400D03*
X894080Y25400D03*
X894080Y228600D03*
D15*
X728980Y241300D03*
X703580Y241300D03*
D11*
X496180Y171450D03*
X479180Y171450D03*
D27*
X482400Y180660D02*
X482400Y187640D01*
X482400Y180660D02*
X475420Y180660D01*
X475420Y187640D01*
X482400Y187640D01*
X482400Y185460D02*
X475420Y185460D01*
X499940Y187640D02*
X499940Y180660D01*
X492960Y180660D01*
X492960Y187640D01*
X499940Y187640D01*
X499940Y185460D02*
X492960Y185460D01*
D28*
X681830Y219100D03*
X681830Y238100D03*
X660830Y228600D03*
D29*
X679830Y190350D03*
X679830Y196850D03*
X679830Y203350D03*
X663830Y203350D03*
X663830Y196850D03*
X663830Y190350D03*
D10*
X716280Y201050D03*
X716280Y218050D03*
D11*
X680330Y176530D03*
X663330Y176530D03*
D10*
X120650Y314080D03*
X120650Y331080D03*
D11*
X302650Y449580D03*
X319650Y449580D03*
D10*
X95250Y377580D03*
X95250Y394580D03*
X171450Y331080D03*
X171450Y314080D03*
D12*
X355600Y377080D03*
X355600Y395080D03*
D13*
X14050Y414080D03*
X14050Y358080D03*
D14*
X50800Y401080D03*
X50800Y391080D03*
X50800Y381080D03*
X50800Y371080D03*
D13*
X443150Y358080D03*
X443150Y414080D03*
D14*
X406400Y371080D03*
X406400Y381080D03*
X406400Y391080D03*
X406400Y401080D03*
D15*
X381000Y271780D03*
X355600Y271780D03*
X330200Y271780D03*
X304800Y271780D03*
D16*
X302150Y430530D03*
X320150Y430530D03*
D17*
X228450Y383180D03*
X241450Y383180D03*
X234950Y401680D03*
X228450Y319680D03*
X241450Y319680D03*
X234950Y338180D03*
D11*
X302650Y341630D03*
X319650Y341630D03*
X243450Y360680D03*
X226450Y360680D03*
D10*
X273050Y356480D03*
X273050Y339480D03*
X196850Y331080D03*
X196850Y314080D03*
D11*
X319650Y322580D03*
X302650Y322580D03*
X243450Y297180D03*
X226450Y297180D03*
D10*
X273050Y318380D03*
X273050Y301380D03*
D18*
X120650Y358080D03*
X133350Y358080D03*
X146050Y358080D03*
X158750Y358080D03*
X171450Y358080D03*
X184150Y358080D03*
X196850Y358080D03*
X196850Y414080D03*
X184150Y414080D03*
X171450Y414080D03*
X158750Y414080D03*
X146050Y414080D03*
X133350Y414080D03*
X120650Y414080D03*
D19*
X320900Y408580D03*
X314400Y408580D03*
X307900Y408580D03*
X301400Y408580D03*
X301400Y363580D03*
X307900Y363580D03*
X314400Y363580D03*
X320900Y363580D03*
D20*
X152800Y317580D03*
X139300Y317580D03*
X139300Y327580D03*
X152800Y327580D03*
D21*
X282550Y446880D03*
X263550Y446880D03*
X273050Y425880D03*
D10*
X264160Y404740D03*
X264160Y387740D03*
X281940Y387740D03*
X281940Y404740D03*
D15*
X381000Y500380D03*
X355600Y500380D03*
X330200Y500380D03*
X304800Y500380D03*
D22*
X355600Y355630D03*
X355600Y327630D03*
D11*
X347100Y433070D03*
X364100Y433070D03*
D23*
X344100Y449580D03*
X367100Y449580D03*
X344100Y411480D03*
X367100Y411480D03*
D24*
X123200Y483480D03*
D25*
X156200Y474980D03*
D24*
X123200Y466480D03*
X59700Y483480D03*
D25*
X92700Y474980D03*
D24*
X59700Y466480D03*
D26*
X25400Y487680D03*
X25400Y284480D03*
X431800Y284480D03*
X431800Y487680D03*
D15*
X266700Y500380D03*
X241300Y500380D03*
D11*
X33900Y430530D03*
X16900Y430530D03*
D27*
X20120Y439740D02*
X20120Y446720D01*
X20120Y439740D02*
X13140Y439740D01*
X13140Y446720D01*
X20120Y446720D01*
X20120Y444540D02*
X13140Y444540D01*
X37660Y446720D02*
X37660Y439740D01*
X30680Y439740D01*
X30680Y446720D01*
X37660Y446720D01*
X37660Y444540D02*
X30680Y444540D01*
D28*
X219550Y478180D03*
X219550Y497180D03*
X198550Y487680D03*
D29*
X217550Y449430D03*
X217550Y455930D03*
X217550Y462430D03*
X201550Y462430D03*
X201550Y455930D03*
X201550Y449430D03*
D10*
X254000Y460130D03*
X254000Y477130D03*
D11*
X218050Y435610D03*
X201050Y435610D03*
D10*
X582930Y314080D03*
X582930Y331080D03*
D11*
X764930Y449580D03*
X781930Y449580D03*
D10*
X557530Y377580D03*
X557530Y394580D03*
X633730Y331080D03*
X633730Y314080D03*
D12*
X817880Y377080D03*
X817880Y395080D03*
D13*
X476330Y414080D03*
X476330Y358080D03*
D14*
X513080Y401080D03*
X513080Y391080D03*
X513080Y381080D03*
X513080Y371080D03*
D13*
X905430Y358080D03*
X905430Y414080D03*
D14*
X868680Y371080D03*
X868680Y381080D03*
X868680Y391080D03*
X868680Y401080D03*
D15*
X843280Y271780D03*
X817880Y271780D03*
X792480Y271780D03*
X767080Y271780D03*
D16*
X764430Y430530D03*
X782430Y430530D03*
D17*
X690730Y383180D03*
X703730Y383180D03*
X697230Y401680D03*
X690730Y319680D03*
X703730Y319680D03*
X697230Y338180D03*
D11*
X764930Y341630D03*
X781930Y341630D03*
X705730Y360680D03*
X688730Y360680D03*
D10*
X735330Y356480D03*
X735330Y339480D03*
X659130Y331080D03*
X659130Y314080D03*
D11*
X781930Y322580D03*
X764930Y322580D03*
X705730Y297180D03*
X688730Y297180D03*
D10*
X735330Y318380D03*
X735330Y301380D03*
D18*
X582930Y358080D03*
X595630Y358080D03*
X608330Y358080D03*
X621030Y358080D03*
X633730Y358080D03*
X646430Y358080D03*
X659130Y358080D03*
X659130Y414080D03*
X646430Y414080D03*
X633730Y414080D03*
X621030Y414080D03*
X608330Y414080D03*
X595630Y414080D03*
X582930Y414080D03*
D19*
X783180Y408580D03*
X776680Y408580D03*
X770180Y408580D03*
X763680Y408580D03*
X763680Y363580D03*
X770180Y363580D03*
X776680Y363580D03*
X783180Y363580D03*
D20*
X615080Y317580D03*
X601580Y317580D03*
X601580Y327580D03*
X615080Y327580D03*
D21*
X744830Y446880D03*
X725830Y446880D03*
X735330Y425880D03*
D10*
X726440Y404740D03*
X726440Y387740D03*
X744220Y387740D03*
X744220Y404740D03*
D15*
X843280Y500380D03*
X817880Y500380D03*
X792480Y500380D03*
X767080Y500380D03*
D22*
X817880Y355630D03*
X817880Y327630D03*
D11*
X809380Y433070D03*
X826380Y433070D03*
D23*
X806380Y449580D03*
X829380Y449580D03*
X806380Y411480D03*
X829380Y411480D03*
D24*
X585480Y483480D03*
D25*
X618480Y474980D03*
D24*
X585480Y466480D03*
X521980Y483480D03*
D25*
X554980Y474980D03*
D24*
X521980Y466480D03*
D26*
X487680Y487680D03*
X487680Y284480D03*
X894080Y284480D03*
X894080Y487680D03*
D15*
X728980Y500380D03*
X703580Y500380D03*
D11*
X496180Y430530D03*
X479180Y430530D03*
D27*
X482400Y439740D02*
X482400Y446720D01*
X482400Y439740D02*
X475420Y439740D01*
X475420Y446720D01*
X482400Y446720D01*
X482400Y444540D02*
X475420Y444540D01*
X499940Y446720D02*
X499940Y439740D01*
X492960Y439740D01*
X492960Y446720D01*
X499940Y446720D01*
X499940Y444540D02*
X492960Y444540D01*
D28*
X681830Y478180D03*
X681830Y497180D03*
X660830Y487680D03*
D29*
X679830Y449430D03*
X679830Y455930D03*
X679830Y462430D03*
X663830Y462430D03*
X663830Y455930D03*
X663830Y449430D03*
D10*
X716280Y460130D03*
X716280Y477130D03*
D11*
X680330Y435610D03*
X663330Y435610D03*
D10*
X120650Y573160D03*
X120650Y590160D03*
D11*
X302650Y708660D03*
X319650Y708660D03*
D10*
X95250Y636660D03*
X95250Y653660D03*
X171450Y590160D03*
X171450Y573160D03*
D12*
X355600Y636160D03*
X355600Y654160D03*
D13*
X14050Y673160D03*
X14050Y617160D03*
D14*
X50800Y660160D03*
X50800Y650160D03*
X50800Y640160D03*
X50800Y630160D03*
D13*
X443150Y617160D03*
X443150Y673160D03*
D14*
X406400Y630160D03*
X406400Y640160D03*
X406400Y650160D03*
X406400Y660160D03*
D15*
X381000Y530860D03*
X355600Y530860D03*
X330200Y530860D03*
X304800Y530860D03*
D16*
X302150Y689610D03*
X320150Y689610D03*
D17*
X228450Y642260D03*
X241450Y642260D03*
X234950Y660760D03*
X228450Y578760D03*
X241450Y578760D03*
X234950Y597260D03*
D11*
X302650Y600710D03*
X319650Y600710D03*
X243450Y619760D03*
X226450Y619760D03*
D10*
X273050Y615560D03*
X273050Y598560D03*
X196850Y590160D03*
X196850Y573160D03*
D11*
X319650Y581660D03*
X302650Y581660D03*
X243450Y556260D03*
X226450Y556260D03*
D10*
X273050Y577460D03*
X273050Y560460D03*
D18*
X120650Y617160D03*
X133350Y617160D03*
X146050Y617160D03*
X158750Y617160D03*
X171450Y617160D03*
X184150Y617160D03*
X196850Y617160D03*
X196850Y673160D03*
X184150Y673160D03*
X171450Y673160D03*
X158750Y673160D03*
X146050Y673160D03*
X133350Y673160D03*
X120650Y673160D03*
D19*
X320900Y667660D03*
X314400Y667660D03*
X307900Y667660D03*
X301400Y667660D03*
X301400Y622660D03*
X307900Y622660D03*
X314400Y622660D03*
X320900Y622660D03*
D20*
X152800Y576660D03*
X139300Y576660D03*
X139300Y586660D03*
X152800Y586660D03*
D21*
X282550Y705960D03*
X263550Y705960D03*
X273050Y684960D03*
D10*
X264160Y663820D03*
X264160Y646820D03*
X281940Y646820D03*
X281940Y663820D03*
D15*
X381000Y759460D03*
X355600Y759460D03*
X330200Y759460D03*
X304800Y759460D03*
D22*
X355600Y614710D03*
X355600Y586710D03*
D11*
X347100Y692150D03*
X364100Y692150D03*
D23*
X344100Y708660D03*
X367100Y708660D03*
X344100Y670560D03*
X367100Y670560D03*
D24*
X123200Y742560D03*
D25*
X156200Y734060D03*
D24*
X123200Y725560D03*
X59700Y742560D03*
D25*
X92700Y734060D03*
D24*
X59700Y725560D03*
D26*
X25400Y746760D03*
X25400Y543560D03*
X431800Y543560D03*
X431800Y746760D03*
D15*
X266700Y759460D03*
X241300Y759460D03*
D11*
X33900Y689610D03*
X16900Y689610D03*
D27*
X20120Y698820D02*
X20120Y705800D01*
X20120Y698820D02*
X13140Y698820D01*
X13140Y705800D01*
X20120Y705800D01*
X20120Y703620D02*
X13140Y703620D01*
X37660Y705800D02*
X37660Y698820D01*
X30680Y698820D01*
X30680Y705800D01*
X37660Y705800D01*
X37660Y703620D02*
X30680Y703620D01*
D28*
X219550Y737260D03*
X219550Y756260D03*
X198550Y746760D03*
D29*
X217550Y708510D03*
X217550Y715010D03*
X217550Y721510D03*
X201550Y721510D03*
X201550Y715010D03*
X201550Y708510D03*
D10*
X254000Y719210D03*
X254000Y736210D03*
D11*
X218050Y694690D03*
X201050Y694690D03*
D10*
X582930Y573160D03*
X582930Y590160D03*
D11*
X764930Y708660D03*
X781930Y708660D03*
D10*
X557530Y636660D03*
X557530Y653660D03*
X633730Y590160D03*
X633730Y573160D03*
D12*
X817880Y636160D03*
X817880Y654160D03*
D13*
X476330Y673160D03*
X476330Y617160D03*
D14*
X513080Y660160D03*
X513080Y650160D03*
X513080Y640160D03*
X513080Y630160D03*
D13*
X905430Y617160D03*
X905430Y673160D03*
D14*
X868680Y630160D03*
X868680Y640160D03*
X868680Y650160D03*
X868680Y660160D03*
D15*
X843280Y530860D03*
X817880Y530860D03*
X792480Y530860D03*
X767080Y530860D03*
D16*
X764430Y689610D03*
X782430Y689610D03*
D17*
X690730Y642260D03*
X703730Y642260D03*
X697230Y660760D03*
X690730Y578760D03*
X703730Y578760D03*
X697230Y597260D03*
D11*
X764930Y600710D03*
X781930Y600710D03*
X705730Y619760D03*
X688730Y619760D03*
D10*
X735330Y615560D03*
X735330Y598560D03*
X659130Y590160D03*
X659130Y573160D03*
D11*
X781930Y581660D03*
X764930Y581660D03*
X705730Y556260D03*
X688730Y556260D03*
D10*
X735330Y577460D03*
X735330Y560460D03*
D18*
X582930Y617160D03*
X595630Y617160D03*
X608330Y617160D03*
X621030Y617160D03*
X633730Y617160D03*
X646430Y617160D03*
X659130Y617160D03*
X659130Y673160D03*
X646430Y673160D03*
X633730Y673160D03*
X621030Y673160D03*
X608330Y673160D03*
X595630Y673160D03*
X582930Y673160D03*
D19*
X783180Y667660D03*
X776680Y667660D03*
X770180Y667660D03*
X763680Y667660D03*
X763680Y622660D03*
X770180Y622660D03*
X776680Y622660D03*
X783180Y622660D03*
D20*
X615080Y576660D03*
X601580Y576660D03*
X601580Y586660D03*
X615080Y586660D03*
D21*
X744830Y705960D03*
X725830Y705960D03*
X735330Y684960D03*
D10*
X726440Y663820D03*
X726440Y646820D03*
X744220Y646820D03*
X744220Y663820D03*
D15*
X843280Y759460D03*
X817880Y759460D03*
X792480Y759460D03*
X767080Y759460D03*
D22*
X817880Y614710D03*
X817880Y586710D03*
D11*
X809380Y692150D03*
X826380Y692150D03*
D23*
X806380Y708660D03*
X829380Y708660D03*
X806380Y670560D03*
X829380Y670560D03*
D24*
X585480Y742560D03*
D25*
X618480Y734060D03*
D24*
X585480Y725560D03*
X521980Y742560D03*
D25*
X554980Y734060D03*
D24*
X521980Y725560D03*
D26*
X487680Y746760D03*
X487680Y543560D03*
X894080Y543560D03*
X894080Y746760D03*
D15*
X728980Y759460D03*
X703580Y759460D03*
D11*
X496180Y689610D03*
X479180Y689610D03*
D27*
X482400Y698820D02*
X482400Y705800D01*
X482400Y698820D02*
X475420Y698820D01*
X475420Y705800D01*
X482400Y705800D01*
X482400Y703620D02*
X475420Y703620D01*
X499940Y705800D02*
X499940Y698820D01*
X492960Y698820D01*
X492960Y705800D01*
X499940Y705800D01*
X499940Y703620D02*
X492960Y703620D01*
D28*
X681830Y737260D03*
X681830Y756260D03*
X660830Y746760D03*
D29*
X679830Y708510D03*
X679830Y715010D03*
X679830Y721510D03*
X663830Y721510D03*
X663830Y715010D03*
X663830Y708510D03*
D10*
X716280Y719210D03*
X716280Y736210D03*
D11*
X680330Y694690D03*
X663330Y694690D03*
D10*
X120650Y832240D03*
X120650Y849240D03*
D11*
X302650Y967740D03*
X319650Y967740D03*
D10*
X95250Y895740D03*
X95250Y912740D03*
X171450Y849240D03*
X171450Y832240D03*
D12*
X355600Y895240D03*
X355600Y913240D03*
D13*
X14050Y932240D03*
X14050Y876240D03*
D14*
X50800Y919240D03*
X50800Y909240D03*
X50800Y899240D03*
X50800Y889240D03*
D13*
X443150Y876240D03*
X443150Y932240D03*
D14*
X406400Y889240D03*
X406400Y899240D03*
X406400Y909240D03*
X406400Y919240D03*
D15*
X381000Y789940D03*
X355600Y789940D03*
X330200Y789940D03*
X304800Y789940D03*
D16*
X302150Y948690D03*
X320150Y948690D03*
D17*
X228450Y901340D03*
X241450Y901340D03*
X234950Y919840D03*
X228450Y837840D03*
X241450Y837840D03*
X234950Y856340D03*
D11*
X302650Y859790D03*
X319650Y859790D03*
X243450Y878840D03*
X226450Y878840D03*
D10*
X273050Y874640D03*
X273050Y857640D03*
X196850Y849240D03*
X196850Y832240D03*
D11*
X319650Y840740D03*
X302650Y840740D03*
X243450Y815340D03*
X226450Y815340D03*
D10*
X273050Y836540D03*
X273050Y819540D03*
D18*
X120650Y876240D03*
X133350Y876240D03*
X146050Y876240D03*
X158750Y876240D03*
X171450Y876240D03*
X184150Y876240D03*
X196850Y876240D03*
X196850Y932240D03*
X184150Y932240D03*
X171450Y932240D03*
X158750Y932240D03*
X146050Y932240D03*
X133350Y932240D03*
X120650Y932240D03*
D19*
X320900Y926740D03*
X314400Y926740D03*
X307900Y926740D03*
X301400Y926740D03*
X301400Y881740D03*
X307900Y881740D03*
X314400Y881740D03*
X320900Y881740D03*
D20*
X152800Y835740D03*
X139300Y835740D03*
X139300Y845740D03*
X152800Y845740D03*
D21*
X282550Y965040D03*
X263550Y965040D03*
X273050Y944040D03*
D10*
X264160Y922900D03*
X264160Y905900D03*
X281940Y905900D03*
X281940Y922900D03*
D15*
X381000Y1018540D03*
X355600Y1018540D03*
X330200Y1018540D03*
X304800Y1018540D03*
D22*
X355600Y873790D03*
X355600Y845790D03*
D11*
X347100Y951230D03*
X364100Y951230D03*
D23*
X344100Y967740D03*
X367100Y967740D03*
X344100Y929640D03*
X367100Y929640D03*
D24*
X123200Y1001640D03*
D25*
X156200Y993140D03*
D24*
X123200Y984640D03*
X59700Y1001640D03*
D25*
X92700Y993140D03*
D24*
X59700Y984640D03*
D26*
X25400Y1005840D03*
X25400Y802640D03*
X431800Y802640D03*
X431800Y1005840D03*
D15*
X266700Y1018540D03*
X241300Y1018540D03*
D11*
X33900Y948690D03*
X16900Y948690D03*
D27*
X20120Y957900D02*
X20120Y964880D01*
X20120Y957900D02*
X13140Y957900D01*
X13140Y964880D01*
X20120Y964880D01*
X20120Y962700D02*
X13140Y962700D01*
X37660Y964880D02*
X37660Y957900D01*
X30680Y957900D01*
X30680Y964880D01*
X37660Y964880D01*
X37660Y962700D02*
X30680Y962700D01*
D28*
X219550Y996340D03*
X219550Y1015340D03*
X198550Y1005840D03*
D29*
X217550Y967590D03*
X217550Y974090D03*
X217550Y980590D03*
X201550Y980590D03*
X201550Y974090D03*
X201550Y967590D03*
D10*
X254000Y978290D03*
X254000Y995290D03*
D11*
X218050Y953770D03*
X201050Y953770D03*
D10*
X582930Y832240D03*
X582930Y849240D03*
D11*
X764930Y967740D03*
X781930Y967740D03*
D10*
X557530Y895740D03*
X557530Y912740D03*
X633730Y849240D03*
X633730Y832240D03*
D12*
X817880Y895240D03*
X817880Y913240D03*
D13*
X476330Y932240D03*
X476330Y876240D03*
D14*
X513080Y919240D03*
X513080Y909240D03*
X513080Y899240D03*
X513080Y889240D03*
D13*
X905430Y876240D03*
X905430Y932240D03*
D14*
X868680Y889240D03*
X868680Y899240D03*
X868680Y909240D03*
X868680Y919240D03*
D15*
X843280Y789940D03*
X817880Y789940D03*
X792480Y789940D03*
X767080Y789940D03*
D16*
X764430Y948690D03*
X782430Y948690D03*
D17*
X690730Y901340D03*
X703730Y901340D03*
X697230Y919840D03*
X690730Y837840D03*
X703730Y837840D03*
X697230Y856340D03*
D11*
X764930Y859790D03*
X781930Y859790D03*
X705730Y878840D03*
X688730Y878840D03*
D10*
X735330Y874640D03*
X735330Y857640D03*
X659130Y849240D03*
X659130Y832240D03*
D11*
X781930Y840740D03*
X764930Y840740D03*
X705730Y815340D03*
X688730Y815340D03*
D10*
X735330Y836540D03*
X735330Y819540D03*
D18*
X582930Y876240D03*
X595630Y876240D03*
X608330Y876240D03*
X621030Y876240D03*
X633730Y876240D03*
X646430Y876240D03*
X659130Y876240D03*
X659130Y932240D03*
X646430Y932240D03*
X633730Y932240D03*
X621030Y932240D03*
X608330Y932240D03*
X595630Y932240D03*
X582930Y932240D03*
D19*
X783180Y926740D03*
X776680Y926740D03*
X770180Y926740D03*
X763680Y926740D03*
X763680Y881740D03*
X770180Y881740D03*
X776680Y881740D03*
X783180Y881740D03*
D20*
X615080Y835740D03*
X601580Y835740D03*
X601580Y845740D03*
X615080Y845740D03*
D21*
X744830Y965040D03*
X725830Y965040D03*
X735330Y944040D03*
D10*
X726440Y922900D03*
X726440Y905900D03*
X744220Y905900D03*
X744220Y922900D03*
D15*
X843280Y1018540D03*
X817880Y1018540D03*
X792480Y1018540D03*
X767080Y1018540D03*
D22*
X817880Y873790D03*
X817880Y845790D03*
D11*
X809380Y951230D03*
X826380Y951230D03*
D23*
X806380Y967740D03*
X829380Y967740D03*
X806380Y929640D03*
X829380Y929640D03*
D24*
X585480Y1001640D03*
D25*
X618480Y993140D03*
D24*
X585480Y984640D03*
X521980Y1001640D03*
D25*
X554980Y993140D03*
D24*
X521980Y984640D03*
D26*
X487680Y1005840D03*
X487680Y802640D03*
X894080Y802640D03*
X894080Y1005840D03*
D15*
X728980Y1018540D03*
X703580Y1018540D03*
D11*
X496180Y948690D03*
X479180Y948690D03*
D27*
X482400Y957900D02*
X482400Y964880D01*
X482400Y957900D02*
X475420Y957900D01*
X475420Y964880D01*
X482400Y964880D01*
X482400Y962700D02*
X475420Y962700D01*
X499940Y964880D02*
X499940Y957900D01*
X492960Y957900D01*
X492960Y964880D01*
X499940Y964880D01*
X499940Y962700D02*
X492960Y962700D01*
D28*
X681830Y996340D03*
X681830Y1015340D03*
X660830Y1005840D03*
D29*
X679830Y967590D03*
X679830Y974090D03*
X679830Y980590D03*
X663830Y980590D03*
X663830Y974090D03*
X663830Y967590D03*
D10*
X716280Y978290D03*
X716280Y995290D03*
D11*
X680330Y953770D03*
X663330Y953770D03*
D30*
X68580Y1052195D03*
X850265Y1052195D03*
D31*
X59525Y-20955D02*
X59528Y-20733D01*
X59536Y-20511D01*
X59550Y-20289D01*
X59569Y-20067D01*
X59593Y-19847D01*
X59623Y-19626D01*
X59658Y-19407D01*
X59699Y-19188D01*
X59745Y-18971D01*
X59796Y-18755D01*
X59853Y-18540D01*
X59915Y-18326D01*
X59982Y-18115D01*
X60054Y-17904D01*
X60132Y-17696D01*
X60214Y-17490D01*
X60302Y-17286D01*
X60394Y-17083D01*
X60492Y-16884D01*
X60594Y-16687D01*
X60701Y-16492D01*
X60813Y-16300D01*
X60930Y-16111D01*
X61051Y-15924D01*
X61177Y-15741D01*
X61307Y-15561D01*
X61442Y-15384D01*
X61580Y-15211D01*
X61723Y-15041D01*
X61871Y-14874D01*
X62022Y-14711D01*
X62177Y-14552D01*
X62336Y-14397D01*
X62499Y-14246D01*
X62666Y-14098D01*
X62836Y-13955D01*
X63009Y-13817D01*
X63186Y-13682D01*
X63366Y-13552D01*
X63549Y-13426D01*
X63736Y-13305D01*
X63925Y-13188D01*
X64117Y-13076D01*
X64312Y-12969D01*
X64509Y-12867D01*
X64708Y-12769D01*
X64911Y-12677D01*
X65115Y-12589D01*
X65321Y-12507D01*
X65529Y-12429D01*
X65740Y-12357D01*
X65951Y-12290D01*
X66165Y-12228D01*
X66380Y-12171D01*
X66596Y-12120D01*
X66813Y-12074D01*
X67032Y-12033D01*
X67251Y-11998D01*
X67472Y-11968D01*
X67692Y-11944D01*
X67914Y-11925D01*
X68136Y-11911D01*
X68358Y-11903D01*
X68580Y-11900D01*
X68802Y-11903D01*
X69024Y-11911D01*
X69246Y-11925D01*
X69468Y-11944D01*
X69688Y-11968D01*
X69909Y-11998D01*
X70128Y-12033D01*
X70347Y-12074D01*
X70564Y-12120D01*
X70780Y-12171D01*
X70995Y-12228D01*
X71209Y-12290D01*
X71420Y-12357D01*
X71631Y-12429D01*
X71839Y-12507D01*
X72045Y-12589D01*
X72249Y-12677D01*
X72452Y-12769D01*
X72651Y-12867D01*
X72848Y-12969D01*
X73043Y-13076D01*
X73235Y-13188D01*
X73424Y-13305D01*
X73611Y-13426D01*
X73794Y-13552D01*
X73974Y-13682D01*
X74151Y-13817D01*
X74324Y-13955D01*
X74494Y-14098D01*
X74661Y-14246D01*
X74824Y-14397D01*
X74983Y-14552D01*
X75138Y-14711D01*
X75289Y-14874D01*
X75437Y-15041D01*
X75580Y-15211D01*
X75718Y-15384D01*
X75853Y-15561D01*
X75983Y-15741D01*
X76109Y-15924D01*
X76230Y-16111D01*
X76347Y-16300D01*
X76459Y-16492D01*
X76566Y-16687D01*
X76668Y-16884D01*
X76766Y-17083D01*
X76858Y-17286D01*
X76946Y-17490D01*
X77028Y-17696D01*
X77106Y-17904D01*
X77178Y-18115D01*
X77245Y-18326D01*
X77307Y-18540D01*
X77364Y-18755D01*
X77415Y-18971D01*
X77461Y-19188D01*
X77502Y-19407D01*
X77537Y-19626D01*
X77567Y-19847D01*
X77591Y-20067D01*
X77610Y-20289D01*
X77624Y-20511D01*
X77632Y-20733D01*
X77635Y-20955D01*
X77632Y-21177D01*
X77624Y-21399D01*
X77610Y-21621D01*
X77591Y-21843D01*
X77567Y-22063D01*
X77537Y-22284D01*
X77502Y-22503D01*
X77461Y-22722D01*
X77415Y-22939D01*
X77364Y-23155D01*
X77307Y-23370D01*
X77245Y-23584D01*
X77178Y-23795D01*
X77106Y-24006D01*
X77028Y-24214D01*
X76946Y-24420D01*
X76858Y-24624D01*
X76766Y-24827D01*
X76668Y-25026D01*
X76566Y-25223D01*
X76459Y-25418D01*
X76347Y-25610D01*
X76230Y-25799D01*
X76109Y-25986D01*
X75983Y-26169D01*
X75853Y-26349D01*
X75718Y-26526D01*
X75580Y-26699D01*
X75437Y-26869D01*
X75289Y-27036D01*
X75138Y-27199D01*
X74983Y-27358D01*
X74824Y-27513D01*
X74661Y-27664D01*
X74494Y-27812D01*
X74324Y-27955D01*
X74151Y-28093D01*
X73974Y-28228D01*
X73794Y-28358D01*
X73611Y-28484D01*
X73424Y-28605D01*
X73235Y-28722D01*
X73043Y-28834D01*
X72848Y-28941D01*
X72651Y-29043D01*
X72452Y-29141D01*
X72249Y-29233D01*
X72045Y-29321D01*
X71839Y-29403D01*
X71631Y-29481D01*
X71420Y-29553D01*
X71209Y-29620D01*
X70995Y-29682D01*
X70780Y-29739D01*
X70564Y-29790D01*
X70347Y-29836D01*
X70128Y-29877D01*
X69909Y-29912D01*
X69688Y-29942D01*
X69468Y-29966D01*
X69246Y-29985D01*
X69024Y-29999D01*
X68802Y-30007D01*
X68580Y-30010D01*
X68358Y-30007D01*
X68136Y-29999D01*
X67914Y-29985D01*
X67692Y-29966D01*
X67472Y-29942D01*
X67251Y-29912D01*
X67032Y-29877D01*
X66813Y-29836D01*
X66596Y-29790D01*
X66380Y-29739D01*
X66165Y-29682D01*
X65951Y-29620D01*
X65740Y-29553D01*
X65529Y-29481D01*
X65321Y-29403D01*
X65115Y-29321D01*
X64911Y-29233D01*
X64708Y-29141D01*
X64509Y-29043D01*
X64312Y-28941D01*
X64117Y-28834D01*
X63925Y-28722D01*
X63736Y-28605D01*
X63549Y-28484D01*
X63366Y-28358D01*
X63186Y-28228D01*
X63009Y-28093D01*
X62836Y-27955D01*
X62666Y-27812D01*
X62499Y-27664D01*
X62336Y-27513D01*
X62177Y-27358D01*
X62022Y-27199D01*
X61871Y-27036D01*
X61723Y-26869D01*
X61580Y-26699D01*
X61442Y-26526D01*
X61307Y-26349D01*
X61177Y-26169D01*
X61051Y-25986D01*
X60930Y-25799D01*
X60813Y-25610D01*
X60701Y-25418D01*
X60594Y-25223D01*
X60492Y-25026D01*
X60394Y-24827D01*
X60302Y-24624D01*
X60214Y-24420D01*
X60132Y-24214D01*
X60054Y-24006D01*
X59982Y-23795D01*
X59915Y-23584D01*
X59853Y-23370D01*
X59796Y-23155D01*
X59745Y-22939D01*
X59699Y-22722D01*
X59658Y-22503D01*
X59623Y-22284D01*
X59593Y-22063D01*
X59569Y-21843D01*
X59550Y-21621D01*
X59536Y-21399D01*
X59528Y-21177D01*
X59525Y-20955D01*
D32*
X68580Y-20955D03*
M02*
