M48
;GenerationSoftware,Autodesk,EAGLE,9.5.2*%
;CreationDate,2021-11-13T22:23:18Z*%
FMAT,2
ICI,OFF
METRIC,TZ,000.000
T5C0.300
T4C0.305
T3C0.508
T2C1.016
T1C3.302
%
G90
M71
T1
X89408Y54356
X48768Y54356
X89408Y22860
X2540Y54356
X48768Y28448
X89408Y2540
X48768Y2540
X48768Y22860
X43180Y22860
X43180Y2540
X89408Y48768
X2540Y2540
X2540Y22860
X2540Y74676
X48768Y74676
X43180Y74676
X43180Y54356
X89408Y28448
X48768Y48768
X43180Y48768
X43180Y28448
X89408Y100584
X89408Y80264
X2540Y28448
X2540Y48768
X48768Y80264
X48768Y100584
X43180Y100584
X43180Y80264
X2540Y80264
X2540Y100584
X89408Y74676
T2
X26670Y75946
X30480Y75946
X33020Y75946
X35560Y75946
X38100Y75946
X30480Y53086
X33020Y53086
X35560Y53086
X38100Y53086
X35560Y50038
X38100Y50038
X33020Y27178
X35560Y27178
X38100Y27178
X70358Y50038
X72898Y50038
X76708Y50038
X79248Y50038
X81788Y50038
X84328Y50038
X76708Y27178
X79248Y27178
X81788Y27178
X84328Y27178
X30480Y27178
X26670Y50038
X70358Y101854
X70358Y75946
X72898Y75946
X76708Y75946
X70358Y24130
X72898Y24130
X76708Y24130
X79248Y24130
X81788Y24130
X84328Y24130
X76708Y1270
X79248Y1270
X81788Y1270
X84328Y1270
X24130Y24130
X26670Y24130
X30480Y24130
X33020Y24130
X35560Y24130
X38100Y24130
X30480Y1270
X33020Y1270
X35560Y1270
X38100Y1270
X81788Y78994
X79248Y75946
X81788Y75946
X84328Y75946
X76708Y53086
X79248Y53086
X81788Y53086
X84328Y53086
X24130Y50038
X30480Y50038
X33020Y50038
X24130Y75946
X72898Y101854
X76708Y101854
X79248Y101854
X81788Y101854
X84328Y101854
X76708Y78994
X79248Y78994
X84328Y78994
X24130Y101854
X26670Y101854
X30480Y101854
X33020Y101854
X35560Y101854
X38100Y101854
X30480Y78994
X33020Y78994
X35560Y78994
X38100Y78994
T3
X18415Y39878
X59563Y37338
X15875Y91694
X18415Y11430
X18415Y13970
X15875Y11430
X15875Y13970
X13335Y89154
X13335Y13970
X13335Y91694
X64643Y63246
X15875Y37338
X15875Y39878
X13335Y37338
X13335Y39878
X64643Y65786
X62103Y63246
X62103Y65786
X59563Y63246
X59563Y65786
X18415Y63246
X18415Y65786
X15875Y63246
X15875Y65786
X13335Y63246
X64643Y11430
X64643Y13970
X13335Y11430
X62103Y11430
X64643Y89154
X64643Y91694
X62103Y89154
X62103Y91694
X59563Y89154
X59563Y91694
X62103Y13970
X59563Y11430
X59563Y13970
X13335Y65786
X64643Y37338
X64643Y39878
X62103Y37338
X62103Y39878
X59563Y39878
X18415Y37338
X18415Y89154
X18415Y91694
X15875Y89154
T4
X67183Y70358
X66040Y73660
X62611Y69723
X71247Y67056
X73533Y69596
X74422Y67564
X84328Y69596
X71628Y70596
X67183Y72898
X63373Y68834
X67183Y18542
X66040Y21844
X79502Y68834
X20955Y96266
X16383Y95631
X25019Y92964
X27305Y95504
X28194Y93472
X38100Y95504
X25400Y96504
X20955Y98806
X17145Y94742
X33274Y94742
X67183Y96266
X62611Y17907
X71247Y15240
X73533Y17780
X74422Y15748
X84328Y17780
X71628Y18780
X67183Y21082
X63373Y17018
X79502Y17018
X66040Y99568
X62611Y95631
X71247Y92964
X73533Y95504
X74422Y93472
X20955Y18542
X19812Y21844
X84328Y95504
X71628Y96504
X63373Y94742
X79502Y94742
X67183Y98806
X20955Y44450
X19812Y47752
X16383Y43815
X25019Y41148
X27305Y43688
X28194Y41656
X38100Y43688
X16383Y17907
X25019Y15240
X27305Y17780
X28194Y15748
X38100Y17780
X25400Y18780
X20955Y21082
X17145Y17018
X33274Y17018
X25400Y44688
X20955Y46990
X17145Y42926
X33274Y42926
X67183Y44450
X66040Y47752
X62611Y43815
X71247Y41148
X73533Y43688
X74422Y41656
X84328Y43688
X71628Y44688
X67183Y46990
X63373Y42926
X79502Y42926
X20955Y70358
X19812Y73660
X16383Y69723
X25019Y67056
X27305Y69596
X28194Y67564
X38100Y69596
X25400Y70596
X20955Y72898
X17145Y68834
X33274Y68834
X19812Y99568
T5
X18415Y7112
X18415Y5969
X10160Y17780
X10160Y16510
X10160Y15240
X13970Y21590
X12700Y19050
X1270Y20320
X8890Y16510
X3810Y20320
X5080Y6350
X5080Y5080
X5080Y7620
X6350Y6350
X3810Y6350
X21590Y11430
X20955Y10160
X28829Y10160
X40640Y19050
X41910Y19050
X39370Y19050
X40640Y20320
X40640Y17780
X21590Y15494
X6350Y15240
X6350Y16510
X5080Y16510
X5080Y24130
X10160Y22860
X6731Y12700
X38100Y12192
X21590Y12700
X31496Y12700
X30861Y12700
X33909Y6858
X8128Y11850
X28829Y8128
X20828Y8128
X7874Y3810
X25781Y3810
X41910Y13208
X8890Y5080
X26162Y6985
X30480Y5080
X40640Y15240
X19685Y8890
X23495Y8890
X34417Y16383
X20320Y13589
X20701Y15494
X64643Y7112
X64643Y5969
X56388Y17780
X56388Y16510
X56388Y15240
X60198Y21590
X58928Y19050
X47498Y20320
X55118Y16510
X50038Y20320
X51308Y6350
X51308Y5080
X51308Y7620
X52578Y6350
X50038Y6350
X67818Y11430
X67183Y10160
X75057Y10160
X86868Y19050
X88138Y19050
X86868Y20320
X86868Y17780
X67818Y15494
X52578Y15240
X52578Y16510
X51308Y16510
X51308Y24130
X56388Y22860
X52959Y12700
X84328Y12192
X67818Y12700
X77724Y12700
X77089Y12700
X80137Y6858
X54356Y11850
X75057Y8128
X67056Y8128
X54102Y3810
X72009Y3810
X88138Y13208
X55118Y5080
X72390Y6985
X76708Y5080
X86868Y15240
X65913Y8890
X69723Y8890
X80645Y16383
X66548Y13589
X66929Y15494
X18415Y33020
X18415Y31877
X10160Y43688
X10160Y42418
X10160Y41148
X13970Y47498
X12700Y44958
X1270Y46228
X8890Y42418
X3810Y46228
X86868Y69596
X67818Y67310
X52578Y67056
X52578Y68326
X51308Y68326
X51308Y75946
X56388Y74676
X52959Y64516
X84328Y64008
X18415Y84836
X18415Y83693
X10160Y95504
X10160Y94234
X10160Y92964
X13970Y99314
X12700Y96774
X1270Y98044
X8890Y94234
X3810Y98044
X5080Y84074
X5080Y82804
X5080Y85344
X6350Y84074
X3810Y84074
X21590Y89154
X20955Y87884
X28829Y87884
X40640Y96774
X41910Y96774
X39370Y96774
X40640Y98044
X40640Y95504
X21590Y93218
X6350Y92964
X6350Y94234
X5080Y94234
X5080Y101854
X10160Y100584
X6731Y90424
X38100Y89916
X21590Y90424
X31496Y90424
X30861Y90424
X33909Y84582
X8128Y89574
X28829Y85852
X20828Y85852
X67818Y64516
X88138Y70866
X7874Y81534
X25781Y81534
X41910Y90932
X8890Y82804
X26162Y84709
X30480Y82804
X40640Y92964
X19685Y86614
X23495Y86614
X34417Y94107
X20320Y91313
X20701Y93218
X77724Y64516
X77089Y64516
X80137Y58674
X54356Y63666
X75057Y59944
X67056Y59944
X85598Y70866
X86868Y72136
X54102Y55626
X64643Y84836
X64643Y83693
X56388Y95504
X56388Y94234
X56388Y92964
X60198Y99314
X58928Y96774
X47498Y98044
X55118Y94234
X50038Y98044
X51308Y84074
X51308Y82804
X51308Y85344
X52578Y84074
X50038Y84074
X67818Y89154
X67183Y87884
X75057Y87884
X86868Y96774
X88138Y96774
X85598Y96774
X86868Y98044
X86868Y95504
X67818Y93218
X52578Y92964
X52578Y94234
X51308Y94234
X51308Y101854
X56388Y100584
X52959Y90424
X84328Y89916
X67818Y90424
X77724Y90424
X77089Y90424
X80137Y84582
X54356Y89574
X75057Y85852
X67056Y85852
X72009Y55626
X88138Y65024
X54102Y81534
X72009Y81534
X88138Y90932
X55118Y82804
X72390Y84709
X76708Y82804
X86868Y92964
X65913Y86614
X69723Y86614
X80645Y94107
X66548Y91313
X66929Y93218
X55118Y56896
X72390Y58801
X76708Y56896
X86868Y67056
X65913Y60706
X69723Y60706
X86868Y70866
X80645Y68199
X66548Y65405
X75057Y61976
X67183Y61976
X67818Y63246
X50038Y58166
X52578Y58166
X51308Y59436
X51308Y56896
X51308Y58166
X50038Y72136
X55118Y68326
X47498Y72136
X58928Y70866
X60198Y73406
X56388Y67056
X56388Y68326
X56388Y69596
X64643Y57785
X64643Y58928
X20701Y67310
X20320Y65405
X34417Y68199
X23495Y60706
X19685Y60706
X40640Y67056
X30480Y56896
X26162Y58801
X8890Y56896
X41910Y65024
X25781Y55626
X7874Y55626
X20828Y59944
X28829Y59944
X8128Y63666
X33909Y58674
X30861Y64516
X31496Y64516
X21590Y64516
X38100Y64008
X6731Y64516
X10160Y74676
X5080Y75946
X5080Y68326
X6350Y68326
X6350Y67056
X21590Y67310
X40640Y69596
X40640Y72136
X39370Y70866
X41910Y70866
X40640Y70866
X28829Y61976
X20955Y61976
X21590Y63246
X3810Y58166
X6350Y58166
X5080Y59436
X5080Y56896
X5080Y58166
X3810Y72136
X8890Y68326
X1270Y72136
X12700Y70866
X13970Y73406
X10160Y67056
X10160Y68326
X10160Y69596
X18415Y57785
X18415Y58928
X66929Y41402
X66548Y39497
X80645Y42291
X69723Y34798
X65913Y34798
X86868Y41148
X76708Y30988
X72390Y32893
X55118Y30988
X88138Y39116
X85598Y19050
X72009Y29718
X54102Y29718
X67056Y34036
X75057Y34036
X54356Y37758
X80137Y32766
X77089Y38608
X77724Y38608
X67818Y38608
X84328Y38100
X52959Y38608
X56388Y48768
X51308Y50038
X51308Y42418
X52578Y42418
X52578Y41148
X67818Y41402
X86868Y43688
X86868Y46228
X85598Y44958
X88138Y44958
X86868Y44958
X75057Y36068
X67183Y36068
X67818Y37338
X50038Y32258
X52578Y32258
X51308Y33528
X51308Y30988
X51308Y32258
X50038Y46228
X55118Y42418
X47498Y46228
X58928Y44958
X60198Y47498
X56388Y41148
X56388Y42418
X56388Y43688
X64643Y31877
X64643Y33020
X20701Y41402
X20320Y39497
X34417Y42291
X23495Y34798
X19685Y34798
X40640Y41148
X30480Y30988
X26162Y32893
X8890Y30988
X41910Y39116
X25781Y29718
X7874Y29718
X20828Y34036
X28829Y34036
X8128Y37758
X33909Y32766
X30861Y38608
X31496Y38608
X21590Y38608
X38100Y38100
X6731Y38608
X10160Y48768
X5080Y50038
X5080Y42418
X6350Y42418
X6350Y41148
X21590Y41402
X40640Y43688
X40640Y46228
X39370Y44958
X41910Y44958
X40640Y44958
X28829Y36068
X20955Y36068
X21590Y37338
X3810Y32258
X6350Y32258
X5080Y33528
X5080Y30988
X5080Y32258
X66929Y67310
M30