G04 EAGLE Gerber RS-274X export*
G75*
%MOMM*%
%FSLAX34Y34*%
%LPD*%
%INSolderpaste Top*%
%IPPOS*%
%AMOC8*
5,1,8,0,0,1.08239X$1,22.5*%
G01*
%ADD10R,1.000000X1.100000*%
%ADD11R,1.100000X1.000000*%
%ADD12R,1.200000X0.800000*%
%ADD13R,2.000000X1.200000*%
%ADD14R,1.350000X0.600000*%
%ADD15R,0.800000X1.800000*%
%ADD16R,0.700000X0.700000*%
%ADD17R,0.600000X1.200000*%
%ADD18R,0.400000X1.100000*%
%ADD19R,0.750000X0.700000*%
%ADD20R,0.800000X0.900000*%
%ADD21R,1.800000X1.600000*%
%ADD22R,0.630000X0.830000*%
%ADD23R,0.900000X1.000000*%
%ADD24R,0.900000X1.100000*%
%ADD25C,0.300000*%
%ADD26R,0.900000X0.800000*%
%ADD27R,0.800000X0.400000*%


D10*
X120650Y55000D03*
X120650Y72000D03*
D11*
X302650Y190500D03*
X319650Y190500D03*
D10*
X95250Y118500D03*
X95250Y135500D03*
X171450Y72000D03*
X171450Y55000D03*
D12*
X355600Y118000D03*
X355600Y136000D03*
D13*
X14050Y155000D03*
X14050Y99000D03*
D14*
X50800Y142000D03*
X50800Y132000D03*
X50800Y122000D03*
X50800Y112000D03*
D13*
X443150Y99000D03*
X443150Y155000D03*
D14*
X406400Y112000D03*
X406400Y122000D03*
X406400Y132000D03*
X406400Y142000D03*
D15*
X302150Y171450D03*
X320150Y171450D03*
D16*
X228450Y124100D03*
X241450Y124100D03*
X234950Y142600D03*
X228450Y60600D03*
X241450Y60600D03*
X234950Y79100D03*
D11*
X302650Y82550D03*
X319650Y82550D03*
X243450Y101600D03*
X226450Y101600D03*
D10*
X273050Y97400D03*
X273050Y80400D03*
X196850Y72000D03*
X196850Y55000D03*
D11*
X319650Y63500D03*
X302650Y63500D03*
X243450Y38100D03*
X226450Y38100D03*
D10*
X273050Y59300D03*
X273050Y42300D03*
D17*
X120650Y99000D03*
X133350Y99000D03*
X146050Y99000D03*
X158750Y99000D03*
X171450Y99000D03*
X184150Y99000D03*
X196850Y99000D03*
X196850Y155000D03*
X184150Y155000D03*
X171450Y155000D03*
X158750Y155000D03*
X146050Y155000D03*
X133350Y155000D03*
X120650Y155000D03*
D18*
X320900Y149500D03*
X314400Y149500D03*
X307900Y149500D03*
X301400Y149500D03*
X301400Y104500D03*
X307900Y104500D03*
X314400Y104500D03*
X320900Y104500D03*
D19*
X152800Y58500D03*
X139300Y58500D03*
X139300Y68500D03*
X152800Y68500D03*
D20*
X282550Y187800D03*
X263550Y187800D03*
X273050Y166800D03*
D10*
X264160Y145660D03*
X264160Y128660D03*
X281940Y128660D03*
X281940Y145660D03*
D21*
X355600Y96550D03*
X355600Y68550D03*
D11*
X347100Y173990D03*
X364100Y173990D03*
D22*
X344100Y190500D03*
X367100Y190500D03*
X344100Y152400D03*
X367100Y152400D03*
D23*
X123200Y224400D03*
D24*
X156200Y215900D03*
D23*
X123200Y207400D03*
X59700Y224400D03*
D24*
X92700Y215900D03*
D23*
X59700Y207400D03*
D11*
X33900Y171450D03*
X16900Y171450D03*
D25*
X20130Y180650D02*
X20130Y187650D01*
X20130Y180650D02*
X13130Y180650D01*
X13130Y187650D01*
X20130Y187650D01*
X20130Y183500D02*
X13130Y183500D01*
X13130Y186350D02*
X20130Y186350D01*
X37670Y187650D02*
X37670Y180650D01*
X30670Y180650D01*
X30670Y187650D01*
X37670Y187650D01*
X37670Y183500D02*
X30670Y183500D01*
X30670Y186350D02*
X37670Y186350D01*
D26*
X219550Y219100D03*
X219550Y238100D03*
X198550Y228600D03*
D27*
X217550Y190350D03*
X217550Y196850D03*
X217550Y203350D03*
X201550Y203350D03*
X201550Y196850D03*
X201550Y190350D03*
D10*
X254000Y201050D03*
X254000Y218050D03*
D11*
X218050Y176530D03*
X201050Y176530D03*
D10*
X582930Y55000D03*
X582930Y72000D03*
D11*
X764930Y190500D03*
X781930Y190500D03*
D10*
X557530Y118500D03*
X557530Y135500D03*
X633730Y72000D03*
X633730Y55000D03*
D12*
X817880Y118000D03*
X817880Y136000D03*
D13*
X476330Y155000D03*
X476330Y99000D03*
D14*
X513080Y142000D03*
X513080Y132000D03*
X513080Y122000D03*
X513080Y112000D03*
D13*
X905430Y99000D03*
X905430Y155000D03*
D14*
X868680Y112000D03*
X868680Y122000D03*
X868680Y132000D03*
X868680Y142000D03*
D15*
X764430Y171450D03*
X782430Y171450D03*
D16*
X690730Y124100D03*
X703730Y124100D03*
X697230Y142600D03*
X690730Y60600D03*
X703730Y60600D03*
X697230Y79100D03*
D11*
X764930Y82550D03*
X781930Y82550D03*
X705730Y101600D03*
X688730Y101600D03*
D10*
X735330Y97400D03*
X735330Y80400D03*
X659130Y72000D03*
X659130Y55000D03*
D11*
X781930Y63500D03*
X764930Y63500D03*
X705730Y38100D03*
X688730Y38100D03*
D10*
X735330Y59300D03*
X735330Y42300D03*
D17*
X582930Y99000D03*
X595630Y99000D03*
X608330Y99000D03*
X621030Y99000D03*
X633730Y99000D03*
X646430Y99000D03*
X659130Y99000D03*
X659130Y155000D03*
X646430Y155000D03*
X633730Y155000D03*
X621030Y155000D03*
X608330Y155000D03*
X595630Y155000D03*
X582930Y155000D03*
D18*
X783180Y149500D03*
X776680Y149500D03*
X770180Y149500D03*
X763680Y149500D03*
X763680Y104500D03*
X770180Y104500D03*
X776680Y104500D03*
X783180Y104500D03*
D19*
X615080Y58500D03*
X601580Y58500D03*
X601580Y68500D03*
X615080Y68500D03*
D20*
X744830Y187800D03*
X725830Y187800D03*
X735330Y166800D03*
D10*
X726440Y145660D03*
X726440Y128660D03*
X744220Y128660D03*
X744220Y145660D03*
D21*
X817880Y96550D03*
X817880Y68550D03*
D11*
X809380Y173990D03*
X826380Y173990D03*
D22*
X806380Y190500D03*
X829380Y190500D03*
X806380Y152400D03*
X829380Y152400D03*
D23*
X585480Y224400D03*
D24*
X618480Y215900D03*
D23*
X585480Y207400D03*
X521980Y224400D03*
D24*
X554980Y215900D03*
D23*
X521980Y207400D03*
D11*
X496180Y171450D03*
X479180Y171450D03*
D25*
X482410Y180650D02*
X482410Y187650D01*
X482410Y180650D02*
X475410Y180650D01*
X475410Y187650D01*
X482410Y187650D01*
X482410Y183500D02*
X475410Y183500D01*
X475410Y186350D02*
X482410Y186350D01*
X499950Y187650D02*
X499950Y180650D01*
X492950Y180650D01*
X492950Y187650D01*
X499950Y187650D01*
X499950Y183500D02*
X492950Y183500D01*
X492950Y186350D02*
X499950Y186350D01*
D26*
X681830Y219100D03*
X681830Y238100D03*
X660830Y228600D03*
D27*
X679830Y190350D03*
X679830Y196850D03*
X679830Y203350D03*
X663830Y203350D03*
X663830Y196850D03*
X663830Y190350D03*
D10*
X716280Y201050D03*
X716280Y218050D03*
D11*
X680330Y176530D03*
X663330Y176530D03*
D10*
X120650Y314080D03*
X120650Y331080D03*
D11*
X302650Y449580D03*
X319650Y449580D03*
D10*
X95250Y377580D03*
X95250Y394580D03*
X171450Y331080D03*
X171450Y314080D03*
D12*
X355600Y377080D03*
X355600Y395080D03*
D13*
X14050Y414080D03*
X14050Y358080D03*
D14*
X50800Y401080D03*
X50800Y391080D03*
X50800Y381080D03*
X50800Y371080D03*
D13*
X443150Y358080D03*
X443150Y414080D03*
D14*
X406400Y371080D03*
X406400Y381080D03*
X406400Y391080D03*
X406400Y401080D03*
D15*
X302150Y430530D03*
X320150Y430530D03*
D16*
X228450Y383180D03*
X241450Y383180D03*
X234950Y401680D03*
X228450Y319680D03*
X241450Y319680D03*
X234950Y338180D03*
D11*
X302650Y341630D03*
X319650Y341630D03*
X243450Y360680D03*
X226450Y360680D03*
D10*
X273050Y356480D03*
X273050Y339480D03*
X196850Y331080D03*
X196850Y314080D03*
D11*
X319650Y322580D03*
X302650Y322580D03*
X243450Y297180D03*
X226450Y297180D03*
D10*
X273050Y318380D03*
X273050Y301380D03*
D17*
X120650Y358080D03*
X133350Y358080D03*
X146050Y358080D03*
X158750Y358080D03*
X171450Y358080D03*
X184150Y358080D03*
X196850Y358080D03*
X196850Y414080D03*
X184150Y414080D03*
X171450Y414080D03*
X158750Y414080D03*
X146050Y414080D03*
X133350Y414080D03*
X120650Y414080D03*
D18*
X320900Y408580D03*
X314400Y408580D03*
X307900Y408580D03*
X301400Y408580D03*
X301400Y363580D03*
X307900Y363580D03*
X314400Y363580D03*
X320900Y363580D03*
D19*
X152800Y317580D03*
X139300Y317580D03*
X139300Y327580D03*
X152800Y327580D03*
D20*
X282550Y446880D03*
X263550Y446880D03*
X273050Y425880D03*
D10*
X264160Y404740D03*
X264160Y387740D03*
X281940Y387740D03*
X281940Y404740D03*
D21*
X355600Y355630D03*
X355600Y327630D03*
D11*
X347100Y433070D03*
X364100Y433070D03*
D22*
X344100Y449580D03*
X367100Y449580D03*
X344100Y411480D03*
X367100Y411480D03*
D23*
X123200Y483480D03*
D24*
X156200Y474980D03*
D23*
X123200Y466480D03*
X59700Y483480D03*
D24*
X92700Y474980D03*
D23*
X59700Y466480D03*
D11*
X33900Y430530D03*
X16900Y430530D03*
D25*
X20130Y439730D02*
X20130Y446730D01*
X20130Y439730D02*
X13130Y439730D01*
X13130Y446730D01*
X20130Y446730D01*
X20130Y442580D02*
X13130Y442580D01*
X13130Y445430D02*
X20130Y445430D01*
X37670Y446730D02*
X37670Y439730D01*
X30670Y439730D01*
X30670Y446730D01*
X37670Y446730D01*
X37670Y442580D02*
X30670Y442580D01*
X30670Y445430D02*
X37670Y445430D01*
D26*
X219550Y478180D03*
X219550Y497180D03*
X198550Y487680D03*
D27*
X217550Y449430D03*
X217550Y455930D03*
X217550Y462430D03*
X201550Y462430D03*
X201550Y455930D03*
X201550Y449430D03*
D10*
X254000Y460130D03*
X254000Y477130D03*
D11*
X218050Y435610D03*
X201050Y435610D03*
D10*
X582930Y314080D03*
X582930Y331080D03*
D11*
X764930Y449580D03*
X781930Y449580D03*
D10*
X557530Y377580D03*
X557530Y394580D03*
X633730Y331080D03*
X633730Y314080D03*
D12*
X817880Y377080D03*
X817880Y395080D03*
D13*
X476330Y414080D03*
X476330Y358080D03*
D14*
X513080Y401080D03*
X513080Y391080D03*
X513080Y381080D03*
X513080Y371080D03*
D13*
X905430Y358080D03*
X905430Y414080D03*
D14*
X868680Y371080D03*
X868680Y381080D03*
X868680Y391080D03*
X868680Y401080D03*
D15*
X764430Y430530D03*
X782430Y430530D03*
D16*
X690730Y383180D03*
X703730Y383180D03*
X697230Y401680D03*
X690730Y319680D03*
X703730Y319680D03*
X697230Y338180D03*
D11*
X764930Y341630D03*
X781930Y341630D03*
X705730Y360680D03*
X688730Y360680D03*
D10*
X735330Y356480D03*
X735330Y339480D03*
X659130Y331080D03*
X659130Y314080D03*
D11*
X781930Y322580D03*
X764930Y322580D03*
X705730Y297180D03*
X688730Y297180D03*
D10*
X735330Y318380D03*
X735330Y301380D03*
D17*
X582930Y358080D03*
X595630Y358080D03*
X608330Y358080D03*
X621030Y358080D03*
X633730Y358080D03*
X646430Y358080D03*
X659130Y358080D03*
X659130Y414080D03*
X646430Y414080D03*
X633730Y414080D03*
X621030Y414080D03*
X608330Y414080D03*
X595630Y414080D03*
X582930Y414080D03*
D18*
X783180Y408580D03*
X776680Y408580D03*
X770180Y408580D03*
X763680Y408580D03*
X763680Y363580D03*
X770180Y363580D03*
X776680Y363580D03*
X783180Y363580D03*
D19*
X615080Y317580D03*
X601580Y317580D03*
X601580Y327580D03*
X615080Y327580D03*
D20*
X744830Y446880D03*
X725830Y446880D03*
X735330Y425880D03*
D10*
X726440Y404740D03*
X726440Y387740D03*
X744220Y387740D03*
X744220Y404740D03*
D21*
X817880Y355630D03*
X817880Y327630D03*
D11*
X809380Y433070D03*
X826380Y433070D03*
D22*
X806380Y449580D03*
X829380Y449580D03*
X806380Y411480D03*
X829380Y411480D03*
D23*
X585480Y483480D03*
D24*
X618480Y474980D03*
D23*
X585480Y466480D03*
X521980Y483480D03*
D24*
X554980Y474980D03*
D23*
X521980Y466480D03*
D11*
X496180Y430530D03*
X479180Y430530D03*
D25*
X482410Y439730D02*
X482410Y446730D01*
X482410Y439730D02*
X475410Y439730D01*
X475410Y446730D01*
X482410Y446730D01*
X482410Y442580D02*
X475410Y442580D01*
X475410Y445430D02*
X482410Y445430D01*
X499950Y446730D02*
X499950Y439730D01*
X492950Y439730D01*
X492950Y446730D01*
X499950Y446730D01*
X499950Y442580D02*
X492950Y442580D01*
X492950Y445430D02*
X499950Y445430D01*
D26*
X681830Y478180D03*
X681830Y497180D03*
X660830Y487680D03*
D27*
X679830Y449430D03*
X679830Y455930D03*
X679830Y462430D03*
X663830Y462430D03*
X663830Y455930D03*
X663830Y449430D03*
D10*
X716280Y460130D03*
X716280Y477130D03*
D11*
X680330Y435610D03*
X663330Y435610D03*
D10*
X120650Y573160D03*
X120650Y590160D03*
D11*
X302650Y708660D03*
X319650Y708660D03*
D10*
X95250Y636660D03*
X95250Y653660D03*
X171450Y590160D03*
X171450Y573160D03*
D12*
X355600Y636160D03*
X355600Y654160D03*
D13*
X14050Y673160D03*
X14050Y617160D03*
D14*
X50800Y660160D03*
X50800Y650160D03*
X50800Y640160D03*
X50800Y630160D03*
D13*
X443150Y617160D03*
X443150Y673160D03*
D14*
X406400Y630160D03*
X406400Y640160D03*
X406400Y650160D03*
X406400Y660160D03*
D15*
X302150Y689610D03*
X320150Y689610D03*
D16*
X228450Y642260D03*
X241450Y642260D03*
X234950Y660760D03*
X228450Y578760D03*
X241450Y578760D03*
X234950Y597260D03*
D11*
X302650Y600710D03*
X319650Y600710D03*
X243450Y619760D03*
X226450Y619760D03*
D10*
X273050Y615560D03*
X273050Y598560D03*
X196850Y590160D03*
X196850Y573160D03*
D11*
X319650Y581660D03*
X302650Y581660D03*
X243450Y556260D03*
X226450Y556260D03*
D10*
X273050Y577460D03*
X273050Y560460D03*
D17*
X120650Y617160D03*
X133350Y617160D03*
X146050Y617160D03*
X158750Y617160D03*
X171450Y617160D03*
X184150Y617160D03*
X196850Y617160D03*
X196850Y673160D03*
X184150Y673160D03*
X171450Y673160D03*
X158750Y673160D03*
X146050Y673160D03*
X133350Y673160D03*
X120650Y673160D03*
D18*
X320900Y667660D03*
X314400Y667660D03*
X307900Y667660D03*
X301400Y667660D03*
X301400Y622660D03*
X307900Y622660D03*
X314400Y622660D03*
X320900Y622660D03*
D19*
X152800Y576660D03*
X139300Y576660D03*
X139300Y586660D03*
X152800Y586660D03*
D20*
X282550Y705960D03*
X263550Y705960D03*
X273050Y684960D03*
D10*
X264160Y663820D03*
X264160Y646820D03*
X281940Y646820D03*
X281940Y663820D03*
D21*
X355600Y614710D03*
X355600Y586710D03*
D11*
X347100Y692150D03*
X364100Y692150D03*
D22*
X344100Y708660D03*
X367100Y708660D03*
X344100Y670560D03*
X367100Y670560D03*
D23*
X123200Y742560D03*
D24*
X156200Y734060D03*
D23*
X123200Y725560D03*
X59700Y742560D03*
D24*
X92700Y734060D03*
D23*
X59700Y725560D03*
D11*
X33900Y689610D03*
X16900Y689610D03*
D25*
X20130Y698810D02*
X20130Y705810D01*
X20130Y698810D02*
X13130Y698810D01*
X13130Y705810D01*
X20130Y705810D01*
X20130Y701660D02*
X13130Y701660D01*
X13130Y704510D02*
X20130Y704510D01*
X37670Y705810D02*
X37670Y698810D01*
X30670Y698810D01*
X30670Y705810D01*
X37670Y705810D01*
X37670Y701660D02*
X30670Y701660D01*
X30670Y704510D02*
X37670Y704510D01*
D26*
X219550Y737260D03*
X219550Y756260D03*
X198550Y746760D03*
D27*
X217550Y708510D03*
X217550Y715010D03*
X217550Y721510D03*
X201550Y721510D03*
X201550Y715010D03*
X201550Y708510D03*
D10*
X254000Y719210D03*
X254000Y736210D03*
D11*
X218050Y694690D03*
X201050Y694690D03*
D10*
X582930Y573160D03*
X582930Y590160D03*
D11*
X764930Y708660D03*
X781930Y708660D03*
D10*
X557530Y636660D03*
X557530Y653660D03*
X633730Y590160D03*
X633730Y573160D03*
D12*
X817880Y636160D03*
X817880Y654160D03*
D13*
X476330Y673160D03*
X476330Y617160D03*
D14*
X513080Y660160D03*
X513080Y650160D03*
X513080Y640160D03*
X513080Y630160D03*
D13*
X905430Y617160D03*
X905430Y673160D03*
D14*
X868680Y630160D03*
X868680Y640160D03*
X868680Y650160D03*
X868680Y660160D03*
D15*
X764430Y689610D03*
X782430Y689610D03*
D16*
X690730Y642260D03*
X703730Y642260D03*
X697230Y660760D03*
X690730Y578760D03*
X703730Y578760D03*
X697230Y597260D03*
D11*
X764930Y600710D03*
X781930Y600710D03*
X705730Y619760D03*
X688730Y619760D03*
D10*
X735330Y615560D03*
X735330Y598560D03*
X659130Y590160D03*
X659130Y573160D03*
D11*
X781930Y581660D03*
X764930Y581660D03*
X705730Y556260D03*
X688730Y556260D03*
D10*
X735330Y577460D03*
X735330Y560460D03*
D17*
X582930Y617160D03*
X595630Y617160D03*
X608330Y617160D03*
X621030Y617160D03*
X633730Y617160D03*
X646430Y617160D03*
X659130Y617160D03*
X659130Y673160D03*
X646430Y673160D03*
X633730Y673160D03*
X621030Y673160D03*
X608330Y673160D03*
X595630Y673160D03*
X582930Y673160D03*
D18*
X783180Y667660D03*
X776680Y667660D03*
X770180Y667660D03*
X763680Y667660D03*
X763680Y622660D03*
X770180Y622660D03*
X776680Y622660D03*
X783180Y622660D03*
D19*
X615080Y576660D03*
X601580Y576660D03*
X601580Y586660D03*
X615080Y586660D03*
D20*
X744830Y705960D03*
X725830Y705960D03*
X735330Y684960D03*
D10*
X726440Y663820D03*
X726440Y646820D03*
X744220Y646820D03*
X744220Y663820D03*
D21*
X817880Y614710D03*
X817880Y586710D03*
D11*
X809380Y692150D03*
X826380Y692150D03*
D22*
X806380Y708660D03*
X829380Y708660D03*
X806380Y670560D03*
X829380Y670560D03*
D23*
X585480Y742560D03*
D24*
X618480Y734060D03*
D23*
X585480Y725560D03*
X521980Y742560D03*
D24*
X554980Y734060D03*
D23*
X521980Y725560D03*
D11*
X496180Y689610D03*
X479180Y689610D03*
D25*
X482410Y698810D02*
X482410Y705810D01*
X482410Y698810D02*
X475410Y698810D01*
X475410Y705810D01*
X482410Y705810D01*
X482410Y701660D02*
X475410Y701660D01*
X475410Y704510D02*
X482410Y704510D01*
X499950Y705810D02*
X499950Y698810D01*
X492950Y698810D01*
X492950Y705810D01*
X499950Y705810D01*
X499950Y701660D02*
X492950Y701660D01*
X492950Y704510D02*
X499950Y704510D01*
D26*
X681830Y737260D03*
X681830Y756260D03*
X660830Y746760D03*
D27*
X679830Y708510D03*
X679830Y715010D03*
X679830Y721510D03*
X663830Y721510D03*
X663830Y715010D03*
X663830Y708510D03*
D10*
X716280Y719210D03*
X716280Y736210D03*
D11*
X680330Y694690D03*
X663330Y694690D03*
D10*
X120650Y832240D03*
X120650Y849240D03*
D11*
X302650Y967740D03*
X319650Y967740D03*
D10*
X95250Y895740D03*
X95250Y912740D03*
X171450Y849240D03*
X171450Y832240D03*
D12*
X355600Y895240D03*
X355600Y913240D03*
D13*
X14050Y932240D03*
X14050Y876240D03*
D14*
X50800Y919240D03*
X50800Y909240D03*
X50800Y899240D03*
X50800Y889240D03*
D13*
X443150Y876240D03*
X443150Y932240D03*
D14*
X406400Y889240D03*
X406400Y899240D03*
X406400Y909240D03*
X406400Y919240D03*
D15*
X302150Y948690D03*
X320150Y948690D03*
D16*
X228450Y901340D03*
X241450Y901340D03*
X234950Y919840D03*
X228450Y837840D03*
X241450Y837840D03*
X234950Y856340D03*
D11*
X302650Y859790D03*
X319650Y859790D03*
X243450Y878840D03*
X226450Y878840D03*
D10*
X273050Y874640D03*
X273050Y857640D03*
X196850Y849240D03*
X196850Y832240D03*
D11*
X319650Y840740D03*
X302650Y840740D03*
X243450Y815340D03*
X226450Y815340D03*
D10*
X273050Y836540D03*
X273050Y819540D03*
D17*
X120650Y876240D03*
X133350Y876240D03*
X146050Y876240D03*
X158750Y876240D03*
X171450Y876240D03*
X184150Y876240D03*
X196850Y876240D03*
X196850Y932240D03*
X184150Y932240D03*
X171450Y932240D03*
X158750Y932240D03*
X146050Y932240D03*
X133350Y932240D03*
X120650Y932240D03*
D18*
X320900Y926740D03*
X314400Y926740D03*
X307900Y926740D03*
X301400Y926740D03*
X301400Y881740D03*
X307900Y881740D03*
X314400Y881740D03*
X320900Y881740D03*
D19*
X152800Y835740D03*
X139300Y835740D03*
X139300Y845740D03*
X152800Y845740D03*
D20*
X282550Y965040D03*
X263550Y965040D03*
X273050Y944040D03*
D10*
X264160Y922900D03*
X264160Y905900D03*
X281940Y905900D03*
X281940Y922900D03*
D21*
X355600Y873790D03*
X355600Y845790D03*
D11*
X347100Y951230D03*
X364100Y951230D03*
D22*
X344100Y967740D03*
X367100Y967740D03*
X344100Y929640D03*
X367100Y929640D03*
D23*
X123200Y1001640D03*
D24*
X156200Y993140D03*
D23*
X123200Y984640D03*
X59700Y1001640D03*
D24*
X92700Y993140D03*
D23*
X59700Y984640D03*
D11*
X33900Y948690D03*
X16900Y948690D03*
D25*
X20130Y957890D02*
X20130Y964890D01*
X20130Y957890D02*
X13130Y957890D01*
X13130Y964890D01*
X20130Y964890D01*
X20130Y960740D02*
X13130Y960740D01*
X13130Y963590D02*
X20130Y963590D01*
X37670Y964890D02*
X37670Y957890D01*
X30670Y957890D01*
X30670Y964890D01*
X37670Y964890D01*
X37670Y960740D02*
X30670Y960740D01*
X30670Y963590D02*
X37670Y963590D01*
D26*
X219550Y996340D03*
X219550Y1015340D03*
X198550Y1005840D03*
D27*
X217550Y967590D03*
X217550Y974090D03*
X217550Y980590D03*
X201550Y980590D03*
X201550Y974090D03*
X201550Y967590D03*
D10*
X254000Y978290D03*
X254000Y995290D03*
D11*
X218050Y953770D03*
X201050Y953770D03*
D10*
X582930Y832240D03*
X582930Y849240D03*
D11*
X764930Y967740D03*
X781930Y967740D03*
D10*
X557530Y895740D03*
X557530Y912740D03*
X633730Y849240D03*
X633730Y832240D03*
D12*
X817880Y895240D03*
X817880Y913240D03*
D13*
X476330Y932240D03*
X476330Y876240D03*
D14*
X513080Y919240D03*
X513080Y909240D03*
X513080Y899240D03*
X513080Y889240D03*
D13*
X905430Y876240D03*
X905430Y932240D03*
D14*
X868680Y889240D03*
X868680Y899240D03*
X868680Y909240D03*
X868680Y919240D03*
D15*
X764430Y948690D03*
X782430Y948690D03*
D16*
X690730Y901340D03*
X703730Y901340D03*
X697230Y919840D03*
X690730Y837840D03*
X703730Y837840D03*
X697230Y856340D03*
D11*
X764930Y859790D03*
X781930Y859790D03*
X705730Y878840D03*
X688730Y878840D03*
D10*
X735330Y874640D03*
X735330Y857640D03*
X659130Y849240D03*
X659130Y832240D03*
D11*
X781930Y840740D03*
X764930Y840740D03*
X705730Y815340D03*
X688730Y815340D03*
D10*
X735330Y836540D03*
X735330Y819540D03*
D17*
X582930Y876240D03*
X595630Y876240D03*
X608330Y876240D03*
X621030Y876240D03*
X633730Y876240D03*
X646430Y876240D03*
X659130Y876240D03*
X659130Y932240D03*
X646430Y932240D03*
X633730Y932240D03*
X621030Y932240D03*
X608330Y932240D03*
X595630Y932240D03*
X582930Y932240D03*
D18*
X783180Y926740D03*
X776680Y926740D03*
X770180Y926740D03*
X763680Y926740D03*
X763680Y881740D03*
X770180Y881740D03*
X776680Y881740D03*
X783180Y881740D03*
D19*
X615080Y835740D03*
X601580Y835740D03*
X601580Y845740D03*
X615080Y845740D03*
D20*
X744830Y965040D03*
X725830Y965040D03*
X735330Y944040D03*
D10*
X726440Y922900D03*
X726440Y905900D03*
X744220Y905900D03*
X744220Y922900D03*
D21*
X817880Y873790D03*
X817880Y845790D03*
D11*
X809380Y951230D03*
X826380Y951230D03*
D22*
X806380Y967740D03*
X829380Y967740D03*
X806380Y929640D03*
X829380Y929640D03*
D23*
X585480Y1001640D03*
D24*
X618480Y993140D03*
D23*
X585480Y984640D03*
X521980Y1001640D03*
D24*
X554980Y993140D03*
D23*
X521980Y984640D03*
D11*
X496180Y948690D03*
X479180Y948690D03*
D25*
X482410Y957890D02*
X482410Y964890D01*
X482410Y957890D02*
X475410Y957890D01*
X475410Y964890D01*
X482410Y964890D01*
X482410Y960740D02*
X475410Y960740D01*
X475410Y963590D02*
X482410Y963590D01*
X499950Y964890D02*
X499950Y957890D01*
X492950Y957890D01*
X492950Y964890D01*
X499950Y964890D01*
X499950Y960740D02*
X492950Y960740D01*
X492950Y963590D02*
X499950Y963590D01*
D26*
X681830Y996340D03*
X681830Y1015340D03*
X660830Y1005840D03*
D27*
X679830Y967590D03*
X679830Y974090D03*
X679830Y980590D03*
X663830Y980590D03*
X663830Y974090D03*
X663830Y967590D03*
D10*
X716280Y978290D03*
X716280Y995290D03*
D11*
X680330Y953770D03*
X663330Y953770D03*
M02*
